<?xml version='1.0' encoding='utf-8'?>
<score-partwise version="3.1"><part-list><score-part id="P2"><part-name>Piano</part-name></score-part></part-list><part id="P2"><measure number="76" width="170.92">
      <print>
        <staff-layout number="1">
          <staff-distance>127.57</staff-distance>
          </staff-layout>
        <staff-layout number="2">
          <staff-distance>88.50</staff-distance>
          </staff-layout>
        </print>
      <attributes><divisions>160</divisions>
        <key>
          <fifths>-3</fifths>
          </key>
        <staves>2</staves>
        <clef number="1">
          <sign>G</sign>
          <line>2</line>
          </clef>
        <clef number="2">
          <sign>F</sign>
          <line>4</line>
          </clef>
        </attributes><direction placement="below">
        <direction-type>
          <dynamics default-x="6.58" default-y="-43.36" relative-x="4.58" relative-y="-40.00">
            <sf />
            </dynamics>
          </direction-type>
        <staff>1</staff>
        <sound dynamics="124.44" />
        </direction>
      <note default-x="98.90" default-y="-182.57">
        <pitch>
          <step>C</step>
          <octave>5</octave>
          </pitch>
        <duration>160</duration>
        <tie type="stop" />
        <voice>1</voice>
        <type>quarter</type>
        <stem>up</stem>
        <staff>1</staff>
        <notations>
          <tied type="stop" />
          </notations>
        </note>
      <note default-x="136.55" default-y="-182.57">
        <pitch>
          <step>C</step>
          <octave>5</octave>
          </pitch>
        <duration>80</duration>
        <tie type="start" />
        <voice>1</voice>
        <type>eighth</type>
        <stem>up</stem>
        <staff>1</staff>
        <notations>
          <tied type="start" />
          </notations>
        </note>
      <backup>
        <duration>240</duration>
        </backup>
      <note default-x="98.90" default-y="-197.57">
        <pitch>
          <step>G</step>
          <octave>4</octave>
          </pitch>
        <duration>240</duration>
        <voice>2</voice>
        <type>quarter</type>
        <dot />
        <stem>down</stem>
        <staff>1</staff>
        </note>
      <backup>
        <duration>240</duration>
        </backup>
      <note default-x="98.90" default-y="-311.07">
        <pitch>
          <step>E</step>
          <alter>-1</alter>
          <octave>3</octave>
          </pitch>
        <duration>240</duration>
        <voice>5</voice>
        <type>quarter</type>
        <dot />
        <stem>down</stem>
        <staff>2</staff>
        <notations>
          <slur type="start" placement="below" number="1" />
          </notations>
        </note>
      <note default-x="98.90" default-y="-286.07">
        <chord />
        <pitch>
          <step>C</step>
          <octave>4</octave>
          </pitch>
        <duration>240</duration>
        <tie type="start" />
        <voice>5</voice>
        <type>quarter</type>
        <dot />
        <stem>down</stem>
        <staff>2</staff>
        <notations>
          <tied type="start" />
          </notations>
        </note>
      </measure>
    <measure number="77" width="131.71">
      <note default-x="32.86" default-y="-182.57">
        <pitch>
          <step>C</step>
          <octave>5</octave>
          </pitch>
        <duration>160</duration>
        <tie type="stop" />
        <voice>1</voice>
        <type>quarter</type>
        <stem>up</stem>
        <staff>1</staff>
        <notations>
          <tied type="stop" />
          </notations>
        </note>
      <note default-x="91.33" default-y="-182.57">
        <pitch>
          <step>C</step>
          <octave>5</octave>
          </pitch>
        <duration>80</duration>
        <tie type="start" />
        <voice>1</voice>
        <type>eighth</type>
        <stem>up</stem>
        <staff>1</staff>
        <notations>
          <tied type="start" />
          </notations>
        </note>
      <backup>
        <duration>240</duration>
        </backup>
      <note default-x="32.86" default-y="-192.57">
        <pitch>
          <step>A</step>
          <alter>-1</alter>
          <octave>4</octave>
          </pitch>
        <duration>240</duration>
        <voice>2</voice>
        <type>quarter</type>
        <dot />
        <stem>down</stem>
        <staff>1</staff>
        </note>
      <backup>
        <duration>240</duration>
        </backup>
      <note default-x="32.86" default-y="-306.07">
        <pitch>
          <step>F</step>
          <octave>3</octave>
          </pitch>
        <duration>240</duration>
        <voice>5</voice>
        <type>quarter</type>
        <dot />
        <stem>down</stem>
        <staff>2</staff>
        </note>
      <note default-x="32.86" default-y="-286.07">
        <chord />
        <pitch>
          <step>C</step>
          <octave>4</octave>
          </pitch>
        <duration>240</duration>
        <tie type="stop" />
        <tie type="start" />
        <voice>5</voice>
        <type>quarter</type>
        <dot />
        <stem>down</stem>
        <staff>2</staff>
        <notations>
          <tied type="stop" />
          <tied type="start" />
          </notations>
        </note>
      </measure>
    <measure number="78" width="141.21">
      <direction placement="above">
        <direction-type>
          <words font-family="FreeSerif" font-size="12" font-style="italic" default-y="43.00">dim.</words>
          </direction-type>
        <direction-type>
          <dashes type="start" number="1" default-y="43.00" />
          </direction-type>
        <staff>1</staff>
        </direction>
      <note default-x="17.89" default-y="-182.57">
        <pitch>
          <step>C</step>
          <octave>5</octave>
          </pitch>
        <duration>80</duration>
        <tie type="stop" />
        <voice>1</voice>
        <type>eighth</type>
        <stem>up</stem>
        <staff>1</staff>
        <beam number="1">begin</beam>
        <notations>
          <tied type="stop" />
          </notations>
        </note>
      <note default-x="56.82" default-y="-177.57">
        <pitch>
          <step>D</step>
          <octave>5</octave>
          </pitch>
        <duration>80</duration>
        <voice>1</voice>
        <type>eighth</type>
        <stem>up</stem>
        <staff>1</staff>
        <beam number="1">continue</beam>
        </note>
      <note default-x="100.68" default-y="-182.57">
        <pitch>
          <step>C</step>
          <octave>5</octave>
          </pitch>
        <duration>80</duration>
        <voice>1</voice>
        <type>eighth</type>
        <stem>up</stem>
        <staff>1</staff>
        <beam number="1">end</beam>
        </note>
      <backup>
        <duration>240</duration>
        </backup>
      <note default-x="17.89" default-y="-197.57">
        <pitch>
          <step>G</step>
          <octave>4</octave>
          </pitch>
        <duration>240</duration>
        <voice>2</voice>
        <type>quarter</type>
        <dot />
        <stem>down</stem>
        <staff>1</staff>
        </note>
      <backup>
        <duration>240</duration>
        </backup>
      <note default-x="17.89" default-y="-311.07">
        <pitch>
          <step>E</step>
          <alter>-1</alter>
          <octave>3</octave>
          </pitch>
        <duration>240</duration>
        <voice>5</voice>
        <type>quarter</type>
        <dot />
        <stem>down</stem>
        <staff>2</staff>
        </note>
      <note default-x="17.89" default-y="-286.07">
        <chord />
        <pitch>
          <step>C</step>
          <octave>4</octave>
          </pitch>
        <duration>240</duration>
        <tie type="stop" />
        <tie type="start" />
        <voice>5</voice>
        <type>quarter</type>
        <dot />
        <stem>down</stem>
        <staff>2</staff>
        <notations>
          <tied type="stop" />
          <tied type="start" />
          </notations>
        </note>
      </measure>
    <measure number="79" width="90.78">
      <direction placement="below">
        <direction-type>
          <dynamics default-x="3.29" default-y="-40.00" relative-x="3.29" relative-y="-30.00">
            <sf />
            </dynamics>
          </direction-type>
        <staff>1</staff>
        <sound dynamics="124.44" />
        </direction>
      <note default-x="13.75" default-y="-202.57">
        <grace />
        <pitch>
          <step>F</step>
          <octave>4</octave>
          </pitch>
        <voice>1</voice>
        <type>16th</type>
        <stem>up</stem>
        <staff>1</staff>
        <beam number="1">begin</beam>
        <beam number="2">begin</beam>
        </note>
      <note default-x="24.72" default-y="-182.57">
        <grace />
        <pitch>
          <step>C</step>
          <octave>5</octave>
          </pitch>
        <voice>1</voice>
        <type>16th</type>
        <stem>up</stem>
        <staff>1</staff>
        <beam number="1">end</beam>
        <beam number="2">end</beam>
        </note>
      <note default-x="36.43" default-y="-147.57">
        <pitch>
          <step>C</step>
          <octave>6</octave>
          </pitch>
        <duration>160</duration>
        <voice>1</voice>
        <type>quarter</type>
        <stem>down</stem>
        <staff>1</staff>
        <notations>
          <slur type="start" placement="above" number="2" />
          </notations>
        </note>
      <note default-x="66.01" default-y="-157.57">
        <pitch>
          <step>A</step>
          <alter>-1</alter>
          <octave>5</octave>
          </pitch>
        <duration>80</duration>
        <voice>1</voice>
        <type>eighth</type>
        <stem>down</stem>
        <staff>1</staff>
        </note>
      <backup>
        <duration>240</duration>
        </backup>
      <direction placement="below">
        <direction-type>
          <pedal type="start" line="yes" default-y="-83.60" />
          </direction-type>
        <staff>2</staff>
        </direction>
      <note default-x="36.43" default-y="-316.07">
        <pitch>
          <step>D</step>
          <octave>3</octave>
          </pitch>
        <duration>240</duration>
        <voice>5</voice>
        <type>quarter</type>
        <dot />
        <stem>down</stem>
        <staff>2</staff>
        <notations>
          <slur type="stop" number="1" />
          </notations>
        </note>
      <note default-x="36.43" default-y="-286.07">
        <chord />
        <pitch>
          <step>C</step>
          <octave>4</octave>
          </pitch>
        <duration>240</duration>
        <tie type="stop" />
        <tie type="start" />
        <voice>5</voice>
        <type>quarter</type>
        <dot />
        <stem>down</stem>
        <staff>2</staff>
        <notations>
          <tied type="stop" />
          <tied type="start" />
          </notations>
        </note>
      </measure>
    <measure number="80" width="99.61">
      <note default-x="21.14" default-y="-167.57">
        <pitch>
          <step>F</step>
          <octave>5</octave>
          </pitch>
        <duration>160</duration>
        <voice>1</voice>
        <type>quarter</type>
        <stem>down</stem>
        <staff>1</staff>
        </note>
      <note default-x="65.24" default-y="-177.57">
        <pitch>
          <step>D</step>
          <octave>5</octave>
          </pitch>
        <duration>80</duration>
        <voice>1</voice>
        <type>eighth</type>
        <stem>down</stem>
        <staff>1</staff>
        <notations>
          <slur type="stop" number="2" />
          </notations>
        </note>
      <backup>
        <duration>240</duration>
        </backup>
      <note default-x="21.14" default-y="-271.07">
        <pitch>
          <step>F</step>
          <octave>4</octave>
          </pitch>
        <duration>160</duration>
        <voice>5</voice>
        <type>quarter</type>
        <stem>up</stem>
        <staff>2</staff>
        </note>
      <note default-x="65.24" default-y="-261.07">
        <pitch>
          <step>A</step>
          <alter>-1</alter>
          <octave>4</octave>
          </pitch>
        <duration>80</duration>
        <voice>5</voice>
        <type>eighth</type>
        <stem>up</stem>
        <staff>2</staff>
        </note>
      <direction placement="below">
        <direction-type>
          <pedal type="stop" line="yes" />
          </direction-type>
        <staff>2</staff>
        </direction>
      <backup>
        <duration>240</duration>
        </backup>
      <note default-x="21.14" default-y="-316.07">
        <pitch>
          <step>D</step>
          <octave>3</octave>
          </pitch>
        <duration>240</duration>
        <voice>6</voice>
        <type>quarter</type>
        <dot />
        <stem>down</stem>
        <staff>2</staff>
        </note>
      <note default-x="21.14" default-y="-286.07">
        <chord />
        <pitch>
          <step>C</step>
          <octave>4</octave>
          </pitch>
        <duration>240</duration>
        <tie type="stop" />
        <voice>6</voice>
        <type>quarter</type>
        <dot />
        <stem>down</stem>
        <staff>2</staff>
        <notations>
          <tied type="stop" />
          </notations>
        </note>
      </measure>
    <measure number="81" width="97.69">
      <direction placement="below">
        <direction-type>
          <dynamics default-x="6.58" default-y="-44.36" relative-x="16.58" relative-y="-20.00">
            <sf />
            </dynamics>
          </direction-type>
        <staff>1</staff>
        <sound dynamics="124.44" />
        </direction>
      <note default-x="25.09" default-y="-182.57">
        <pitch>
          <step>C</step>
          <octave>5</octave>
          </pitch>
        <duration>240</duration>
        <voice>1</voice>
        <type>quarter</type>
        <dot />
        <stem>up</stem>
        <staff>1</staff>
        <notations>
          <arpeggiate default-x="-13.09" default-y="-9.49" />
          </notations>
        </note>
      <backup>
        <duration>240</duration>
        </backup>
      <note default-x="25.09" default-y="-192.57">
        <pitch>
          <step>A</step>
          <alter>-1</alter>
          <octave>4</octave>
          </pitch>
        <duration>240</duration>
        <tie type="start" />
        <voice>2</voice>
        <type>quarter</type>
        <dot />
        <stem>down</stem>
        <staff>1</staff>
        <notations>
          <tied type="start" />
          <arpeggiate default-x="-13.09" default-y="-19.49" />
          </notations>
        </note>
      <backup>
        <duration>240</duration>
        </backup>
      <note default-x="25.09" default-y="-266.07">
        <pitch>
          <step>G</step>
          <octave>4</octave>
          </pitch>
        <duration>240</duration>
        <voice>5</voice>
        <type>quarter</type>
        <dot />
        <stem>up</stem>
        <staff>2</staff>
        </note>
      <backup>
        <duration>240</duration>
        </backup>
      <note default-x="25.09" default-y="-301.07">
        <pitch>
          <step>G</step>
          <octave>3</octave>
          </pitch>
        <duration>240</duration>
        <tie type="start" />
        <voice>6</voice>
        <type>quarter</type>
        <dot />
        <stem>down</stem>
        <staff>2</staff>
        <notations>
          <tied type="start" />
          </notations>
        </note>
      <note default-x="25.09" default-y="-276.07">
        <chord />
        <pitch>
          <step>E</step>
          <alter>-1</alter>
          <octave>4</octave>
          </pitch>
        <duration>240</duration>
        <voice>6</voice>
        <type>quarter</type>
        <dot />
        <stem>down</stem>
        <staff>2</staff>
        </note>
      </measure>
    <measure number="82" width="152.67">
      <note default-x="25.61" default-y="-187.57">
        <pitch>
          <step>B</step>
          <octave>4</octave>
          </pitch>
        <duration>240</duration>
        <voice>1</voice>
        <type>quarter</type>
        <dot />
        <accidental>natural</accidental>
        <stem>up</stem>
        <staff>1</staff>
        <notations>
          <fermata type="upright" default-y="29.40" relative-y="18.25" />
          </notations>
        </note>
      <backup>
        <duration>240</duration>
        </backup>
      <note default-x="46.50" default-y="-192.57">
        <pitch>
          <step>A</step>
          <alter>-1</alter>
          <octave>4</octave>
          </pitch>
        <duration>160</duration>
        <tie type="stop" />
        <voice>2</voice>
        <type>quarter</type>
        <stem>down</stem>
        <staff>1</staff>
        <notations>
          <tied type="stop" />
          </notations>
        </note>
      <note default-x="115.16" default-y="-197.57">
        <pitch>
          <step>G</step>
          <octave>4</octave>
          </pitch>
        <duration>80</duration>
        <voice>2</voice>
        <type>eighth</type>
        <stem>down</stem>
        <staff>1</staff>
        </note>
      <backup>
        <duration>240</duration>
        </backup>
      <note default-x="25.61" default-y="-271.07">
        <pitch>
          <step>F</step>
          <octave>4</octave>
          </pitch>
        <duration>240</duration>
        <voice>5</voice>
        <type>quarter</type>
        <dot />
        <stem>up</stem>
        <staff>2</staff>
        </note>
      <backup>
        <duration>240</duration>
        </backup>
      <note default-x="25.61" default-y="-301.07">
        <pitch>
          <step>G</step>
          <octave>3</octave>
          </pitch>
        <duration>240</duration>
        <tie type="stop" />
        <voice>6</voice>
        <type>quarter</type>
        <dot />
        <stem>down</stem>
        <staff>2</staff>
        <notations>
          <tied type="stop" />
          <fermata type="inverted" default-y="-40.00" relative-y="-10.00" />
          </notations>
        </note>
      <note default-x="25.61" default-y="-281.07">
        <chord />
        <pitch>
          <step>D</step>
          <octave>4</octave>
          </pitch>
        <duration>240</duration>
        <voice>6</voice>
        <type>quarter</type>
        <dot />
        <stem>down</stem>
        <staff>2</staff>
        </note>
      </measure>
    <measure number="83" width="91.59">
      <note default-x="14.00" default-y="-182.57">
        <pitch>
          <step>C</step>
          <octave>5</octave>
          </pitch>
        <duration>160</duration>
        <voice>1</voice>
        <type>quarter</type>
        <stem>up</stem>
        <staff>1</staff>
        </note>
      <note default-x="57.21" default-y="-187.57">
        <pitch>
          <step>B</step>
          <alter>-1</alter>
          <octave>4</octave>
          </pitch>
        <duration>80</duration>
        <voice>1</voice>
        <type>eighth</type>
        <accidental>flat</accidental>
        <stem>up</stem>
        <staff>1</staff>
        </note>
      <backup>
        <duration>240</duration>
        </backup>
      <note default-x="14.00" default-y="-207.57">
        <pitch>
          <step>E</step>
          <octave>4</octave>
          </pitch>
        <duration>240</duration>
        <voice>2</voice>
        <type>quarter</type>
        <dot />
        <accidental>natural</accidental>
        <stem>down</stem>
        <staff>1</staff>
        </note>
      <backup>
        <duration>240</duration>
        </backup>
      <note default-x="14.00" default-y="-286.07">
        <pitch>
          <step>C</step>
          <octave>4</octave>
          </pitch>
        <duration>240</duration>
        <tie type="start" />
        <voice>5</voice>
        <type>quarter</type>
        <dot />
        <stem>up</stem>
        <staff>2</staff>
        <notations>
          <tied type="start" />
          </notations>
        </note>
      <backup>
        <duration>240</duration>
        </backup>
      <note default-x="14.00" default-y="-296.07">
        <pitch>
          <step>A</step>
          <alter>-1</alter>
          <octave>3</octave>
          </pitch>
        <duration>160</duration>
        <voice>6</voice>
        <type>quarter</type>
        <stem>down</stem>
        <staff>2</staff>
        </note>
      <note default-x="57.21" default-y="-301.07">
        <pitch>
          <step>G</step>
          <octave>3</octave>
          </pitch>
        <duration>80</duration>
        <voice>6</voice>
        <type>eighth</type>
        <stem>down</stem>
        <staff>2</staff>
        </note>
      </measure>
    <measure number="84" width="99.25">
      <note default-x="14.00" default-y="-192.57">
        <pitch>
          <step>A</step>
          <octave>4</octave>
          </pitch>
        <duration>160</duration>
        <voice>1</voice>
        <type>quarter</type>
        <accidental>natural</accidental>
        <stem>up</stem>
        <staff>1</staff>
        </note>
      <note print-object="no">
        <rest />
        <duration>40</duration>
        <voice>1</voice>
        <type>16th</type>
        <staff>1</staff>
        </note>
      <note default-x="64.85" default-y="-192.57">
        <pitch>
          <step>A</step>
          <alter>-1</alter>
          <octave>4</octave>
          </pitch>
        <duration>40</duration>
        <voice>1</voice>
        <type>16th</type>
        <accidental>flat</accidental>
        <stem>up</stem>
        <staff>1</staff>
        </note>
      <direction placement="above">
        <direction-type>
          <dashes type="stop" number="1" />
          </direction-type>
        <staff>1</staff>
        </direction>
      <backup>
        <duration>240</duration>
        </backup>
      <note default-x="14.00" default-y="-202.57">
        <pitch>
          <step>F</step>
          <octave>4</octave>
          </pitch>
        <duration>160</duration>
        <voice>2</voice>
        <type>quarter</type>
        <stem>down</stem>
        <staff>1</staff>
        </note>
      <note default-x="35.98" default-y="-212.57">
        <pitch>
          <step>D</step>
          <octave>4</octave>
          </pitch>
        <duration>80</duration>
        <voice>2</voice>
        <type>eighth</type>
        <stem>down</stem>
        <staff>1</staff>
        </note>
      <backup>
        <duration>240</duration>
        </backup>
      <note default-x="14.00" default-y="-286.07">
        <pitch>
          <step>C</step>
          <octave>4</octave>
          </pitch>
        <duration>160</duration>
        <tie type="stop" />
        <voice>5</voice>
        <type>quarter</type>
        <stem>up</stem>
        <staff>2</staff>
        <notations>
          <tied type="stop" />
          </notations>
        </note>
      <note print-object="no">
        <rest />
        <duration>40</duration>
        <voice>5</voice>
        <type>16th</type>
        <staff>2</staff>
        </note>
      <note default-x="64.85" default-y="-291.07">
        <pitch>
          <step>B</step>
          <octave>3</octave>
          </pitch>
        <duration>40</duration>
        <voice>5</voice>
        <type>16th</type>
        <accidental>natural</accidental>
        <stem>up</stem>
        <staff>2</staff>
        </note>
      <backup>
        <duration>240</duration>
        </backup>
      <note default-x="14.00" default-y="-306.07">
        <pitch>
          <step>F</step>
          <octave>3</octave>
          </pitch>
        <duration>240</duration>
        <voice>6</voice>
        <type>quarter</type>
        <dot />
        <stem>down</stem>
        <staff>2</staff>
        <notations>
          <slur type="start" placement="below" number="1" />
          </notations>
        </note>
      </measure>
    <measure number="85" width="177.07">
      <note default-x="14.00" default-y="-197.57">
        <pitch>
          <step>G</step>
          <octave>4</octave>
          </pitch>
        <duration>240</duration>
        <tie type="start" />
        <voice>1</voice>
        <type>quarter</type>
        <dot />
        <stem>up</stem>
        <staff>1</staff>
        <notations>
          <tied type="start" />
          </notations>
        </note>
      <backup>
        <duration>240</duration>
        </backup>
      <note default-x="14.00" default-y="-207.57">
        <pitch>
          <step>E</step>
          <octave>4</octave>
          </pitch>
        <duration>240</duration>
        <tie type="start" />
        <voice>2</voice>
        <type>quarter</type>
        <dot />
        <accidental>natural</accidental>
        <stem>down</stem>
        <staff>1</staff>
        <notations>
          <tied type="start" />
          </notations>
        </note>
      <backup>
        <duration>240</duration>
        </backup>
      <direction placement="below">
        <direction-type>
          <pedal type="start" line="yes" default-y="-83.60" />
          </direction-type>
        <staff>2</staff>
        </direction>
      <note>
        <rest />
        <duration>80</duration>
        <voice>5</voice>
        <type size="cue">eighth</type>
        <staff>2</staff>
        </note>
      <note default-x="44.01" default-y="-301.07">
        <pitch>
          <step>G</step>
          <octave>3</octave>
          </pitch>
        <duration>23</duration>
        <voice>5</voice>
        <type size="cue">quarter</type>
        <time-modification>
          <actual-notes>7</actual-notes>
          <normal-notes>1</normal-notes>
          </time-modification>
        <stem>up</stem>
        <staff>2</staff>
        <notations>
          <tuplet type="start" bracket="no" show-number="none" />
          <slur type="start" placement="above" number="2" />
          </notations>
        </note>
      <note default-x="67.89" default-y="-276.07">
        <pitch>
          <step>E</step>
          <octave>4</octave>
          </pitch>
        <duration>23</duration>
        <voice>5</voice>
        <type size="cue">quarter</type>
        <accidental>natural</accidental>
        <time-modification>
          <actual-notes>7</actual-notes>
          <normal-notes>1</normal-notes>
          </time-modification>
        <stem>up</stem>
        <staff>2</staff>
        </note>
      <note default-x="87.21" default-y="-286.07">
        <pitch>
          <step>C</step>
          <octave>4</octave>
          </pitch>
        <duration>23</duration>
        <voice>5</voice>
        <type size="cue">quarter</type>
        <time-modification>
          <actual-notes>7</actual-notes>
          <normal-notes>1</normal-notes>
          </time-modification>
        <stem>up</stem>
        <staff>2</staff>
        </note>
      <note default-x="102.87" default-y="-301.07">
        <pitch>
          <step>G</step>
          <octave>3</octave>
          </pitch>
        <duration>23</duration>
        <voice>5</voice>
        <type size="cue">quarter</type>
        <time-modification>
          <actual-notes>7</actual-notes>
          <normal-notes>1</normal-notes>
          </time-modification>
        <stem>up</stem>
        <staff>2</staff>
        </note>
      <note default-x="122.95" default-y="-311.07">
        <pitch>
          <step>E</step>
          <octave>3</octave>
          </pitch>
        <duration>23</duration>
        <voice>5</voice>
        <type size="cue">quarter</type>
        <accidental>natural</accidental>
        <time-modification>
          <actual-notes>7</actual-notes>
          <normal-notes>1</normal-notes>
          </time-modification>
        <stem>up</stem>
        <staff>2</staff>
        </note>
      <note default-x="138.61" default-y="-321.07">
        <pitch>
          <step>C</step>
          <octave>3</octave>
          </pitch>
        <duration>23</duration>
        <tie type="start" />
        <voice>5</voice>
        <type size="cue">quarter</type>
        <time-modification>
          <actual-notes>7</actual-notes>
          <normal-notes>1</normal-notes>
          </time-modification>
        <stem>up</stem>
        <staff>2</staff>
        <notations>
          <tied type="start" />
          </notations>
        </note>
      <note default-x="154.28" default-y="-336.07">
        <pitch>
          <step>G</step>
          <octave>2</octave>
          </pitch>
        <duration>23</duration>
        <tie type="start" />
        <voice>5</voice>
        <type size="cue">quarter</type>
        <time-modification>
          <actual-notes>7</actual-notes>
          <normal-notes>1</normal-notes>
          </time-modification>
        <stem>up</stem>
        <staff>2</staff>
        <notations>
          <tied type="start" />
          <tuplet type="stop" />
          <slur type="stop" number="2" />
          </notations>
        </note>
      <backup>
        <duration>240</duration>
        </backup>
      <note default-x="14.00" default-y="-321.07">
        <pitch>
          <step>C</step>
          <octave>3</octave>
          </pitch>
        <duration>240</duration>
        <voice>6</voice>
        <type>quarter</type>
        <dot />
        <stem>down</stem>
        <staff>2</staff>
        <notations>
          <slur type="stop" number="1" />
          </notations>
        </note>
      </measure>
    <measure number="86" width="70.67">
      <note default-x="15.80" default-y="-197.57">
        <pitch>
          <step>G</step>
          <octave>4</octave>
          </pitch>
        <duration>160</duration>
        <tie type="stop" />
        <voice>1</voice>
        <type>quarter</type>
        <stem>up</stem>
        <staff>1</staff>
        <notations>
          <tied type="stop" />
          <fermata type="upright" relative-y="10.00" />
          </notations>
        </note>
      <note>
        <rest />
        <duration>80</duration>
        <voice>1</voice>
        <type>eighth</type>
        <staff>1</staff>
        </note>
      <backup>
        <duration>240</duration>
        </backup>
      <note default-x="15.80" default-y="-207.57">
        <pitch>
          <step>E</step>
          <octave>4</octave>
          </pitch>
        <duration>160</duration>
        <tie type="stop" />
        <voice>2</voice>
        <type>quarter</type>
        <stem>down</stem>
        <staff>1</staff>
        <notations>
          <tied type="stop" />
          </notations>
        </note>
      <note print-object="no">
        <rest />
        <duration>80</duration>
        <voice>2</voice>
        <type>eighth</type>
        <staff>1</staff>
        </note>
      <backup>
        <duration>240</duration>
        </backup>
      <note default-x="15.80" default-y="-356.07">
        <pitch>
          <step>C</step>
          <octave>2</octave>
          </pitch>
        <duration>160</duration>
        <voice>5</voice>
        <type>quarter</type>
        <stem>up</stem>
        <staff>2</staff>
        <notations>
          <fermata type="upright" default-y="2.15" relative-y="10.00" />
          </notations>
        </note>
      <note default-x="15.80" default-y="-336.07">
        <chord />
        <pitch>
          <step>G</step>
          <octave>2</octave>
          </pitch>
        <duration>160</duration>
        <tie type="stop" />
        <voice>5</voice>
        <type>quarter</type>
        <stem>up</stem>
        <staff>2</staff>
        <notations>
          <tied type="stop" />
          </notations>
        </note>
      <note default-x="15.80" default-y="-321.07">
        <chord />
        <pitch>
          <step>C</step>
          <octave>3</octave>
          </pitch>
        <duration>160</duration>
        <tie type="stop" />
        <voice>5</voice>
        <type>quarter</type>
        <stem>up</stem>
        <staff>2</staff>
        <notations>
          <tied type="stop" />
          </notations>
        </note>
      <direction placement="below">
        <direction-type>
          <pedal type="stop" line="yes" relative-x="23.00" />
          </direction-type>
        <staff>2</staff>
        </direction>
      <note>
        <rest />
        <duration>80</duration>
        <voice>5</voice>
        <type>eighth</type>
        <staff>2</staff>
        </note>
      <barline location="right">
        <bar-style>light-heavy</bar-style>
        </barline>
      </measure>
    </part></score-partwise>
