<?xml version='1.0' encoding='utf-8'?>
<score-partwise version="3.1"><part-list><score-part id="P2"><part-name>Piano</part-name></score-part></part-list><part id="P2"><measure number="65" width="222.88">
      <print>
        <staff-layout number="1">
          <staff-distance>92.04</staff-distance>
          </staff-layout>
        <staff-layout number="2">
          <staff-distance>98.75</staff-distance>
          </staff-layout>
        </print>
      <attributes><divisions>160</divisions>
        <key>
          <fifths>-3</fifths>
          </key>
        <staves>2</staves>
        <clef number="1">
          <sign>G</sign>
          <line>2</line>
          </clef>
        <clef number="2">
          <sign>F</sign>
          <line>4</line>
          </clef>
        </attributes><note default-x="102.58" default-y="-192.04">
        <pitch>
          <step>A</step>
          <alter>-1</alter>
          <octave>3</octave>
          </pitch>
        <duration>160</duration>
        <voice>1</voice>
        <type>quarter</type>
        <stem>up</stem>
        <staff>1</staff>
        <notations>
          <articulations>
            <staccato />
            </articulations>
          </notations>
        </note>
      <note default-x="102.58" default-y="-182.04">
        <chord />
        <pitch>
          <step>C</step>
          <octave>4</octave>
          </pitch>
        <duration>160</duration>
        <voice>1</voice>
        <type>quarter</type>
        <stem>up</stem>
        <staff>1</staff>
        </note>
      <note default-x="114.44" default-y="-177.04">
        <chord />
        <pitch>
          <step>D</step>
          <octave>4</octave>
          </pitch>
        <duration>160</duration>
        <voice>1</voice>
        <type>quarter</type>
        <stem>up</stem>
        <staff>1</staff>
        </note>
      <note>
        <rest />
        <duration>80</duration>
        <voice>1</voice>
        <type>eighth</type>
        <staff>1</staff>
        </note>
      <backup>
        <duration>240</duration>
        </backup>
      <note default-x="102.58" default-y="-350.79">
        <pitch>
          <step>F</step>
          <octave>1</octave>
          </pitch>
        <duration>160</duration>
        <voice>5</voice>
        <type>quarter</type>
        <stem>up</stem>
        <staff>2</staff>
        <notations>
          <articulations>
            <staccato />
            </articulations>
          </notations>
        </note>
      <note default-x="102.58" default-y="-315.79">
        <chord />
        <pitch>
          <step>F</step>
          <octave>2</octave>
          </pitch>
        <duration>160</duration>
        <voice>5</voice>
        <type>quarter</type>
        <stem>up</stem>
        <staff>2</staff>
        </note>
      <note>
        <rest />
        <duration>80</duration>
        <voice>5</voice>
        <type>eighth</type>
        <staff>2</staff>
        </note>
      </measure>
    <measure number="66" width="149.25">
      <direction placement="above">
        <direction-type>
          <words relative-y="10.00" font-style="italic" font-size="12">ritard.</words>
          </direction-type>
        <staff>1</staff>
        </direction>
      <note default-x="17.80" default-y="-187.04">
        <pitch>
          <step>B</step>
          <octave>3</octave>
          </pitch>
        <duration>160</duration>
        <voice>1</voice>
        <type>quarter</type>
        <accidental>natural</accidental>
        <stem>up</stem>
        <staff>1</staff>
        <notations>
          <articulations>
            <staccato />
            </articulations>
          </notations>
        </note>
      <note default-x="17.80" default-y="-177.04">
        <chord />
        <pitch>
          <step>D</step>
          <octave>4</octave>
          </pitch>
        <duration>160</duration>
        <voice>1</voice>
        <type>quarter</type>
        <stem>up</stem>
        <staff>1</staff>
        </note>
      <note>
        <rest />
        <duration>80</duration>
        <voice>1</voice>
        <type>eighth</type>
        <staff>1</staff>
        </note>
      <backup>
        <duration>240</duration>
        </backup>
      <note default-x="17.80" default-y="-280.79">
        <pitch>
          <step>F</step>
          <octave>3</octave>
          </pitch>
        <duration>160</duration>
        <voice>5</voice>
        <type>quarter</type>
        <stem>up</stem>
        <staff>2</staff>
        </note>
      <note default-x="29.67" default-y="-275.79">
        <chord />
        <pitch>
          <step>G</step>
          <octave>3</octave>
          </pitch>
        <duration>160</duration>
        <voice>5</voice>
        <type>quarter</type>
        <stem>up</stem>
        <staff>2</staff>
        </note>
      <note>
        <rest />
        <duration>80</duration>
        <voice>5</voice>
        <type>eighth</type>
        <staff>2</staff>
        </note>
      <backup>
        <duration>240</duration>
        </backup>
      <note default-x="17.80" default-y="-345.79">
        <pitch>
          <step>G</step>
          <octave>1</octave>
          </pitch>
        <duration>160</duration>
        <voice>6</voice>
        <type>quarter</type>
        <stem>down</stem>
        <staff>2</staff>
        <notations>
          <articulations>
            <staccato />
            </articulations>
          </notations>
        </note>
      <note default-x="17.80" default-y="-310.79">
        <chord />
        <pitch>
          <step>G</step>
          <octave>2</octave>
          </pitch>
        <duration>160</duration>
        <voice>6</voice>
        <type>quarter</type>
        <stem>down</stem>
        <staff>2</staff>
        </note>
      <note print-object="no">
        <rest />
        <duration>80</duration>
        <voice>6</voice>
        <type>eighth</type>
        <staff>2</staff>
        </note>
      </measure>
    <measure number="67" width="106.67">
      <note default-x="32.35" default-y="-182.04">
        <pitch>
          <step>C</step>
          <octave>4</octave>
          </pitch>
        <duration>160</duration>
        <voice>1</voice>
        <type>quarter</type>
        <stem>up</stem>
        <staff>1</staff>
        <notations>
          <articulations>
            <staccato />
            </articulations>
          </notations>
        </note>
      <note>
        <rest />
        <duration>80</duration>
        <voice>1</voice>
        <type>eighth</type>
        <staff>1</staff>
        </note>
      <backup>
        <duration>240</duration>
        </backup>
      <note default-x="32.35" default-y="-285.79">
        <pitch>
          <step>E</step>
          <alter>-1</alter>
          <octave>3</octave>
          </pitch>
        <duration>160</duration>
        <voice>5</voice>
        <type>quarter</type>
        <stem>up</stem>
        <staff>2</staff>
        </note>
      <note default-x="32.35" default-y="-275.79">
        <chord />
        <pitch>
          <step>G</step>
          <octave>3</octave>
          </pitch>
        <duration>160</duration>
        <voice>5</voice>
        <type>quarter</type>
        <stem>up</stem>
        <staff>2</staff>
        </note>
      <note>
        <rest />
        <duration>80</duration>
        <voice>5</voice>
        <type>eighth</type>
        <staff>2</staff>
        </note>
      <backup>
        <duration>240</duration>
        </backup>
      <note default-x="32.35" default-y="-330.79">
        <pitch>
          <step>C</step>
          <octave>2</octave>
          </pitch>
        <duration>160</duration>
        <voice>6</voice>
        <type>quarter</type>
        <stem>down</stem>
        <staff>2</staff>
        <notations>
          <articulations>
            <staccato />
            </articulations>
          </notations>
        </note>
      <note default-x="32.35" default-y="-295.79">
        <chord />
        <pitch>
          <step>C</step>
          <octave>3</octave>
          </pitch>
        <duration>160</duration>
        <voice>6</voice>
        <type>quarter</type>
        <stem>down</stem>
        <staff>2</staff>
        </note>
      <note print-object="no">
        <rest />
        <duration>80</duration>
        <voice>6</voice>
        <type>eighth</type>
        <staff>2</staff>
        </note>
      </measure>
    <measure number="68" width="110.71">
      <direction placement="below">
        <direction-type>
          <dynamics default-x="5.06" default-y="-40.00" relative-x="5.06" relative-y="-45.00">
            <sf />
            </dynamics>
          </direction-type>
        <staff>1</staff>
        <sound dynamics="124.44" />
        </direction>
      <note>
        <rest />
        <duration>80</duration>
        <voice>1</voice>
        <type>eighth</type>
        <staff>1</staff>
        </note>
      <note>
        <rest />
        <duration>80</duration>
        <voice>1</voice>
        <type>eighth</type>
        <staff>1</staff>
        </note>
      <note default-x="76.34" default-y="-147.04">
        <pitch>
          <step>C</step>
          <octave>5</octave>
          </pitch>
        <duration>80</duration>
        <tie type="start" />
        <voice>1</voice>
        <type>eighth</type>
        <stem>up</stem>
        <staff>1</staff>
        <notations>
          <tied type="start" />
          </notations>
        </note>
      <backup>
        <duration>240</duration>
        </backup>
      <note default-x="15.80" default-y="-162.04">
        <pitch>
          <step>G</step>
          <octave>4</octave>
          </pitch>
        <duration>240</duration>
        <voice>2</voice>
        <type>quarter</type>
        <dot />
        <stem>down</stem>
        <staff>1</staff>
        <notations>
          <slur type="start" placement="below" number="1" />
          </notations>
        </note>
      <backup>
        <duration>240</duration>
        </backup>
      <note default-x="15.80" default-y="-285.79">
        <pitch>
          <step>E</step>
          <alter>-1</alter>
          <octave>3</octave>
          </pitch>
        <duration>240</duration>
        <voice>5</voice>
        <type>quarter</type>
        <dot />
        <stem>down</stem>
        <staff>2</staff>
        <notations>
          <slur type="start" placement="below" number="2" />
          </notations>
        </note>
      <note default-x="15.80" default-y="-260.79">
        <chord />
        <pitch>
          <step>C</step>
          <octave>4</octave>
          </pitch>
        <duration>240</duration>
        <tie type="start" />
        <voice>5</voice>
        <type>quarter</type>
        <dot />
        <stem>down</stem>
        <staff>2</staff>
        <notations>
          <tied type="start" />
          </notations>
        </note>
      </measure>
    <measure number="69" width="103.08">
      <note default-x="15.80" default-y="-147.04">
        <pitch>
          <step>C</step>
          <octave>5</octave>
          </pitch>
        <duration>160</duration>
        <tie type="stop" />
        <voice>1</voice>
        <type>quarter</type>
        <stem>up</stem>
        <staff>1</staff>
        <notations>
          <tied type="stop" />
          </notations>
        </note>
      <note default-x="68.52" default-y="-147.04">
        <pitch>
          <step>C</step>
          <octave>5</octave>
          </pitch>
        <duration>80</duration>
        <tie type="start" />
        <voice>1</voice>
        <type>eighth</type>
        <stem>up</stem>
        <staff>1</staff>
        <notations>
          <tied type="start" />
          </notations>
        </note>
      <backup>
        <duration>240</duration>
        </backup>
      <note default-x="15.80" default-y="-157.04">
        <pitch>
          <step>A</step>
          <alter>-1</alter>
          <octave>4</octave>
          </pitch>
        <duration>240</duration>
        <voice>2</voice>
        <type>quarter</type>
        <dot />
        <stem>down</stem>
        <staff>1</staff>
        </note>
      <backup>
        <duration>240</duration>
        </backup>
      <note default-x="15.80" default-y="-280.79">
        <pitch>
          <step>F</step>
          <octave>3</octave>
          </pitch>
        <duration>240</duration>
        <voice>5</voice>
        <type>quarter</type>
        <dot />
        <stem>down</stem>
        <staff>2</staff>
        </note>
      <note default-x="15.80" default-y="-260.79">
        <chord />
        <pitch>
          <step>C</step>
          <octave>4</octave>
          </pitch>
        <duration>240</duration>
        <tie type="stop" />
        <tie type="start" />
        <voice>5</voice>
        <type>quarter</type>
        <dot />
        <stem>down</stem>
        <staff>2</staff>
        <notations>
          <tied type="stop" />
          <tied type="start" />
          </notations>
        </note>
      </measure>
    <measure number="70" width="109.13">
      <note default-x="15.80" default-y="-147.04">
        <pitch>
          <step>C</step>
          <octave>5</octave>
          </pitch>
        <duration>80</duration>
        <tie type="stop" />
        <voice>1</voice>
        <type>eighth</type>
        <stem>up</stem>
        <staff>1</staff>
        <beam number="1">begin</beam>
        <notations>
          <tied type="stop" />
          </notations>
        </note>
      <note default-x="46.38" default-y="-142.04">
        <pitch>
          <step>D</step>
          <octave>5</octave>
          </pitch>
        <duration>80</duration>
        <voice>1</voice>
        <type>eighth</type>
        <stem>up</stem>
        <staff>1</staff>
        <beam number="1">continue</beam>
        </note>
      <note default-x="76.96" default-y="-147.04">
        <pitch>
          <step>C</step>
          <octave>5</octave>
          </pitch>
        <duration>80</duration>
        <voice>1</voice>
        <type>eighth</type>
        <stem>up</stem>
        <staff>1</staff>
        <beam number="1">end</beam>
        </note>
      <backup>
        <duration>240</duration>
        </backup>
      <note default-x="15.80" default-y="-162.04">
        <pitch>
          <step>G</step>
          <octave>4</octave>
          </pitch>
        <duration>240</duration>
        <voice>2</voice>
        <type>quarter</type>
        <dot />
        <stem>down</stem>
        <staff>1</staff>
        </note>
      <backup>
        <duration>240</duration>
        </backup>
      <note default-x="15.80" default-y="-285.79">
        <pitch>
          <step>E</step>
          <alter>-1</alter>
          <octave>3</octave>
          </pitch>
        <duration>240</duration>
        <voice>5</voice>
        <type>quarter</type>
        <dot />
        <stem>down</stem>
        <staff>2</staff>
        </note>
      <note default-x="15.80" default-y="-260.79">
        <chord />
        <pitch>
          <step>C</step>
          <octave>4</octave>
          </pitch>
        <duration>240</duration>
        <tie type="stop" />
        <tie type="start" />
        <voice>5</voice>
        <type>quarter</type>
        <dot />
        <stem>down</stem>
        <staff>2</staff>
        <notations>
          <tied type="stop" />
          <tied type="start" />
          </notations>
        </note>
      </measure>
    <measure number="71" width="103.08">
      <note default-x="15.80" default-y="-132.04">
        <pitch>
          <step>F</step>
          <octave>5</octave>
          </pitch>
        <duration>160</duration>
        <voice>1</voice>
        <type>quarter</type>
        <stem>up</stem>
        <staff>1</staff>
        <notations>
          <slur type="start" placement="above" number="3" />
          <articulations>
            <accent />
            </articulations>
          </notations>
        </note>
      <note default-x="68.52" default-y="-147.04">
        <pitch>
          <step>C</step>
          <octave>5</octave>
          </pitch>
        <duration>80</duration>
        <tie type="start" />
        <voice>1</voice>
        <type>eighth</type>
        <stem>up</stem>
        <staff>1</staff>
        <notations>
          <tied type="start" />
          <slur type="stop" number="3" />
          </notations>
        </note>
      <backup>
        <duration>240</duration>
        </backup>
      <note default-x="15.80" default-y="-167.04">
        <pitch>
          <step>F</step>
          <octave>4</octave>
          </pitch>
        <duration>240</duration>
        <voice>2</voice>
        <type>quarter</type>
        <dot />
        <stem>down</stem>
        <staff>1</staff>
        <notations>
          <slur type="stop" number="1" />
          </notations>
        </note>
      <backup>
        <duration>240</duration>
        </backup>
      <note default-x="15.80" default-y="-290.79">
        <pitch>
          <step>D</step>
          <octave>3</octave>
          </pitch>
        <duration>240</duration>
        <voice>5</voice>
        <type>quarter</type>
        <dot />
        <stem>down</stem>
        <staff>2</staff>
        <notations>
          <slur type="stop" number="2" />
          </notations>
        </note>
      <note default-x="15.80" default-y="-260.79">
        <chord />
        <pitch>
          <step>C</step>
          <octave>4</octave>
          </pitch>
        <duration>240</duration>
        <tie type="stop" />
        <voice>5</voice>
        <type>quarter</type>
        <dot />
        <stem>down</stem>
        <staff>2</staff>
        <notations>
          <tied type="stop" />
          </notations>
        </note>
      </measure>
    <measure number="72" width="103.08">
      <direction placement="below">
        <direction-type>
          <dynamics default-x="6.58" default-y="-40.00" relative-x="6.58" relative-y="-45.00">
            <sf />
            </dynamics>
          </direction-type>
        <staff>1</staff>
        <sound dynamics="124.44" />
        </direction>
      <note default-x="15.80" default-y="-147.04">
        <pitch>
          <step>C</step>
          <octave>5</octave>
          </pitch>
        <duration>160</duration>
        <tie type="stop" />
        <voice>1</voice>
        <type>quarter</type>
        <stem>up</stem>
        <staff>1</staff>
        <notations>
          <tied type="stop" />
          </notations>
        </note>
      <note default-x="68.52" default-y="-147.04">
        <pitch>
          <step>C</step>
          <octave>5</octave>
          </pitch>
        <duration>80</duration>
        <tie type="start" />
        <voice>1</voice>
        <type>eighth</type>
        <stem>up</stem>
        <staff>1</staff>
        <notations>
          <tied type="start" />
          </notations>
        </note>
      <backup>
        <duration>240</duration>
        </backup>
      <note default-x="15.80" default-y="-162.04">
        <pitch>
          <step>G</step>
          <octave>4</octave>
          </pitch>
        <duration>240</duration>
        <voice>2</voice>
        <type>quarter</type>
        <dot />
        <stem>down</stem>
        <staff>1</staff>
        <notations>
          <slur type="start" placement="below" number="1" />
          </notations>
        </note>
      <backup>
        <duration>240</duration>
        </backup>
      <note default-x="15.80" default-y="-285.79">
        <pitch>
          <step>E</step>
          <alter>-1</alter>
          <octave>3</octave>
          </pitch>
        <duration>240</duration>
        <voice>5</voice>
        <type>quarter</type>
        <dot />
        <stem>down</stem>
        <staff>2</staff>
        <notations>
          <slur type="start" placement="below" number="2" />
          </notations>
        </note>
      <note default-x="15.80" default-y="-260.79">
        <chord />
        <pitch>
          <step>C</step>
          <octave>4</octave>
          </pitch>
        <duration>240</duration>
        <tie type="start" />
        <voice>5</voice>
        <type>quarter</type>
        <dot />
        <stem>down</stem>
        <staff>2</staff>
        <notations>
          <tied type="start" />
          </notations>
        </note>
      </measure>
    <measure number="73" width="103.08">
      <note default-x="15.80" default-y="-147.04">
        <pitch>
          <step>C</step>
          <octave>5</octave>
          </pitch>
        <duration>160</duration>
        <tie type="stop" />
        <voice>1</voice>
        <type>quarter</type>
        <stem>up</stem>
        <staff>1</staff>
        <notations>
          <tied type="stop" />
          </notations>
        </note>
      <note default-x="68.52" default-y="-147.04">
        <pitch>
          <step>C</step>
          <octave>5</octave>
          </pitch>
        <duration>80</duration>
        <tie type="start" />
        <voice>1</voice>
        <type>eighth</type>
        <stem>up</stem>
        <staff>1</staff>
        <notations>
          <tied type="start" />
          </notations>
        </note>
      <backup>
        <duration>240</duration>
        </backup>
      <note default-x="15.80" default-y="-157.04">
        <pitch>
          <step>A</step>
          <alter>-1</alter>
          <octave>4</octave>
          </pitch>
        <duration>240</duration>
        <voice>2</voice>
        <type>quarter</type>
        <dot />
        <stem>down</stem>
        <staff>1</staff>
        </note>
      <backup>
        <duration>240</duration>
        </backup>
      <note default-x="15.80" default-y="-280.79">
        <pitch>
          <step>F</step>
          <octave>3</octave>
          </pitch>
        <duration>240</duration>
        <voice>5</voice>
        <type>quarter</type>
        <dot />
        <stem>down</stem>
        <staff>2</staff>
        </note>
      <note default-x="15.80" default-y="-260.79">
        <chord />
        <pitch>
          <step>C</step>
          <octave>4</octave>
          </pitch>
        <duration>240</duration>
        <tie type="stop" />
        <tie type="start" />
        <voice>5</voice>
        <type>quarter</type>
        <dot />
        <stem>down</stem>
        <staff>2</staff>
        <notations>
          <tied type="stop" />
          <tied type="start" />
          </notations>
        </note>
      </measure>
    <measure number="74" width="109.13">
      <note default-x="15.80" default-y="-147.04">
        <pitch>
          <step>C</step>
          <octave>5</octave>
          </pitch>
        <duration>80</duration>
        <tie type="stop" />
        <voice>1</voice>
        <type>eighth</type>
        <stem>up</stem>
        <staff>1</staff>
        <beam number="1">begin</beam>
        <notations>
          <tied type="stop" />
          </notations>
        </note>
      <note default-x="46.38" default-y="-142.04">
        <pitch>
          <step>D</step>
          <octave>5</octave>
          </pitch>
        <duration>80</duration>
        <voice>1</voice>
        <type>eighth</type>
        <stem>up</stem>
        <staff>1</staff>
        <beam number="1">continue</beam>
        </note>
      <note default-x="76.96" default-y="-147.04">
        <pitch>
          <step>C</step>
          <octave>5</octave>
          </pitch>
        <duration>80</duration>
        <voice>1</voice>
        <type>eighth</type>
        <stem>up</stem>
        <staff>1</staff>
        <beam number="1">end</beam>
        </note>
      <backup>
        <duration>240</duration>
        </backup>
      <note default-x="15.80" default-y="-162.04">
        <pitch>
          <step>G</step>
          <octave>4</octave>
          </pitch>
        <duration>240</duration>
        <voice>2</voice>
        <type>quarter</type>
        <dot />
        <stem>down</stem>
        <staff>1</staff>
        </note>
      <backup>
        <duration>240</duration>
        </backup>
      <note default-x="15.80" default-y="-285.79">
        <pitch>
          <step>E</step>
          <alter>-1</alter>
          <octave>3</octave>
          </pitch>
        <duration>240</duration>
        <voice>5</voice>
        <type>quarter</type>
        <dot />
        <stem>down</stem>
        <staff>2</staff>
        </note>
      <note default-x="15.80" default-y="-260.79">
        <chord />
        <pitch>
          <step>C</step>
          <octave>4</octave>
          </pitch>
        <duration>240</duration>
        <tie type="stop" />
        <tie type="start" />
        <voice>5</voice>
        <type>quarter</type>
        <dot />
        <stem>down</stem>
        <staff>2</staff>
        <notations>
          <tied type="stop" />
          <tied type="start" />
          </notations>
        </note>
      </measure>
    <measure number="75" width="103.08">
      <note default-x="15.80" default-y="-122.04">
        <pitch>
          <step>A</step>
          <alter>-1</alter>
          <octave>5</octave>
          </pitch>
        <duration>160</duration>
        <voice>1</voice>
        <type>quarter</type>
        <stem>up</stem>
        <staff>1</staff>
        <notations>
          <slur type="start" placement="above" number="3" />
          <articulations>
            <accent />
            </articulations>
          </notations>
        </note>
      <note default-x="68.52" default-y="-147.04">
        <pitch>
          <step>C</step>
          <octave>5</octave>
          </pitch>
        <duration>80</duration>
        <tie type="start" />
        <voice>1</voice>
        <type>eighth</type>
        <stem>up</stem>
        <staff>1</staff>
        <notations>
          <tied type="start" />
          <slur type="stop" number="3" />
          </notations>
        </note>
      <backup>
        <duration>240</duration>
        </backup>
      <note default-x="15.80" default-y="-167.04">
        <pitch>
          <step>F</step>
          <octave>4</octave>
          </pitch>
        <duration>240</duration>
        <voice>2</voice>
        <type>quarter</type>
        <dot />
        <stem>down</stem>
        <staff>1</staff>
        <notations>
          <slur type="stop" number="1" />
          </notations>
        </note>
      <backup>
        <duration>240</duration>
        </backup>
      <note default-x="15.80" default-y="-290.79">
        <pitch>
          <step>D</step>
          <octave>3</octave>
          </pitch>
        <duration>240</duration>
        <voice>5</voice>
        <type>quarter</type>
        <dot />
        <stem>down</stem>
        <staff>2</staff>
        <notations>
          <slur type="stop" number="2" />
          </notations>
        </note>
      <note default-x="15.80" default-y="-260.79">
        <chord />
        <pitch>
          <step>C</step>
          <octave>4</octave>
          </pitch>
        <duration>240</duration>
        <tie type="stop" />
        <voice>5</voice>
        <type>quarter</type>
        <dot />
        <stem>down</stem>
        <staff>2</staff>
        <notations>
          <tied type="stop" />
          </notations>
        </note>
      </measure>
    </part></score-partwise>
