<?xml version='1.0' encoding='utf-8'?>
<score-partwise version="3.1"><part-list><score-part id="P2"><part-name>Piano</part-name></score-part></part-list><part id="P2"><measure number="29" width="176.45">
      <print>
        <staff-layout number="1">
          <staff-distance>91.58</staff-distance>
          </staff-layout>
        <staff-layout number="2">
          <staff-distance>65.00</staff-distance>
          </staff-layout>
        </print>
      <attributes><divisions>4</divisions>
        <key>
          <fifths>2</fifths>
          </key>
        <staves>2</staves>
        <clef number="1">
          <sign>F</sign>
          <line>4</line>
          </clef>
        <clef number="2">
          <sign>F</sign>
          <line>4</line>
          </clef>
        </attributes><note default-x="106.57" default-y="-141.58">
        <pitch>
          <step>F</step>
          <alter>1</alter>
          <octave>3</octave>
          </pitch>
        <duration>16</duration>
        <voice>1</voice>
        <type>whole</type>
        <staff>1</staff>
        </note>
      <note default-x="106.57" default-y="-131.58">
        <chord />
        <pitch>
          <step>A</step>
          <alter>1</alter>
          <octave>3</octave>
          </pitch>
        <duration>16</duration>
        <voice>1</voice>
        <type>whole</type>
        <accidental>sharp</accidental>
        <staff>1</staff>
        </note>
      <note default-x="106.57" default-y="-121.58">
        <chord />
        <pitch>
          <step>C</step>
          <alter>1</alter>
          <octave>4</octave>
          </pitch>
        <duration>16</duration>
        <voice>1</voice>
        <type>whole</type>
        <staff>1</staff>
        </note>
      <backup>
        <duration>16</duration>
        </backup>
      <direction placement="above">
        <direction-type>
          <dynamics default-x="6.50" relative-y="23.81">
            <p />
            </dynamics>
          </direction-type>
        <staff>2</staff>
        <sound dynamics="54.44" />
        </direction>
      <note default-x="106.57" default-y="-316.58">
        <pitch>
          <step>F</step>
          <alter>1</alter>
          <octave>1</octave>
          </pitch>
        <duration>16</duration>
        <voice>5</voice>
        <type>whole</type>
        <staff>2</staff>
        </note>
      <note default-x="106.57" default-y="-281.58">
        <chord />
        <pitch>
          <step>F</step>
          <alter>1</alter>
          <octave>2</octave>
          </pitch>
        <duration>16</duration>
        <voice>5</voice>
        <type>whole</type>
        <staff>2</staff>
        </note>
      </measure>
    <measure number="30" width="100.52">
      <note default-x="21.62" default-y="-146.58">
        <pitch>
          <step>E</step>
          <octave>3</octave>
          </pitch>
        <duration>16</duration>
        <voice>1</voice>
        <type>whole</type>
        <staff>1</staff>
        </note>
      <note default-x="21.62" default-y="-131.58">
        <chord />
        <pitch>
          <step>A</step>
          <alter>1</alter>
          <octave>3</octave>
          </pitch>
        <duration>16</duration>
        <voice>1</voice>
        <type>whole</type>
        <accidental>sharp</accidental>
        <staff>1</staff>
        </note>
      <note default-x="21.62" default-y="-121.58">
        <chord />
        <pitch>
          <step>C</step>
          <alter>1</alter>
          <octave>4</octave>
          </pitch>
        <duration>16</duration>
        <voice>1</voice>
        <type>whole</type>
        <staff>1</staff>
        </note>
      <backup>
        <duration>16</duration>
        </backup>
      <direction placement="above">
        <direction-type>
          <words font-family="Edwin" font-size="10" font-style="italic" default-y="30.00">cresc.</words>
          </direction-type>
        <direction-type>
          <dashes type="start" number="1" default-y="30.00" />
          </direction-type>
        <staff>2</staff>
        </direction>
      <note default-x="21.62" default-y="-311.58">
        <pitch>
          <step>G</step>
          <octave>1</octave>
          </pitch>
        <duration>16</duration>
        <voice>5</voice>
        <type>whole</type>
        <staff>2</staff>
        </note>
      <note default-x="21.62" default-y="-276.58">
        <chord />
        <pitch>
          <step>G</step>
          <octave>2</octave>
          </pitch>
        <duration>16</duration>
        <voice>5</voice>
        <type>whole</type>
        <staff>2</staff>
        </note>
      </measure>
    <measure number="31" width="205.05">
      <note default-x="20.66" default-y="-146.58">
        <pitch>
          <step>E</step>
          <octave>3</octave>
          </pitch>
        <duration>8</duration>
        <voice>1</voice>
        <type>half</type>
        <stem>down</stem>
        <staff>1</staff>
        </note>
      <note default-x="20.66" default-y="-136.58">
        <chord />
        <pitch>
          <step>G</step>
          <alter>1</alter>
          <octave>3</octave>
          </pitch>
        <duration>8</duration>
        <voice>1</voice>
        <type>half</type>
        <accidental>sharp</accidental>
        <stem>down</stem>
        <staff>1</staff>
        </note>
      <note default-x="20.66" default-y="-121.58">
        <chord />
        <pitch>
          <step>C</step>
          <alter>1</alter>
          <octave>4</octave>
          </pitch>
        <duration>8</duration>
        <voice>1</voice>
        <type>half</type>
        <stem>down</stem>
        <staff>1</staff>
        </note>
      <note default-x="114.64" default-y="-146.58">
        <pitch>
          <step>E</step>
          <octave>3</octave>
          </pitch>
        <duration>8</duration>
        <voice>1</voice>
        <type>half</type>
        <stem>down</stem>
        <staff>1</staff>
        </note>
      <note default-x="114.64" default-y="-136.58">
        <chord />
        <pitch>
          <step>G</step>
          <octave>3</octave>
          </pitch>
        <duration>8</duration>
        <voice>1</voice>
        <type>half</type>
        <accidental>natural</accidental>
        <stem>down</stem>
        <staff>1</staff>
        </note>
      <note default-x="114.64" default-y="-121.58">
        <chord />
        <pitch>
          <step>C</step>
          <alter>1</alter>
          <octave>4</octave>
          </pitch>
        <duration>8</duration>
        <voice>1</voice>
        <type>half</type>
        <stem>down</stem>
        <staff>1</staff>
        </note>
      <backup>
        <duration>16</duration>
        </backup>
      <note default-x="20.66" default-y="-311.58">
        <pitch>
          <step>G</step>
          <alter>1</alter>
          <octave>1</octave>
          </pitch>
        <duration>8</duration>
        <voice>5</voice>
        <type>half</type>
        <accidental>sharp</accidental>
        <stem>up</stem>
        <staff>2</staff>
        </note>
      <note default-x="20.66" default-y="-276.58">
        <chord />
        <pitch>
          <step>G</step>
          <alter>1</alter>
          <octave>2</octave>
          </pitch>
        <duration>8</duration>
        <voice>5</voice>
        <type>half</type>
        <accidental>sharp</accidental>
        <stem>up</stem>
        <staff>2</staff>
        </note>
      <note default-x="114.64" default-y="-306.58">
        <pitch>
          <step>A</step>
          <octave>1</octave>
          </pitch>
        <duration>8</duration>
        <voice>5</voice>
        <type>half</type>
        <stem>up</stem>
        <staff>2</staff>
        </note>
      <note default-x="114.64" default-y="-271.58">
        <chord />
        <pitch>
          <step>A</step>
          <octave>2</octave>
          </pitch>
        <duration>8</duration>
        <voice>5</voice>
        <type>half</type>
        <stem>up</stem>
        <staff>2</staff>
        </note>
      <direction placement="above">
        <direction-type>
          <dashes type="stop" number="1" />
          </direction-type>
        <staff>2</staff>
        </direction>
      </measure>
    <measure number="32" width="161.26">
      <note default-x="15.73" default-y="-146.58">
        <pitch>
          <step>E</step>
          <octave>3</octave>
          </pitch>
        <duration>16</duration>
        <tie type="start" />
        <voice>1</voice>
        <type>whole</type>
        <staff>1</staff>
        <notations>
          <tied type="start" />
          </notations>
        </note>
      <note default-x="29.55" default-y="-141.58">
        <chord />
        <pitch>
          <step>F</step>
          <alter>1</alter>
          <octave>3</octave>
          </pitch>
        <duration>16</duration>
        <tie type="start" />
        <voice>1</voice>
        <type>whole</type>
        <staff>1</staff>
        <notations>
          <tied type="start" />
          </notations>
        </note>
      <note default-x="29.55" default-y="-121.58">
        <chord />
        <pitch>
          <step>C</step>
          <alter>1</alter>
          <octave>4</octave>
          </pitch>
        <duration>16</duration>
        <tie type="start" />
        <voice>1</voice>
        <type>whole</type>
        <staff>1</staff>
        <notations>
          <tied type="start" />
          </notations>
        </note>
      <backup>
        <duration>16</duration>
        </backup>
      <direction placement="above">
        <direction-type>
          <dynamics default-x="6.50" default-y="6.19" relative-y="23.81">
            <fp />
            </dynamics>
          </direction-type>
        <staff>2</staff>
        <sound dynamics="111.11" />
        </direction>
      <note default-x="29.55" default-y="-306.58">
        <pitch>
          <step>A</step>
          <alter>1</alter>
          <octave>1</octave>
          </pitch>
        <duration>16</duration>
        <tie type="start" />
        <voice>5</voice>
        <type>whole</type>
        <accidental>sharp</accidental>
        <staff>2</staff>
        <notations>
          <tied type="start" />
          </notations>
        </note>
      <note default-x="29.55" default-y="-271.58">
        <chord />
        <pitch>
          <step>A</step>
          <alter>1</alter>
          <octave>2</octave>
          </pitch>
        <duration>16</duration>
        <tie type="start" />
        <voice>5</voice>
        <type>whole</type>
        <accidental>sharp</accidental>
        <staff>2</staff>
        <notations>
          <tied type="start" />
          </notations>
        </note>
      </measure>
    <measure number="33" width="136.48">
      <note default-x="10.96" default-y="-146.58">
        <pitch>
          <step>E</step>
          <octave>3</octave>
          </pitch>
        <duration>16</duration>
        <tie type="stop" />
        <voice>1</voice>
        <type>whole</type>
        <staff>1</staff>
        <notations>
          <tied type="stop" />
          </notations>
        </note>
      <note default-x="24.78" default-y="-141.58">
        <chord />
        <pitch>
          <step>F</step>
          <alter>1</alter>
          <octave>3</octave>
          </pitch>
        <duration>16</duration>
        <tie type="stop" />
        <voice>1</voice>
        <type>whole</type>
        <staff>1</staff>
        <notations>
          <tied type="stop" />
          </notations>
        </note>
      <note default-x="24.78" default-y="-121.58">
        <chord />
        <pitch>
          <step>C</step>
          <alter>1</alter>
          <octave>4</octave>
          </pitch>
        <duration>16</duration>
        <tie type="stop" />
        <voice>1</voice>
        <type>whole</type>
        <staff>1</staff>
        <notations>
          <tied type="stop" />
          </notations>
        </note>
      <backup>
        <duration>16</duration>
        </backup>
      <note default-x="24.78" default-y="-306.58">
        <pitch>
          <step>A</step>
          <alter>1</alter>
          <octave>1</octave>
          </pitch>
        <duration>16</duration>
        <tie type="stop" />
        <voice>5</voice>
        <type>whole</type>
        <staff>2</staff>
        <notations>
          <tied type="stop" />
          </notations>
        </note>
      <note default-x="24.78" default-y="-271.58">
        <chord />
        <pitch>
          <step>A</step>
          <alter>1</alter>
          <octave>2</octave>
          </pitch>
        <duration>16</duration>
        <tie type="stop" />
        <voice>5</voice>
        <type>whole</type>
        <staff>2</staff>
        <notations>
          <tied type="stop" />
          </notations>
        </note>
      </measure>
    <measure number="34" width="108.19">
      <note default-x="21.62" default-y="-151.58">
        <pitch>
          <step>D</step>
          <alter>1</alter>
          <octave>3</octave>
          </pitch>
        <duration>16</duration>
        <voice>1</voice>
        <type>whole</type>
        <accidental>sharp</accidental>
        <staff>1</staff>
        </note>
      <note default-x="21.62" default-y="-141.58">
        <chord />
        <pitch>
          <step>F</step>
          <alter>1</alter>
          <octave>3</octave>
          </pitch>
        <duration>16</duration>
        <voice>1</voice>
        <type>whole</type>
        <staff>1</staff>
        </note>
      <note default-x="21.62" default-y="-126.58">
        <chord />
        <pitch>
          <step>B</step>
          <octave>3</octave>
          </pitch>
        <duration>16</duration>
        <tie type="start" />
        <voice>1</voice>
        <type>whole</type>
        <staff>1</staff>
        <notations>
          <tied type="start" />
          </notations>
        </note>
      <note default-x="21.62" default-y="-116.58">
        <chord />
        <pitch>
          <step>D</step>
          <alter>1</alter>
          <octave>4</octave>
          </pitch>
        <duration>16</duration>
        <voice>1</voice>
        <type>whole</type>
        <accidental>sharp</accidental>
        <staff>1</staff>
        </note>
      <backup>
        <duration>16</duration>
        </backup>
      <direction placement="above">
        <direction-type>
          <dynamics default-x="6.50" relative-y="23.81">
            <pp />
            </dynamics>
          </direction-type>
        <staff>2</staff>
        <sound dynamics="36.67" />
        </direction>
      <note default-x="21.62" default-y="-301.58">
        <pitch>
          <step>B</step>
          <octave>1</octave>
          </pitch>
        <duration>16</duration>
        <voice>5</voice>
        <type>whole</type>
        <staff>2</staff>
        </note>
      <note default-x="21.62" default-y="-266.58">
        <chord />
        <pitch>
          <step>B</step>
          <octave>2</octave>
          </pitch>
        <duration>16</duration>
        <voice>5</voice>
        <type>whole</type>
        <staff>2</staff>
        </note>
      </measure>
    <measure number="35" width="187.57">
      <note default-x="33.80" default-y="-126.58">
        <pitch>
          <step>B</step>
          <octave>3</octave>
          </pitch>
        <duration>4</duration>
        <tie type="stop" />
        <voice>1</voice>
        <type>quarter</type>
        <stem>up</stem>
        <staff>1</staff>
        <notations>
          <tied type="stop" />
          <slur type="start" placement="above" number="1" />
          </notations>
        </note>
      <note default-x="75.41" default-y="-131.58">
        <pitch>
          <step>A</step>
          <alter>1</alter>
          <octave>3</octave>
          </pitch>
        <duration>4</duration>
        <voice>1</voice>
        <type>quarter</type>
        <accidental>sharp</accidental>
        <stem>up</stem>
        <staff>1</staff>
        </note>
      <note default-x="112.20" default-y="-136.58">
        <pitch>
          <step>G</step>
          <alter>1</alter>
          <octave>3</octave>
          </pitch>
        <duration>4</duration>
        <voice>1</voice>
        <type>quarter</type>
        <accidental>sharp</accidental>
        <stem>up</stem>
        <staff>1</staff>
        </note>
      <note default-x="148.98" default-y="-131.58">
        <pitch>
          <step>A</step>
          <alter>1</alter>
          <octave>3</octave>
          </pitch>
        <duration>4</duration>
        <voice>1</voice>
        <type>quarter</type>
        <stem>up</stem>
        <staff>1</staff>
        <notations>
          <slur type="stop" number="1" />
          </notations>
        </note>
      <backup>
        <duration>16</duration>
        </backup>
      <note default-x="20.88" default-y="-146.58">
        <pitch>
          <step>E</step>
          <octave>3</octave>
          </pitch>
        <duration>16</duration>
        <voice>2</voice>
        <type>whole</type>
        <staff>1</staff>
        </note>
      <note default-x="20.88" default-y="-121.58">
        <chord />
        <pitch>
          <step>C</step>
          <alter>1</alter>
          <octave>4</octave>
          </pitch>
        <duration>16</duration>
        <voice>2</voice>
        <type>whole</type>
        <staff>1</staff>
        </note>
      <backup>
        <duration>16</duration>
        </backup>
      <note default-x="20.88" default-y="-316.58">
        <pitch>
          <step>F</step>
          <alter>1</alter>
          <octave>1</octave>
          </pitch>
        <duration>16</duration>
        <voice>5</voice>
        <type>whole</type>
        <staff>2</staff>
        </note>
      <note default-x="20.88" default-y="-281.58">
        <chord />
        <pitch>
          <step>F</step>
          <alter>1</alter>
          <octave>2</octave>
          </pitch>
        <duration>16</duration>
        <voice>5</voice>
        <type>whole</type>
        <staff>2</staff>
        </note>
      </measure>
    <measure number="36" width="126.06">
      <note default-x="20.66" default-y="-151.58">
        <pitch>
          <step>D</step>
          <alter>1</alter>
          <octave>3</octave>
          </pitch>
        <duration>12</duration>
        <voice>1</voice>
        <type>half</type>
        <dot />
        <accidental>sharp</accidental>
        <stem>down</stem>
        <staff>1</staff>
        </note>
      <note default-x="20.66" default-y="-126.58">
        <chord />
        <pitch>
          <step>B</step>
          <octave>3</octave>
          </pitch>
        <duration>12</duration>
        <voice>1</voice>
        <type>half</type>
        <dot />
        <stem>down</stem>
        <staff>1</staff>
        </note>
      <note default-x="89.15" default-y="-151.58">
        <pitch>
          <step>D</step>
          <alter>1</alter>
          <octave>3</octave>
          </pitch>
        <duration>4</duration>
        <voice>1</voice>
        <type>quarter</type>
        <stem>down</stem>
        <staff>1</staff>
        <notations>
          <articulations>
            <accent />
            </articulations>
          </notations>
        </note>
      <note default-x="89.15" default-y="-131.58">
        <chord />
        <pitch>
          <step>A</step>
          <alter>1</alter>
          <octave>3</octave>
          </pitch>
        <duration>4</duration>
        <voice>1</voice>
        <type>quarter</type>
        <accidental>sharp</accidental>
        <stem>down</stem>
        <staff>1</staff>
        </note>
      <backup>
        <duration>16</duration>
        </backup>
      <note default-x="20.66" default-y="-311.58">
        <pitch>
          <step>G</step>
          <alter>1</alter>
          <octave>1</octave>
          </pitch>
        <duration>12</duration>
        <voice>5</voice>
        <type>half</type>
        <dot />
        <accidental>sharp</accidental>
        <stem>up</stem>
        <staff>2</staff>
        </note>
      <note default-x="20.66" default-y="-276.58">
        <chord />
        <pitch>
          <step>G</step>
          <alter>1</alter>
          <octave>2</octave>
          </pitch>
        <duration>12</duration>
        <voice>5</voice>
        <type>half</type>
        <dot />
        <accidental>sharp</accidental>
        <stem>up</stem>
        <staff>2</staff>
        </note>
      <direction placement="above">
        <direction-type>
          <dynamics default-x="6.50" relative-y="30.00">
            <p />
            </dynamics>
          </direction-type>
        <staff>2</staff>
        <sound dynamics="54.44" />
        </direction>
      <note default-x="89.15" default-y="-281.58">
        <pitch>
          <step>F</step>
          <alter>2</alter>
          <octave>2</octave>
          </pitch>
        <duration>4</duration>
        <voice>5</voice>
        <type>quarter</type>
        <accidental>double-sharp</accidental>
        <stem>up</stem>
        <staff>2</staff>
        <notations>
          <articulations>
            <accent />
            </articulations>
          </notations>
        </note>
      </measure>
    </part></score-partwise>
