<?xml version='1.0' encoding='utf-8'?>
<score-partwise version="3.1"><part-list><score-part id="P2"><part-name>Piano</part-name></score-part></part-list><part id="P2"><measure number="50" width="321.78">
      <print>
        <staff-layout number="1">
          <staff-distance>135.36</staff-distance>
          </staff-layout>
        <staff-layout number="2">
          <staff-distance>67.82</staff-distance>
          </staff-layout>
        </print>
      <attributes><divisions>12</divisions>
        <key>
          <fifths>2</fifths>
          </key>
        <staves>2</staves>
        <clef number="1">
          <sign>F</sign>
          <line>4</line>
          </clef>
        <clef number="2">
          <sign>F</sign>
          <line>4</line>
          </clef>
        </attributes><direction placement="below">
        <direction-type>
          <dynamics default-x="3.25" default-y="-40.00" relative-x="2.71" relative-y="-32.06">
            <p />
            </dynamics>
          </direction-type>
        <staff>1</staff>
        <sound dynamics="54.44" />
        </direction>
      <note default-x="115.55" default-y="-190.36">
        <pitch>
          <step>E</step>
          <octave>3</octave>
          </pitch>
        <duration>12</duration>
        <voice>1</voice>
        <type>quarter</type>
        <stem>down</stem>
        <staff>1</staff>
        </note>
      <note default-x="115.55" default-y="-170.36">
        <chord />
        <pitch>
          <step>B</step>
          <octave>3</octave>
          </pitch>
        <duration>12</duration>
        <voice>1</voice>
        <type>quarter</type>
        <accidental>natural</accidental>
        <stem>down</stem>
        <staff>1</staff>
        </note>
      <note default-x="103.66" default-y="-160.36">
        <chord />
        <pitch>
          <step>D</step>
          <octave>4</octave>
          </pitch>
        <duration>12</duration>
        <voice>1</voice>
        <type>quarter</type>
        <stem>down</stem>
        <staff>1</staff>
        </note>
      <note default-x="115.55" default-y="-155.36">
        <chord />
        <pitch>
          <step>E</step>
          <octave>4</octave>
          </pitch>
        <duration>12</duration>
        <voice>1</voice>
        <type>quarter</type>
        <stem>down</stem>
        <staff>1</staff>
        </note>
      <note default-x="183.69" default-y="-190.36">
        <pitch>
          <step>E</step>
          <octave>3</octave>
          </pitch>
        <duration>12</duration>
        <voice>1</voice>
        <type>quarter</type>
        <stem>down</stem>
        <staff>1</staff>
        </note>
      <note default-x="183.69" default-y="-170.36">
        <chord />
        <pitch>
          <step>B</step>
          <octave>3</octave>
          </pitch>
        <duration>12</duration>
        <voice>1</voice>
        <type>quarter</type>
        <stem>down</stem>
        <staff>1</staff>
        </note>
      <note default-x="171.80" default-y="-160.36">
        <chord />
        <pitch>
          <step>D</step>
          <octave>4</octave>
          </pitch>
        <duration>12</duration>
        <voice>1</voice>
        <type>quarter</type>
        <stem>down</stem>
        <staff>1</staff>
        </note>
      <note default-x="183.69" default-y="-155.36">
        <chord />
        <pitch>
          <step>E</step>
          <octave>4</octave>
          </pitch>
        <duration>12</duration>
        <voice>1</voice>
        <type>quarter</type>
        <stem>down</stem>
        <staff>1</staff>
        </note>
      <note default-x="251.84" default-y="-190.36">
        <pitch>
          <step>E</step>
          <octave>3</octave>
          </pitch>
        <duration>12</duration>
        <voice>1</voice>
        <type>quarter</type>
        <stem>down</stem>
        <staff>1</staff>
        </note>
      <note default-x="251.84" default-y="-170.36">
        <chord />
        <pitch>
          <step>B</step>
          <octave>3</octave>
          </pitch>
        <duration>12</duration>
        <voice>1</voice>
        <type>quarter</type>
        <stem>down</stem>
        <staff>1</staff>
        </note>
      <note default-x="239.94" default-y="-160.36">
        <chord />
        <pitch>
          <step>D</step>
          <octave>4</octave>
          </pitch>
        <duration>12</duration>
        <voice>1</voice>
        <type>quarter</type>
        <stem>down</stem>
        <staff>1</staff>
        </note>
      <note default-x="251.84" default-y="-155.36">
        <chord />
        <pitch>
          <step>E</step>
          <octave>4</octave>
          </pitch>
        <duration>12</duration>
        <voice>1</voice>
        <type>quarter</type>
        <stem>down</stem>
        <staff>1</staff>
        </note>
      <backup>
        <duration>36</duration>
        </backup>
      <note default-x="115.55" default-y="-358.19">
        <pitch>
          <step>G</step>
          <alter>1</alter>
          <octave>1</octave>
          </pitch>
        <duration>12</duration>
        <voice>5</voice>
        <type>quarter</type>
        <accidental>sharp</accidental>
        <stem>up</stem>
        <staff>2</staff>
        </note>
      <note default-x="115.55" default-y="-323.19">
        <chord />
        <pitch>
          <step>G</step>
          <alter>1</alter>
          <octave>2</octave>
          </pitch>
        <duration>12</duration>
        <voice>5</voice>
        <type>quarter</type>
        <accidental>sharp</accidental>
        <stem>up</stem>
        <staff>2</staff>
        </note>
      <note default-x="183.69" default-y="-358.19">
        <pitch>
          <step>G</step>
          <alter>1</alter>
          <octave>1</octave>
          </pitch>
        <duration>12</duration>
        <voice>5</voice>
        <type>quarter</type>
        <stem>up</stem>
        <staff>2</staff>
        </note>
      <note default-x="183.69" default-y="-323.19">
        <chord />
        <pitch>
          <step>G</step>
          <alter>1</alter>
          <octave>2</octave>
          </pitch>
        <duration>12</duration>
        <voice>5</voice>
        <type>quarter</type>
        <stem>up</stem>
        <staff>2</staff>
        </note>
      <note default-x="251.84" default-y="-358.19">
        <pitch>
          <step>G</step>
          <alter>1</alter>
          <octave>1</octave>
          </pitch>
        <duration>12</duration>
        <voice>5</voice>
        <type>quarter</type>
        <stem>up</stem>
        <staff>2</staff>
        </note>
      <note default-x="251.84" default-y="-323.19">
        <chord />
        <pitch>
          <step>G</step>
          <alter>1</alter>
          <octave>2</octave>
          </pitch>
        <duration>12</duration>
        <voice>5</voice>
        <type>quarter</type>
        <stem>up</stem>
        <staff>2</staff>
        </note>
      </measure>
    <measure number="51" width="205.70">
      <note default-x="39.38" default-y="-190.36">
        <pitch>
          <step>E</step>
          <octave>3</octave>
          </pitch>
        <duration>36</duration>
        <voice>1</voice>
        <type>half</type>
        <dot />
        <stem>down</stem>
        <staff>1</staff>
        </note>
      <note default-x="27.48" default-y="-170.36">
        <chord />
        <pitch>
          <step>B</step>
          <alter>-1</alter>
          <octave>3</octave>
          </pitch>
        <duration>36</duration>
        <voice>1</voice>
        <type>half</type>
        <dot />
        <accidental>flat</accidental>
        <stem>down</stem>
        <staff>1</staff>
        </note>
      <note default-x="39.38" default-y="-165.36">
        <chord />
        <pitch>
          <step>C</step>
          <alter>1</alter>
          <octave>4</octave>
          </pitch>
        <duration>36</duration>
        <voice>1</voice>
        <type>half</type>
        <dot />
        <accidental>sharp</accidental>
        <stem>down</stem>
        <staff>1</staff>
        </note>
      <note default-x="39.38" default-y="-155.36">
        <chord />
        <pitch>
          <step>E</step>
          <octave>4</octave>
          </pitch>
        <duration>36</duration>
        <voice>1</voice>
        <type>half</type>
        <dot />
        <stem>down</stem>
        <staff>1</staff>
        </note>
      <backup>
        <duration>36</duration>
        </backup>
      <note default-x="39.38" default-y="-358.19">
        <pitch>
          <step>G</step>
          <octave>1</octave>
          </pitch>
        <duration>36</duration>
        <voice>5</voice>
        <type>half</type>
        <dot />
        <accidental>natural</accidental>
        <stem>up</stem>
        <staff>2</staff>
        </note>
      <note default-x="39.38" default-y="-323.19">
        <chord />
        <pitch>
          <step>G</step>
          <octave>2</octave>
          </pitch>
        <duration>36</duration>
        <voice>5</voice>
        <type>half</type>
        <dot />
        <accidental>natural</accidental>
        <stem>up</stem>
        <staff>2</staff>
        </note>
      </measure>
    <measure number="52" width="222.42">
      <direction placement="below">
        <direction-type>
          <wedge type="crescendo" number="1" default-y="-73.80" />
          </direction-type>
        <staff>1</staff>
        </direction>
      <note default-x="25.60" default-y="-190.36">
        <pitch>
          <step>E</step>
          <octave>3</octave>
          </pitch>
        <duration>12</duration>
        <voice>1</voice>
        <type>quarter</type>
        <stem>down</stem>
        <staff>1</staff>
        </note>
      <note default-x="25.60" default-y="-175.36">
        <chord />
        <pitch>
          <step>A</step>
          <octave>3</octave>
          </pitch>
        <duration>12</duration>
        <voice>1</voice>
        <type>quarter</type>
        <stem>down</stem>
        <staff>1</staff>
        </note>
      <note default-x="25.60" default-y="-165.36">
        <chord />
        <pitch>
          <step>C</step>
          <alter>1</alter>
          <octave>4</octave>
          </pitch>
        <duration>12</duration>
        <voice>1</voice>
        <type>quarter</type>
        <stem>down</stem>
        <staff>1</staff>
        </note>
      <note default-x="25.60" default-y="-155.36">
        <chord />
        <pitch>
          <step>E</step>
          <octave>4</octave>
          </pitch>
        <duration>12</duration>
        <voice>1</voice>
        <type>quarter</type>
        <stem>down</stem>
        <staff>1</staff>
        </note>
      <note default-x="69.92" default-y="-190.36">
        <pitch>
          <step>E</step>
          <octave>3</octave>
          </pitch>
        <duration>12</duration>
        <voice>1</voice>
        <type>quarter</type>
        <stem>down</stem>
        <staff>1</staff>
        </note>
      <note default-x="69.92" default-y="-175.36">
        <chord />
        <pitch>
          <step>A</step>
          <octave>3</octave>
          </pitch>
        <duration>12</duration>
        <voice>1</voice>
        <type>quarter</type>
        <stem>down</stem>
        <staff>1</staff>
        </note>
      <note default-x="69.92" default-y="-165.36">
        <chord />
        <pitch>
          <step>C</step>
          <alter>1</alter>
          <octave>4</octave>
          </pitch>
        <duration>12</duration>
        <voice>1</voice>
        <type>quarter</type>
        <stem>down</stem>
        <staff>1</staff>
        </note>
      <note default-x="69.92" default-y="-155.36">
        <chord />
        <pitch>
          <step>E</step>
          <octave>4</octave>
          </pitch>
        <duration>12</duration>
        <voice>1</voice>
        <type>quarter</type>
        <stem>down</stem>
        <staff>1</staff>
        </note>
      <note default-x="165.21" default-y="-190.36">
        <pitch>
          <step>E</step>
          <octave>3</octave>
          </pitch>
        <duration>12</duration>
        <voice>1</voice>
        <type>quarter</type>
        <stem>down</stem>
        <staff>1</staff>
        </note>
      <note default-x="165.21" default-y="-175.36">
        <chord />
        <pitch>
          <step>A</step>
          <octave>3</octave>
          </pitch>
        <duration>12</duration>
        <voice>1</voice>
        <type>quarter</type>
        <stem>down</stem>
        <staff>1</staff>
        </note>
      <note default-x="165.21" default-y="-165.36">
        <chord />
        <pitch>
          <step>C</step>
          <alter>1</alter>
          <octave>4</octave>
          </pitch>
        <duration>12</duration>
        <voice>1</voice>
        <type>quarter</type>
        <stem>down</stem>
        <staff>1</staff>
        </note>
      <note default-x="165.21" default-y="-155.36">
        <chord />
        <pitch>
          <step>E</step>
          <octave>4</octave>
          </pitch>
        <duration>12</duration>
        <voice>1</voice>
        <type>quarter</type>
        <stem>down</stem>
        <staff>1</staff>
        </note>
      <direction placement="below">
        <direction-type>
          <wedge type="stop" number="1" />
          </direction-type>
        <staff>1</staff>
        </direction>
      <backup>
        <duration>36</duration>
        </backup>
      <note default-x="25.60" default-y="-358.19">
        <pitch>
          <step>G</step>
          <octave>1</octave>
          </pitch>
        <duration>12</duration>
        <voice>5</voice>
        <type>quarter</type>
        <stem>up</stem>
        <staff>2</staff>
        </note>
      <note default-x="25.60" default-y="-323.19">
        <chord />
        <pitch>
          <step>G</step>
          <octave>2</octave>
          </pitch>
        <duration>12</duration>
        <voice>5</voice>
        <type>quarter</type>
        <stem>up</stem>
        <staff>2</staff>
        </note>
      <note default-x="69.92" default-y="-358.19">
        <pitch>
          <step>G</step>
          <octave>1</octave>
          </pitch>
        <duration>12</duration>
        <voice>5</voice>
        <type>quarter</type>
        <stem>up</stem>
        <staff>2</staff>
        </note>
      <note default-x="69.92" default-y="-323.19">
        <chord />
        <pitch>
          <step>G</step>
          <octave>2</octave>
          </pitch>
        <duration>12</duration>
        <voice>5</voice>
        <type>quarter</type>
        <stem>up</stem>
        <staff>2</staff>
        </note>
      <note default-x="165.21" default-y="-358.19">
        <pitch>
          <step>G</step>
          <octave>1</octave>
          </pitch>
        <duration>12</duration>
        <voice>5</voice>
        <type>quarter</type>
        <stem>up</stem>
        <staff>2</staff>
        </note>
      <note default-x="165.21" default-y="-323.19">
        <chord />
        <pitch>
          <step>G</step>
          <octave>2</octave>
          </pitch>
        <duration>12</duration>
        <voice>5</voice>
        <type>quarter</type>
        <stem>up</stem>
        <staff>2</staff>
        </note>
      </measure>
    <measure number="53" width="181.92">
      <direction placement="below">
        <direction-type>
          <wedge type="diminuendo" number="1" default-y="-75.00" />
          </direction-type>
        <staff>1</staff>
        </direction>
      <note default-x="19.84" default-y="-195.36">
        <pitch>
          <step>D</step>
          <octave>3</octave>
          </pitch>
        <duration>36</duration>
        <voice>1</voice>
        <type>half</type>
        <dot />
        <stem>down</stem>
        <staff>1</staff>
        <notations>
          <slur type="start" placement="above" number="1" />
          </notations>
        </note>
      <note default-x="19.84" default-y="-175.36">
        <chord />
        <pitch>
          <step>A</step>
          <octave>3</octave>
          </pitch>
        <duration>36</duration>
        <voice>1</voice>
        <type>half</type>
        <dot />
        <stem>down</stem>
        <staff>1</staff>
        </note>
      <note default-x="19.84" default-y="-160.36">
        <chord />
        <pitch>
          <step>D</step>
          <octave>4</octave>
          </pitch>
        <duration>36</duration>
        <voice>1</voice>
        <type>half</type>
        <dot />
        <stem>down</stem>
        <staff>1</staff>
        </note>
      <direction placement="below">
        <direction-type>
          <wedge type="stop" number="1" />
          </direction-type>
        <staff>1</staff>
        </direction>
      <backup>
        <duration>36</duration>
        </backup>
      <note default-x="19.84" default-y="-363.19">
        <pitch>
          <step>F</step>
          <alter>1</alter>
          <octave>1</octave>
          </pitch>
        <duration>36</duration>
        <voice>5</voice>
        <type>half</type>
        <dot />
        <stem>up</stem>
        <staff>2</staff>
        </note>
      <note default-x="19.84" default-y="-328.19">
        <chord />
        <pitch>
          <step>F</step>
          <alter>1</alter>
          <octave>2</octave>
          </pitch>
        <duration>36</duration>
        <voice>5</voice>
        <type>half</type>
        <dot />
        <stem>up</stem>
        <staff>2</staff>
        </note>
      </measure>
    <measure number="54" width="216.35">
      <direction placement="below">
        <direction-type>
          <dynamics default-x="3.25" default-y="-40.00" relative-y="-40.00">
            <pp />
            </dynamics>
          </direction-type>
        <staff>1</staff>
        <sound dynamics="36.67" />
        </direction>
      <note default-x="25.60" default-y="-180.36">
        <pitch>
          <step>G</step>
          <octave>3</octave>
          </pitch>
        <duration>36</duration>
        <voice>1</voice>
        <type>half</type>
        <dot />
        <stem>down</stem>
        <staff>1</staff>
        <notations>
          <slur type="stop" number="1" />
          </notations>
        </note>
      <note default-x="25.60" default-y="-165.36">
        <chord />
        <pitch>
          <step>C</step>
          <alter>1</alter>
          <octave>4</octave>
          </pitch>
        <duration>36</duration>
        <voice>1</voice>
        <type>half</type>
        <dot />
        <stem>down</stem>
        <staff>1</staff>
        </note>
      <backup>
        <duration>36</duration>
        </backup>
      <note default-x="25.60" default-y="-333.19">
        <pitch>
          <step>E</step>
          <octave>2</octave>
          </pitch>
        <duration>36</duration>
        <voice>5</voice>
        <type>half</type>
        <dot />
        <stem>up</stem>
        <staff>2</staff>
        </note>
      <note default-x="25.60" default-y="-298.19">
        <chord />
        <pitch>
          <step>E</step>
          <octave>3</octave>
          </pitch>
        <duration>36</duration>
        <voice>5</voice>
        <type>half</type>
        <dot />
        <stem>up</stem>
        <staff>2</staff>
        </note>
      </measure>
    <measure number="55" width="96.20">
      <note default-x="10.00" default-y="-185.36">
        <pitch>
          <step>F</step>
          <alter>1</alter>
          <octave>3</octave>
          </pitch>
        <duration>36</duration>
        <voice>1</voice>
        <type>half</type>
        <dot />
        <stem>down</stem>
        <staff>1</staff>
        </note>
      <note default-x="10.00" default-y="-170.36">
        <chord />
        <pitch>
          <step>B</step>
          <octave>3</octave>
          </pitch>
        <duration>36</duration>
        <voice>1</voice>
        <type>half</type>
        <dot />
        <stem>down</stem>
        <staff>1</staff>
        </note>
      <backup>
        <duration>36</duration>
        </backup>
      <note default-x="10.00" default-y="-328.19">
        <pitch>
          <step>F</step>
          <alter>1</alter>
          <octave>2</octave>
          </pitch>
        <duration>36</duration>
        <voice>5</voice>
        <type>half</type>
        <dot />
        <stem>up</stem>
        <staff>2</staff>
        </note>
      <note default-x="10.00" default-y="-303.19">
        <chord />
        <pitch>
          <step>D</step>
          <octave>3</octave>
          </pitch>
        <duration>36</duration>
        <voice>5</voice>
        <type>half</type>
        <dot />
        <stem>up</stem>
        <staff>2</staff>
        </note>
      </measure>
    <measure number="56" width="100.09">
      <note default-x="17.16" default-y="-190.36">
        <pitch>
          <step>E</step>
          <octave>3</octave>
          </pitch>
        <duration>36</duration>
        <voice>1</voice>
        <type>half</type>
        <dot />
        <stem>down</stem>
        <staff>1</staff>
        </note>
      <note default-x="29.06" default-y="-185.36">
        <chord />
        <pitch>
          <step>F</step>
          <alter>1</alter>
          <octave>3</octave>
          </pitch>
        <duration>36</duration>
        <voice>1</voice>
        <type>half</type>
        <dot />
        <stem>down</stem>
        <staff>1</staff>
        </note>
      <note default-x="29.06" default-y="-175.36">
        <chord />
        <pitch>
          <step>A</step>
          <alter>1</alter>
          <octave>3</octave>
          </pitch>
        <duration>36</duration>
        <voice>1</voice>
        <type>half</type>
        <dot />
        <accidental>sharp</accidental>
        <stem>down</stem>
        <staff>1</staff>
        </note>
      <backup>
        <duration>36</duration>
        </backup>
      <note default-x="29.06" default-y="-328.19">
        <pitch>
          <step>F</step>
          <alter>1</alter>
          <octave>2</octave>
          </pitch>
        <duration>36</duration>
        <voice>5</voice>
        <type>half</type>
        <dot />
        <stem>up</stem>
        <staff>2</staff>
        </note>
      <note default-x="29.06" default-y="-308.19">
        <chord />
        <pitch>
          <step>C</step>
          <alter>1</alter>
          <octave>3</octave>
          </pitch>
        <duration>36</duration>
        <voice>5</voice>
        <type>half</type>
        <dot />
        <stem>up</stem>
        <staff>2</staff>
        </note>
      </measure>
    <measure number="57" width="166.61">
      <note default-x="13.50" default-y="-195.36">
        <pitch>
          <step>D</step>
          <octave>3</octave>
          </pitch>
        <duration>36</duration>
        <tie type="start" />
        <voice>1</voice>
        <type>half</type>
        <dot />
        <stem>down</stem>
        <staff>1</staff>
        <notations>
          <tied type="start" />
          </notations>
        </note>
      <note default-x="13.50" default-y="-185.36">
        <chord />
        <pitch>
          <step>F</step>
          <alter>1</alter>
          <octave>3</octave>
          </pitch>
        <duration>36</duration>
        <tie type="start" />
        <voice>1</voice>
        <type>half</type>
        <dot />
        <stem>down</stem>
        <staff>1</staff>
        <notations>
          <tied type="start" />
          </notations>
        </note>
      <note default-x="13.50" default-y="-170.36">
        <chord />
        <pitch>
          <step>B</step>
          <octave>3</octave>
          </pitch>
        <duration>36</duration>
        <tie type="start" />
        <voice>1</voice>
        <type>half</type>
        <dot />
        <stem>down</stem>
        <staff>1</staff>
        <notations>
          <tied type="start" />
          </notations>
        </note>
      <backup>
        <duration>36</duration>
        </backup>
      <note default-x="13.50" default-y="-348.19">
        <pitch>
          <step>B</step>
          <octave>1</octave>
          </pitch>
        <duration>36</duration>
        <tie type="start" />
        <voice>5</voice>
        <type>half</type>
        <dot />
        <stem>up</stem>
        <staff>2</staff>
        <notations>
          <tied type="start" />
          </notations>
        </note>
      <note default-x="13.50" default-y="-328.19">
        <chord />
        <pitch>
          <step>F</step>
          <alter>1</alter>
          <octave>2</octave>
          </pitch>
        <duration>36</duration>
        <tie type="start" />
        <voice>5</voice>
        <type>half</type>
        <dot />
        <stem>up</stem>
        <staff>2</staff>
        <notations>
          <tied type="start" />
          </notations>
        </note>
      <note default-x="13.50" default-y="-313.19">
        <chord />
        <pitch>
          <step>B</step>
          <octave>2</octave>
          </pitch>
        <duration>36</duration>
        <tie type="start" />
        <voice>5</voice>
        <type>half</type>
        <dot />
        <stem>up</stem>
        <staff>2</staff>
        <notations>
          <tied type="start" />
          </notations>
        </note>
      </measure>
    <measure number="58" width="108.01">
      <note default-x="13.50" default-y="-195.36">
        <pitch>
          <step>D</step>
          <octave>3</octave>
          </pitch>
        <duration>36</duration>
        <tie type="stop" />
        <voice>1</voice>
        <type>half</type>
        <dot />
        <stem>down</stem>
        <staff>1</staff>
        <notations>
          <tied type="stop" />
          <fermata type="upright" default-y="6.21" relative-y="10.00" />
          </notations>
        </note>
      <note default-x="13.50" default-y="-185.36">
        <chord />
        <pitch>
          <step>F</step>
          <alter>1</alter>
          <octave>3</octave>
          </pitch>
        <duration>36</duration>
        <tie type="stop" />
        <voice>1</voice>
        <type>half</type>
        <dot />
        <stem>down</stem>
        <staff>1</staff>
        <notations>
          <tied type="stop" />
          </notations>
        </note>
      <note default-x="13.50" default-y="-170.36">
        <chord />
        <pitch>
          <step>B</step>
          <octave>3</octave>
          </pitch>
        <duration>36</duration>
        <tie type="stop" />
        <voice>1</voice>
        <type>half</type>
        <dot />
        <stem>down</stem>
        <staff>1</staff>
        <notations>
          <tied type="stop" />
          </notations>
        </note>
      <backup>
        <duration>36</duration>
        </backup>
      <note default-x="13.50" default-y="-348.19">
        <pitch>
          <step>B</step>
          <octave>1</octave>
          </pitch>
        <duration>36</duration>
        <tie type="stop" />
        <voice>5</voice>
        <type>half</type>
        <dot />
        <stem>up</stem>
        <staff>2</staff>
        <notations>
          <tied type="stop" />
          <fermata type="upright" relative-y="10.00" />
          </notations>
        </note>
      <note default-x="13.50" default-y="-328.19">
        <chord />
        <pitch>
          <step>F</step>
          <alter>1</alter>
          <octave>2</octave>
          </pitch>
        <duration>36</duration>
        <tie type="stop" />
        <voice>5</voice>
        <type>half</type>
        <dot />
        <stem>up</stem>
        <staff>2</staff>
        <notations>
          <tied type="stop" />
          </notations>
        </note>
      <note default-x="13.50" default-y="-313.19">
        <chord />
        <pitch>
          <step>B</step>
          <octave>2</octave>
          </pitch>
        <duration>36</duration>
        <tie type="stop" />
        <voice>5</voice>
        <type>half</type>
        <dot />
        <stem>up</stem>
        <staff>2</staff>
        <notations>
          <tied type="stop" />
          </notations>
        </note>
      </measure>
    </part></score-partwise>
