<?xml version='1.0' encoding='utf-8'?>
<score-partwise version="3.1"><part-list><score-part id="P2"><part-name>Piano</part-name></score-part></part-list><part id="P2"><measure number="61" width="280.08">
      <print>
        <staff-layout number="1">
          <staff-distance>100.00</staff-distance>
          </staff-layout>
        <staff-layout number="2">
          <staff-distance>76.17</staff-distance>
          </staff-layout>
        </print>
      <attributes><divisions>4</divisions>
        <key>
          <fifths>4</fifths>
          </key>
        <staves>2</staves>
        <clef number="1">
          <sign>G</sign>
          <line>2</line>
          </clef>
        <clef number="2">
          <sign>F</sign>
          <line>4</line>
          </clef>
        </attributes><note default-x="113.41" default-y="-205.00">
        <pitch>
          <step>G</step>
          <alter>1</alter>
          <octave>3</octave>
          </pitch>
        <duration>1</duration>
        <voice>1</voice>
        <type>16th</type>
        <stem>up</stem>
        <staff>1</staff>
        </note>
      <note default-x="113.41" default-y="-195.00">
        <chord />
        <pitch>
          <step>B</step>
          <octave>3</octave>
          </pitch>
        <duration>1</duration>
        <voice>1</voice>
        <type>16th</type>
        <stem>up</stem>
        <staff>1</staff>
        </note>
      <note default-x="113.41" default-y="-180.00">
        <chord />
        <pitch>
          <step>E</step>
          <octave>4</octave>
          </pitch>
        <duration>1</duration>
        <voice>1</voice>
        <type>16th</type>
        <stem>up</stem>
        <staff>1</staff>
        </note>
      <direction placement="below">
        <direction-type>
          <dynamics default-x="3.29" default-y="-40.00" relative-x="9.34" relative-y="-50.00">
            <p />
            </dynamics>
          </direction-type>
        <staff>1</staff>
        <sound dynamics="54.44" />
        </direction>
      <note default-x="138.71" default-y="-170.00">
        <pitch>
          <step>G</step>
          <alter>1</alter>
          <octave>4</octave>
          </pitch>
        <duration>1</duration>
        <voice>1</voice>
        <type>16th</type>
        <stem>up</stem>
        <staff>1</staff>
        <beam number="1">begin</beam>
        <beam number="2">begin</beam>
        <notations>
          <slur type="start" placement="above" number="2" />
          </notations>
        </note>
      <note default-x="163.66" default-y="-180.00">
        <pitch>
          <step>E</step>
          <octave>4</octave>
          </pitch>
        <duration>1</duration>
        <voice>1</voice>
        <type>16th</type>
        <stem>up</stem>
        <staff>1</staff>
        <beam number="1">continue</beam>
        <beam number="2">continue</beam>
        </note>
      <note default-x="188.61" default-y="-195.00">
        <pitch>
          <step>B</step>
          <octave>3</octave>
          </pitch>
        <duration>1</duration>
        <voice>1</voice>
        <type>16th</type>
        <stem>up</stem>
        <staff>1</staff>
        <beam number="1">continue</beam>
        <beam number="2">continue</beam>
        </note>
      <note default-x="213.56" default-y="-261.17">
        <pitch>
          <step>G</step>
          <alter>1</alter>
          <octave>3</octave>
          </pitch>
        <duration>1</duration>
        <voice>1</voice>
        <type>16th</type>
        <stem>up</stem>
        <staff>2</staff>
        <beam number="1">continue</beam>
        <beam number="2">continue</beam>
        </note>
      <note default-x="243.45" default-y="-271.17">
        <pitch>
          <step>E</step>
          <octave>3</octave>
          </pitch>
        <duration>1</duration>
        <voice>1</voice>
        <type>16th</type>
        <stem>up</stem>
        <staff>2</staff>
        <beam number="1">end</beam>
        <beam number="2">end</beam>
        </note>
      <note default-x="255.32" default-y="-266.17">
        <chord />
        <pitch>
          <step>F</step>
          <alter>1</alter>
          <octave>3</octave>
          </pitch>
        <duration>1</duration>
        <tie type="start" />
        <voice>1</voice>
        <type>16th</type>
        <stem>up</stem>
        <staff>2</staff>
        <notations>
          <tied type="start" />
          </notations>
        </note>
      <note default-x="243.45" default-y="-256.17">
        <chord />
        <pitch>
          <step>A</step>
          <alter>1</alter>
          <octave>3</octave>
          </pitch>
        <duration>1</duration>
        <voice>1</voice>
        <type>16th</type>
        <accidental>sharp</accidental>
        <stem>up</stem>
        <staff>2</staff>
        </note>
      <backup>
        <duration>6</duration>
        </backup>
      <direction placement="below">
        <direction-type>
          <dynamics default-x="6.58" default-y="-77.35" relative-y="-40.00">
            <mp />
            </dynamics>
          </direction-type>
        <staff>2</staff>
        <sound dynamics="71.11" />
        </direction>
      <note default-x="113.41" default-y="-341.17">
        <pitch>
          <step>E</step>
          <octave>1</octave>
          </pitch>
        <duration>4</duration>
        <voice>5</voice>
        <type>quarter</type>
        <stem>up</stem>
        <staff>2</staff>
        <notations>
          <slur type="stop" number="1" />
          </notations>
        </note>
      <note default-x="113.41" default-y="-306.17">
        <chord />
        <pitch>
          <step>E</step>
          <octave>2</octave>
          </pitch>
        <duration>4</duration>
        <voice>5</voice>
        <type>quarter</type>
        <stem>up</stem>
        <staff>2</staff>
        </note>
      <note>
        <rest>
          <display-step>B</display-step>
          <display-octave>2</display-octave>
          </rest>
        <duration>1</duration>
        <voice>5</voice>
        <type>16th</type>
        <staff>2</staff>
        </note>
      <note default-x="243.45" default-y="-281.17">
        <pitch>
          <step>C</step>
          <alter>1</alter>
          <octave>3</octave>
          </pitch>
        <duration>1</duration>
        <voice>5</voice>
        <type>16th</type>
        <stem>down</stem>
        <staff>2</staff>
        <notations>
          <slur type="start" placement="below" number="1" />
          </notations>
        </note>
      </measure>
    <measure number="62" width="265.01">
      <note default-x="12.00" default-y="-276.17">
        <pitch>
          <step>D</step>
          <alter>1</alter>
          <octave>3</octave>
          </pitch>
        <duration>1</duration>
        <voice>1</voice>
        <type>16th</type>
        <stem>up</stem>
        <staff>2</staff>
        <notations>
          <slur type="stop" number="2" />
          </notations>
        </note>
      <note default-x="12.00" default-y="-266.17">
        <chord />
        <pitch>
          <step>F</step>
          <alter>1</alter>
          <octave>3</octave>
          </pitch>
        <duration>1</duration>
        <tie type="stop" />
        <voice>1</voice>
        <type>16th</type>
        <stem>up</stem>
        <staff>2</staff>
        <notations>
          <tied type="stop" />
          </notations>
        </note>
      <note default-x="12.00" default-y="-251.17">
        <chord />
        <pitch>
          <step>B</step>
          <octave>3</octave>
          </pitch>
        <duration>1</duration>
        <voice>1</voice>
        <type>16th</type>
        <stem>up</stem>
        <staff>2</staff>
        </note>
      <note default-x="53.90" default-y="-256.17">
        <pitch>
          <step>A</step>
          <octave>3</octave>
          </pitch>
        <duration>1</duration>
        <voice>1</voice>
        <type>16th</type>
        <accidental>natural</accidental>
        <stem>up</stem>
        <staff>2</staff>
        <beam number="1">begin</beam>
        <beam number="2">begin</beam>
        <notations>
          <slur type="start" placement="above" number="2" />
          </notations>
        </note>
      <note default-x="95.80" default-y="-266.17">
        <pitch>
          <step>F</step>
          <alter>1</alter>
          <octave>3</octave>
          </pitch>
        <duration>1</duration>
        <voice>1</voice>
        <type>16th</type>
        <stem>up</stem>
        <staff>2</staff>
        <beam number="1">continue</beam>
        <beam number="2">continue</beam>
        </note>
      <note default-x="132.70" default-y="-276.17">
        <pitch>
          <step>D</step>
          <alter>1</alter>
          <octave>3</octave>
          </pitch>
        <duration>1</duration>
        <voice>1</voice>
        <type>16th</type>
        <stem>up</stem>
        <staff>2</staff>
        <beam number="1">end</beam>
        <beam number="2">end</beam>
        </note>
      <note>
        <rest>
          <display-step>F</display-step>
          <display-octave>5</display-octave>
          </rest>
        <duration>2</duration>
        <voice>1</voice>
        <type>eighth</type>
        <staff>1</staff>
        </note>
      <backup>
        <duration>6</duration>
        </backup>
      <note default-x="12.00" default-y="-286.17">
        <pitch>
          <step>B</step>
          <octave>2</octave>
          </pitch>
        <duration>1</duration>
        <voice>5</voice>
        <type>16th</type>
        <stem>down</stem>
        <staff>2</staff>
        <notations>
          <slur type="stop" number="1" />
          </notations>
        </note>
      <note>
        <rest>
          <display-step>B</display-step>
          <display-octave>2</display-octave>
          </rest>
        <duration>1</duration>
        <voice>5</voice>
        <type>16th</type>
        <staff>2</staff>
        </note>
      <note>
        <rest>
          <display-step>G</display-step>
          <display-octave>2</display-octave>
          </rest>
        <duration>2</duration>
        <voice>5</voice>
        <type>eighth</type>
        <staff>2</staff>
        </note>
      <note default-x="161.14" default-y="-276.17">
        <grace />
        <pitch>
          <step>D</step>
          <alter>1</alter>
          <octave>3</octave>
          </pitch>
        <voice>5</voice>
        <type>16th</type>
        <stem>up</stem>
        <staff>2</staff>
        </note>
      <note default-x="179.60" default-y="-281.17">
        <pitch>
          <step>C</step>
          <alter>1</alter>
          <octave>3</octave>
          </pitch>
        <duration>1</duration>
        <voice>5</voice>
        <type>16th</type>
        <stem>down</stem>
        <staff>2</staff>
        <beam number="1">begin</beam>
        <beam number="2">begin</beam>
        </note>
      <note default-x="221.51" default-y="-286.17">
        <pitch>
          <step>B</step>
          <octave>2</octave>
          </pitch>
        <duration>1</duration>
        <tie type="start" />
        <voice>5</voice>
        <type>16th</type>
        <stem>down</stem>
        <staff>2</staff>
        <beam number="1">end</beam>
        <beam number="2">end</beam>
        <notations>
          <tied type="start" />
          <slur type="stop" number="2" />
          </notations>
        </note>
      </measure>
    <measure number="63" width="173.89">
      <note default-x="15.80" default-y="-271.17">
        <pitch>
          <step>E</step>
          <octave>3</octave>
          </pitch>
        <duration>1</duration>
        <voice>1</voice>
        <type>16th</type>
        <stem>up</stem>
        <staff>2</staff>
        </note>
      <note default-x="15.80" default-y="-261.17">
        <chord />
        <pitch>
          <step>G</step>
          <alter>1</alter>
          <octave>3</octave>
          </pitch>
        <duration>1</duration>
        <voice>1</voice>
        <type>16th</type>
        <stem>up</stem>
        <staff>2</staff>
        </note>
      <note default-x="38.69" default-y="-170.00">
        <pitch>
          <step>G</step>
          <alter>1</alter>
          <octave>4</octave>
          </pitch>
        <duration>1</duration>
        <voice>1</voice>
        <type>16th</type>
        <stem>up</stem>
        <staff>1</staff>
        <beam number="1">begin</beam>
        <beam number="2">begin</beam>
        <notations>
          <slur type="start" placement="above" number="1" />
          </notations>
        </note>
      <note default-x="61.58" default-y="-180.00">
        <pitch>
          <step>E</step>
          <octave>4</octave>
          </pitch>
        <duration>1</duration>
        <voice>1</voice>
        <type>16th</type>
        <stem>up</stem>
        <staff>1</staff>
        <beam number="1">continue</beam>
        <beam number="2">continue</beam>
        </note>
      <note default-x="84.47" default-y="-195.00">
        <pitch>
          <step>B</step>
          <octave>3</octave>
          </pitch>
        <duration>1</duration>
        <voice>1</voice>
        <type>16th</type>
        <stem>up</stem>
        <staff>1</staff>
        <beam number="1">continue</beam>
        <beam number="2">continue</beam>
        </note>
      <note default-x="107.36" default-y="-261.17">
        <pitch>
          <step>G</step>
          <alter>1</alter>
          <octave>3</octave>
          </pitch>
        <duration>1</duration>
        <voice>1</voice>
        <type>16th</type>
        <stem>up</stem>
        <staff>2</staff>
        <beam number="1">continue</beam>
        <beam number="2">continue</beam>
        </note>
      <note default-x="137.26" default-y="-271.17">
        <pitch>
          <step>E</step>
          <octave>3</octave>
          </pitch>
        <duration>1</duration>
        <voice>1</voice>
        <type>16th</type>
        <stem>up</stem>
        <staff>2</staff>
        <beam number="1">end</beam>
        <beam number="2">end</beam>
        </note>
      <note default-x="149.13" default-y="-266.17">
        <chord />
        <pitch>
          <step>F</step>
          <alter>1</alter>
          <octave>3</octave>
          </pitch>
        <duration>1</duration>
        <tie type="start" />
        <voice>1</voice>
        <type>16th</type>
        <stem>up</stem>
        <staff>2</staff>
        <notations>
          <tied type="start" />
          </notations>
        </note>
      <note default-x="137.26" default-y="-256.17">
        <chord />
        <pitch>
          <step>A</step>
          <alter>1</alter>
          <octave>3</octave>
          </pitch>
        <duration>1</duration>
        <voice>1</voice>
        <type>16th</type>
        <accidental>sharp</accidental>
        <stem>up</stem>
        <staff>2</staff>
        </note>
      <backup>
        <duration>6</duration>
        </backup>
      <note default-x="15.80" default-y="-306.17">
        <pitch>
          <step>E</step>
          <octave>2</octave>
          </pitch>
        <duration>1</duration>
        <voice>5</voice>
        <type>16th</type>
        <stem>down</stem>
        <staff>2</staff>
        </note>
      <note default-x="15.80" default-y="-286.17">
        <chord />
        <pitch>
          <step>B</step>
          <octave>2</octave>
          </pitch>
        <duration>1</duration>
        <tie type="stop" />
        <voice>5</voice>
        <type>16th</type>
        <stem>down</stem>
        <staff>2</staff>
        <notations>
          <tied type="stop" />
          </notations>
        </note>
      <note>
        <rest />
        <duration>1</duration>
        <voice>5</voice>
        <type>16th</type>
        <staff>2</staff>
        </note>
      <note>
        <rest />
        <duration>2</duration>
        <voice>5</voice>
        <type>eighth</type>
        <staff>2</staff>
        </note>
      <note>
        <rest />
        <duration>1</duration>
        <voice>5</voice>
        <type>16th</type>
        <staff>2</staff>
        </note>
      <note default-x="137.26" default-y="-281.17">
        <pitch>
          <step>C</step>
          <alter>1</alter>
          <octave>3</octave>
          </pitch>
        <duration>1</duration>
        <voice>5</voice>
        <type>16th</type>
        <stem>down</stem>
        <staff>2</staff>
        <notations>
          <slur type="start" placement="below" number="2" />
          </notations>
        </note>
      </measure>
    <measure number="64" width="265.01">
      <note default-x="12.00" default-y="-276.17">
        <pitch>
          <step>D</step>
          <alter>1</alter>
          <octave>3</octave>
          </pitch>
        <duration>1</duration>
        <voice>1</voice>
        <type>16th</type>
        <stem>up</stem>
        <staff>2</staff>
        <notations>
          <slur type="stop" number="1" />
          </notations>
        </note>
      <note default-x="12.00" default-y="-266.17">
        <chord />
        <pitch>
          <step>F</step>
          <alter>1</alter>
          <octave>3</octave>
          </pitch>
        <duration>1</duration>
        <tie type="stop" />
        <voice>1</voice>
        <type>16th</type>
        <stem>up</stem>
        <staff>2</staff>
        <notations>
          <tied type="stop" />
          </notations>
        </note>
      <note default-x="12.00" default-y="-251.17">
        <chord />
        <pitch>
          <step>B</step>
          <octave>3</octave>
          </pitch>
        <duration>1</duration>
        <voice>1</voice>
        <type>16th</type>
        <stem>up</stem>
        <staff>2</staff>
        </note>
      <note default-x="53.90" default-y="-256.17">
        <pitch>
          <step>A</step>
          <octave>3</octave>
          </pitch>
        <duration>1</duration>
        <voice>1</voice>
        <type>16th</type>
        <accidental>natural</accidental>
        <stem>up</stem>
        <staff>2</staff>
        <beam number="1">begin</beam>
        <beam number="2">begin</beam>
        <notations>
          <slur type="start" placement="above" number="1" />
          </notations>
        </note>
      <note default-x="95.80" default-y="-266.17">
        <pitch>
          <step>F</step>
          <alter>1</alter>
          <octave>3</octave>
          </pitch>
        <duration>1</duration>
        <voice>1</voice>
        <type>16th</type>
        <stem>up</stem>
        <staff>2</staff>
        <beam number="1">continue</beam>
        <beam number="2">continue</beam>
        </note>
      <note default-x="132.70" default-y="-276.17">
        <pitch>
          <step>D</step>
          <alter>1</alter>
          <octave>3</octave>
          </pitch>
        <duration>1</duration>
        <voice>1</voice>
        <type>16th</type>
        <stem>up</stem>
        <staff>2</staff>
        <beam number="1">end</beam>
        <beam number="2">end</beam>
        </note>
      <note>
        <rest>
          <display-step>F</display-step>
          <display-octave>5</display-octave>
          </rest>
        <duration>2</duration>
        <voice>1</voice>
        <type>eighth</type>
        <staff>1</staff>
        </note>
      <backup>
        <duration>6</duration>
        </backup>
      <note default-x="12.00" default-y="-286.17">
        <pitch>
          <step>B</step>
          <octave>2</octave>
          </pitch>
        <duration>1</duration>
        <voice>5</voice>
        <type>16th</type>
        <stem>down</stem>
        <staff>2</staff>
        <notations>
          <slur type="stop" number="2" />
          </notations>
        </note>
      <note>
        <rest>
          <display-step>B</display-step>
          <display-octave>2</display-octave>
          </rest>
        <duration>1</duration>
        <voice>5</voice>
        <type>16th</type>
        <staff>2</staff>
        </note>
      <note>
        <rest>
          <display-step>G</display-step>
          <display-octave>2</display-octave>
          </rest>
        <duration>2</duration>
        <voice>5</voice>
        <type>eighth</type>
        <staff>2</staff>
        </note>
      <note default-x="161.14" default-y="-276.17">
        <grace />
        <pitch>
          <step>D</step>
          <alter>1</alter>
          <octave>3</octave>
          </pitch>
        <voice>5</voice>
        <type>16th</type>
        <stem>up</stem>
        <staff>2</staff>
        </note>
      <note default-x="179.60" default-y="-281.17">
        <pitch>
          <step>C</step>
          <alter>1</alter>
          <octave>3</octave>
          </pitch>
        <duration>1</duration>
        <voice>5</voice>
        <type>16th</type>
        <stem>down</stem>
        <staff>2</staff>
        <beam number="1">begin</beam>
        <beam number="2">begin</beam>
        </note>
      <note default-x="221.51" default-y="-286.17">
        <pitch>
          <step>B</step>
          <octave>2</octave>
          </pitch>
        <duration>1</duration>
        <tie type="start" />
        <voice>5</voice>
        <type>16th</type>
        <stem>down</stem>
        <staff>2</staff>
        <beam number="1">end</beam>
        <beam number="2">end</beam>
        <notations>
          <tied type="start" />
          <slur type="stop" number="1" />
          </notations>
        </note>
      </measure>
    <measure number="65" width="147.80">
      <note print-object="no">
        <rest />
        <duration>3</duration>
        <voice>1</voice>
        <type>eighth</type>
        <dot />
        <staff>1</staff>
        </note>
      <note default-x="80.14" default-y="-160.00">
        <pitch>
          <step>B</step>
          <octave>4</octave>
          </pitch>
        <duration>1</duration>
        <voice>1</voice>
        <type>16th</type>
        <stem>up</stem>
        <staff>1</staff>
        <beam number="1">begin</beam>
        <beam number="2">begin</beam>
        </note>
      <note default-x="101.58" default-y="-170.00">
        <pitch>
          <step>G</step>
          <alter>1</alter>
          <octave>4</octave>
          </pitch>
        <duration>1</duration>
        <voice>1</voice>
        <type>16th</type>
        <stem>up</stem>
        <staff>1</staff>
        <beam number="1">continue</beam>
        <beam number="2">continue</beam>
        </note>
      <note default-x="123.03" default-y="-180.00">
        <pitch>
          <step>E</step>
          <octave>4</octave>
          </pitch>
        <duration>1</duration>
        <voice>1</voice>
        <type>16th</type>
        <stem>up</stem>
        <staff>1</staff>
        <beam number="1">end</beam>
        <beam number="2">end</beam>
        <notations>
          <slur type="stop" number="1" />
          </notations>
        </note>
      <backup>
        <duration>6</duration>
        </backup>
      <note default-x="15.80" default-y="-271.17">
        <pitch>
          <step>E</step>
          <octave>3</octave>
          </pitch>
        <duration>1</duration>
        <voice>2</voice>
        <type>16th</type>
        <stem>up</stem>
        <staff>2</staff>
        </note>
      <note default-x="15.80" default-y="-261.17">
        <chord />
        <pitch>
          <step>G</step>
          <alter>1</alter>
          <octave>3</octave>
          </pitch>
        <duration>1</duration>
        <voice>2</voice>
        <type>16th</type>
        <stem>up</stem>
        <staff>2</staff>
        </note>
      <note default-x="37.25" default-y="-170.00">
        <pitch>
          <step>G</step>
          <alter>1</alter>
          <octave>4</octave>
          </pitch>
        <duration>1</duration>
        <voice>2</voice>
        <type>16th</type>
        <stem>down</stem>
        <staff>1</staff>
        <beam number="1">begin</beam>
        <beam number="2">begin</beam>
        <notations>
          <slur type="start" placement="above" number="1" />
          </notations>
        </note>
      <note default-x="58.69" default-y="-180.00">
        <pitch>
          <step>E</step>
          <octave>4</octave>
          </pitch>
        <duration>1</duration>
        <voice>2</voice>
        <type>16th</type>
        <stem>down</stem>
        <staff>1</staff>
        <beam number="1">continue</beam>
        <beam number="2">continue</beam>
        </note>
      <note default-x="80.14" default-y="-251.17">
        <pitch>
          <step>B</step>
          <octave>3</octave>
          </pitch>
        <duration>1</duration>
        <voice>2</voice>
        <type>16th</type>
        <stem>up</stem>
        <staff>2</staff>
        <beam number="1">continue</beam>
        <beam number="2">continue</beam>
        <notations>
          <slur type="start" placement="below" number="1" />
          </notations>
        </note>
      <note default-x="101.58" default-y="-261.17">
        <pitch>
          <step>G</step>
          <alter>1</alter>
          <octave>3</octave>
          </pitch>
        <duration>1</duration>
        <voice>2</voice>
        <type>16th</type>
        <stem>up</stem>
        <staff>2</staff>
        <beam number="1">continue</beam>
        <beam number="2">continue</beam>
        </note>
      <note default-x="123.03" default-y="-256.17">
        <pitch>
          <step>A</step>
          <octave>3</octave>
          </pitch>
        <duration>1</duration>
        <voice>2</voice>
        <type>16th</type>
        <stem>up</stem>
        <staff>2</staff>
        <beam number="1">end</beam>
        <beam number="2">end</beam>
        </note>
      <backup>
        <duration>6</duration>
        </backup>
      <note default-x="15.80" default-y="-306.17">
        <pitch>
          <step>E</step>
          <octave>2</octave>
          </pitch>
        <duration>1</duration>
        <voice>5</voice>
        <type>16th</type>
        <stem>down</stem>
        <staff>2</staff>
        </note>
      <note default-x="15.80" default-y="-286.17">
        <chord />
        <pitch>
          <step>B</step>
          <octave>2</octave>
          </pitch>
        <duration>1</duration>
        <tie type="stop" />
        <voice>5</voice>
        <type>16th</type>
        <stem>down</stem>
        <staff>2</staff>
        <notations>
          <tied type="stop" />
          </notations>
        </note>
      <note>
        <rest />
        <duration>1</duration>
        <voice>5</voice>
        <type>16th</type>
        <staff>2</staff>
        </note>
      <note>
        <rest />
        <duration>1</duration>
        <voice>5</voice>
        <type>16th</type>
        <staff>2</staff>
        </note>
      <note default-x="80.14" default-y="-251.17">
        <pitch>
          <step>B</step>
          <octave>3</octave>
          </pitch>
        <duration>1</duration>
        <voice>5</voice>
        <type>16th</type>
        <stem>down</stem>
        <staff>2</staff>
        <beam number="1">begin</beam>
        <beam number="2">begin</beam>
        </note>
      <note default-x="101.58" default-y="-261.17">
        <pitch>
          <step>G</step>
          <alter>1</alter>
          <octave>3</octave>
          </pitch>
        <duration>1</duration>
        <voice>5</voice>
        <type>16th</type>
        <stem>down</stem>
        <staff>2</staff>
        <beam number="1">continue</beam>
        <beam number="2">continue</beam>
        </note>
      <note default-x="123.03" default-y="-256.17">
        <pitch>
          <step>A</step>
          <octave>3</octave>
          </pitch>
        <duration>1</duration>
        <voice>5</voice>
        <type>16th</type>
        <stem>down</stem>
        <staff>2</staff>
        <beam number="1">end</beam>
        <beam number="2">end</beam>
        </note>
      </measure>
    <measure number="66" width="153.61">
      <note>
        <rest />
        <duration>1</duration>
        <voice>1</voice>
        <type>16th</type>
        <staff>1</staff>
        </note>
      <note default-x="35.68" default-y="-180.00">
        <pitch>
          <step>E</step>
          <octave>4</octave>
          </pitch>
        <duration>1</duration>
        <voice>1</voice>
        <type>16th</type>
        <stem>down</stem>
        <staff>1</staff>
        <beam number="1">begin</beam>
        <beam number="2">begin</beam>
        <notations>
          <slur type="start" placement="above" number="2" />
          </notations>
        </note>
      <note default-x="58.31" default-y="-195.00">
        <pitch>
          <step>B</step>
          <octave>3</octave>
          </pitch>
        <duration>1</duration>
        <voice>1</voice>
        <type>16th</type>
        <stem>down</stem>
        <staff>1</staff>
        <beam number="1">end</beam>
        <beam number="2">end</beam>
        </note>
      <note default-x="80.94" default-y="-170.00">
        <pitch>
          <step>G</step>
          <alter>1</alter>
          <octave>4</octave>
          </pitch>
        <duration>1</duration>
        <voice>1</voice>
        <type>16th</type>
        <stem>up</stem>
        <staff>1</staff>
        <beam number="1">begin</beam>
        <beam number="2">begin</beam>
        </note>
      <note default-x="103.56" default-y="-180.00">
        <pitch>
          <step>E</step>
          <octave>4</octave>
          </pitch>
        <duration>1</duration>
        <tie type="start" />
        <voice>1</voice>
        <type>16th</type>
        <stem>up</stem>
        <staff>1</staff>
        <beam number="1">continue</beam>
        <beam number="2">continue</beam>
        <notations>
          <tied type="start" />
          </notations>
        </note>
      <note default-x="128.84" default-y="-195.00">
        <pitch>
          <step>B</step>
          <octave>3</octave>
          </pitch>
        <duration>1</duration>
        <tie type="start" />
        <voice>1</voice>
        <type>16th</type>
        <stem>up</stem>
        <staff>1</staff>
        <beam number="1">end</beam>
        <beam number="2">end</beam>
        <notations>
          <tied type="start" />
          <slur type="stop" number="2" />
          </notations>
        </note>
      <backup>
        <duration>6</duration>
        </backup>
      <note print-object="no">
        <rest>
          <display-step>G</display-step>
          <display-octave>4</display-octave>
          </rest>
        <duration>1</duration>
        <voice>2</voice>
        <type>16th</type>
        <staff>1</staff>
        <notations>
          <slur type="stop" number="1" />
          </notations>
        </note>
      <note print-object="no">
        <rest />
        <duration>2</duration>
        <voice>2</voice>
        <type>eighth</type>
        <staff>1</staff>
        </note>
      <note print-object="no">
        <rest />
        <duration>1</duration>
        <voice>2</voice>
        <type>16th</type>
        <staff>1</staff>
        </note>
      <note default-x="103.56" default-y="-180.00">
        <pitch>
          <step>E</step>
          <octave>4</octave>
          </pitch>
        <duration>2</duration>
        <voice>2</voice>
        <type>eighth</type>
        <stem>down</stem>
        <staff>1</staff>
        </note>
      <backup>
        <duration>6</duration>
        </backup>
      <note default-x="13.06" default-y="-251.17">
        <pitch>
          <step>B</step>
          <octave>3</octave>
          </pitch>
        <duration>1</duration>
        <voice>5</voice>
        <type>16th</type>
        <stem>down</stem>
        <staff>2</staff>
        </note>
      <note>
        <rest />
        <duration>1</duration>
        <voice>5</voice>
        <type>16th</type>
        <staff>2</staff>
        </note>
      <note>
        <rest />
        <duration>1</duration>
        <voice>5</voice>
        <type>16th</type>
        <staff>2</staff>
        </note>
      <note default-x="80.94" default-y="-261.17">
        <pitch>
          <step>G</step>
          <alter>1</alter>
          <octave>3</octave>
          </pitch>
        <duration>1</duration>
        <voice>5</voice>
        <type>16th</type>
        <stem>down</stem>
        <staff>2</staff>
        <beam number="1">begin</beam>
        <beam number="2">begin</beam>
        <notations>
          <slur type="start" placement="below" number="1" />
          </notations>
        </note>
      <note default-x="103.56" default-y="-271.17">
        <pitch>
          <step>E</step>
          <octave>3</octave>
          </pitch>
        <duration>1</duration>
        <tie type="start" />
        <voice>5</voice>
        <type>16th</type>
        <stem>down</stem>
        <staff>2</staff>
        <beam number="1">continue</beam>
        <beam number="2">continue</beam>
        <notations>
          <tied type="start" />
          </notations>
        </note>
      <note default-x="128.84" default-y="-266.17">
        <pitch>
          <step>F</step>
          <alter>1</alter>
          <octave>3</octave>
          </pitch>
        <duration>1</duration>
        <voice>5</voice>
        <type>16th</type>
        <stem>down</stem>
        <staff>2</staff>
        <beam number="1">end</beam>
        <beam number="2">end</beam>
        </note>
      <backup>
        <duration>6</duration>
        </backup>
      <note print-object="no">
        <rest />
        <duration>1</duration>
        <voice>6</voice>
        <type>16th</type>
        <staff>2</staff>
        </note>
      <note print-object="no">
        <rest />
        <duration>1</duration>
        <voice>6</voice>
        <type>16th</type>
        <staff>2</staff>
        </note>
      <note print-object="no">
        <rest />
        <duration>1</duration>
        <voice>6</voice>
        <type>16th</type>
        <staff>2</staff>
        </note>
      <forward>
        <duration>1</duration>
        </forward>
      <note default-x="103.56" default-y="-271.17">
        <pitch>
          <step>E</step>
          <octave>3</octave>
          </pitch>
        <duration>2</duration>
        <voice>6</voice>
        <type>eighth</type>
        <stem>up</stem>
        <staff>2</staff>
        </note>
      </measure>
    <measure number="67" width="93.69">
      <note default-x="15.80" default-y="-195.00">
        <pitch>
          <step>B</step>
          <octave>3</octave>
          </pitch>
        <duration>4</duration>
        <tie type="stop" />
        <voice>1</voice>
        <type>quarter</type>
        <stem>up</stem>
        <staff>1</staff>
        <notations>
          <tied type="stop" />
          </notations>
        </note>
      <note default-x="15.80" default-y="-180.00">
        <chord />
        <pitch>
          <step>E</step>
          <octave>4</octave>
          </pitch>
        <duration>4</duration>
        <tie type="stop" />
        <voice>1</voice>
        <type>quarter</type>
        <stem>up</stem>
        <staff>1</staff>
        <notations>
          <tied type="stop" />
          </notations>
        </note>
      <note default-x="59.31" default-y="-180.00">
        <pitch>
          <step>E</step>
          <octave>4</octave>
          </pitch>
        <duration>2</duration>
        <voice>1</voice>
        <type>eighth</type>
        <stem>up</stem>
        <staff>1</staff>
        <notations>
          <slur type="start" placement="below" number="2" />
          </notations>
        </note>
      <note default-x="59.31" default-y="-170.00">
        <chord />
        <pitch>
          <step>G</step>
          <alter>1</alter>
          <octave>4</octave>
          </pitch>
        <duration>2</duration>
        <voice>1</voice>
        <type>eighth</type>
        <stem>up</stem>
        <staff>1</staff>
        </note>
      <backup>
        <duration>6</duration>
        </backup>
      <note default-x="15.80" default-y="-271.17">
        <pitch>
          <step>E</step>
          <octave>3</octave>
          </pitch>
        <duration>4</duration>
        <tie type="stop" />
        <voice>5</voice>
        <type>quarter</type>
        <stem>down</stem>
        <staff>2</staff>
        <notations>
          <tied type="stop" />
          <slur type="stop" number="1" />
          </notations>
        </note>
      <note default-x="15.80" default-y="-261.17">
        <chord />
        <pitch>
          <step>G</step>
          <alter>1</alter>
          <octave>3</octave>
          </pitch>
        <duration>4</duration>
        <voice>5</voice>
        <type>quarter</type>
        <stem>down</stem>
        <staff>2</staff>
        </note>
      <direction placement="above">
        <direction-type>
          <dynamics default-x="3.29" relative-x="4.40" relative-y="30.07">
            <pp />
            </dynamics>
          </direction-type>
        <staff>2</staff>
        <sound dynamics="36.67" />
        </direction>
      <note default-x="59.31" default-y="-271.17">
        <pitch>
          <step>E</step>
          <octave>3</octave>
          </pitch>
        <duration>2</duration>
        <voice>5</voice>
        <type>eighth</type>
        <stem>down</stem>
        <staff>2</staff>
        <notations>
          <slur type="start" placement="above" number="1" />
          </notations>
        </note>
      <note default-x="59.31" default-y="-251.17">
        <chord />
        <pitch>
          <step>B</step>
          <octave>3</octave>
          </pitch>
        <duration>2</duration>
        <voice>5</voice>
        <type>eighth</type>
        <stem>down</stem>
        <staff>2</staff>
        </note>
      </measure>
    <measure number="68" width="120.64">
      <note default-x="32.00" default-y="-205.00">
        <pitch>
          <step>G</step>
          <alter>1</alter>
          <octave>3</octave>
          </pitch>
        <duration>6</duration>
        <voice>1</voice>
        <type>quarter</type>
        <dot />
        <stem>up</stem>
        <staff>1</staff>
        <notations>
          <slur type="stop" number="2" />
          <fermata type="upright" relative-y="10.00" />
          </notations>
        </note>
      <note default-x="32.00" default-y="-180.00">
        <chord />
        <pitch>
          <step>E</step>
          <octave>4</octave>
          </pitch>
        <duration>6</duration>
        <voice>1</voice>
        <type>quarter</type>
        <dot />
        <stem>up</stem>
        <staff>1</staff>
        </note>
      <backup>
        <duration>6</duration>
        </backup>
      <note default-x="32.00" default-y="-306.17">
        <pitch>
          <step>E</step>
          <octave>2</octave>
          </pitch>
        <duration>6</duration>
        <voice>5</voice>
        <type>quarter</type>
        <dot />
        <stem>up</stem>
        <staff>2</staff>
        <notations>
          <slur type="stop" number="1" />
          <fermata type="upright" default-y="7.95" relative-y="10.00" />
          </notations>
        </note>
      <note default-x="32.00" default-y="-286.17">
        <chord />
        <pitch>
          <step>B</step>
          <octave>2</octave>
          </pitch>
        <duration>6</duration>
        <voice>5</voice>
        <type>quarter</type>
        <dot />
        <stem>up</stem>
        <staff>2</staff>
        </note>
      <barline location="right">
        <bar-style>light-heavy</bar-style>
        </barline>
      </measure>
    </part></score-partwise>
