<?xml version='1.0' encoding='utf-8'?>
<score-partwise version="3.1"><part-list><score-part id="P2"><part-name>Piano</part-name></score-part></part-list><part id="P2"><measure number="196" width="287.32">
      <print>
        <staff-layout number="1">
          <staff-distance>193.66</staff-distance>
          </staff-layout>
        <staff-layout number="2">
          <staff-distance>91.29</staff-distance>
          </staff-layout>
        </print>
      <attributes><divisions>60</divisions>
        <key>
          <fifths>2</fifths>
          </key>
        <staves>2</staves>
        <clef number="1">
          <sign>G</sign>
          <line>2</line>
          </clef>
        <clef number="2">
          <sign>F</sign>
          <line>4</line>
          </clef>
        </attributes><note default-x="104.21" default-y="-288.66">
        <pitch>
          <step>B</step>
          <octave>3</octave>
          </pitch>
        <duration>20</duration>
        <voice>1</voice>
        <type>eighth</type>
        <time-modification>
          <actual-notes>3</actual-notes>
          <normal-notes>2</normal-notes>
          </time-modification>
        <stem>up</stem>
        <staff>1</staff>
        <beam number="1">begin</beam>
        <notations>
          <tuplet type="start" bracket="no" />
          <slur type="start" placement="above" number="1" />
          </notations>
        </note>
      <note default-x="133.25" default-y="-278.66">
        <pitch>
          <step>D</step>
          <octave>4</octave>
          </pitch>
        <duration>20</duration>
        <voice>1</voice>
        <type>eighth</type>
        <time-modification>
          <actual-notes>3</actual-notes>
          <normal-notes>2</normal-notes>
          </time-modification>
        <stem>up</stem>
        <staff>1</staff>
        <beam number="1">continue</beam>
        </note>
      <note default-x="162.30" default-y="-268.66">
        <pitch>
          <step>F</step>
          <octave>4</octave>
          </pitch>
        <duration>20</duration>
        <voice>1</voice>
        <type>eighth</type>
        <accidental>natural</accidental>
        <time-modification>
          <actual-notes>3</actual-notes>
          <normal-notes>2</normal-notes>
          </time-modification>
        <stem>up</stem>
        <staff>1</staff>
        <beam number="1">end</beam>
        <notations>
          <tuplet type="stop" />
          </notations>
        </note>
      <note default-x="191.34" default-y="-253.66">
        <pitch>
          <step>B</step>
          <octave>4</octave>
          </pitch>
        <duration>20</duration>
        <voice>1</voice>
        <type>eighth</type>
        <time-modification>
          <actual-notes>3</actual-notes>
          <normal-notes>2</normal-notes>
          </time-modification>
        <stem>down</stem>
        <staff>1</staff>
        <beam number="1">begin</beam>
        <notations>
          <tuplet type="start" bracket="no" />
          </notations>
        </note>
      <note default-x="220.38" default-y="-243.66">
        <pitch>
          <step>D</step>
          <octave>5</octave>
          </pitch>
        <duration>20</duration>
        <voice>1</voice>
        <type>eighth</type>
        <time-modification>
          <actual-notes>3</actual-notes>
          <normal-notes>2</normal-notes>
          </time-modification>
        <stem>down</stem>
        <staff>1</staff>
        <beam number="1">continue</beam>
        </note>
      <note default-x="256.68" default-y="-233.66">
        <pitch>
          <step>F</step>
          <octave>5</octave>
          </pitch>
        <duration>20</duration>
        <voice>1</voice>
        <type>eighth</type>
        <accidental>natural</accidental>
        <time-modification>
          <actual-notes>3</actual-notes>
          <normal-notes>2</normal-notes>
          </time-modification>
        <stem>down</stem>
        <staff>1</staff>
        <beam number="1">end</beam>
        <notations>
          <tuplet type="stop" />
          </notations>
        </note>
      <backup>
        <duration>120</duration>
        </backup>
      <note default-x="103.85" default-y="-404.95">
        <pitch>
          <step>G</step>
          <alter>1</alter>
          <octave>2</octave>
          </pitch>
        <duration>120</duration>
        <voice>5</voice>
        <type>half</type>
        <accidental>sharp</accidental>
        <stem>up</stem>
        <staff>2</staff>
        </note>
      <note default-x="103.85" default-y="-384.95">
        <chord />
        <pitch>
          <step>D</step>
          <octave>3</octave>
          </pitch>
        <duration>120</duration>
        <voice>5</voice>
        <type>half</type>
        <stem>up</stem>
        <staff>2</staff>
        </note>
      <note default-x="103.85" default-y="-374.95">
        <chord />
        <pitch>
          <step>F</step>
          <octave>3</octave>
          </pitch>
        <duration>120</duration>
        <voice>5</voice>
        <type>half</type>
        <accidental>natural</accidental>
        <stem>up</stem>
        <staff>2</staff>
        </note>
      </measure>
    <measure number="197" width="204.86">
      <note default-x="23.95" default-y="-218.66">
        <pitch>
          <step>B</step>
          <octave>5</octave>
          </pitch>
        <duration>20</duration>
        <voice>1</voice>
        <type>eighth</type>
        <time-modification>
          <actual-notes>3</actual-notes>
          <normal-notes>2</normal-notes>
          </time-modification>
        <stem>down</stem>
        <staff>1</staff>
        <beam number="1">begin</beam>
        <notations>
          <tuplet type="start" bracket="no" />
          </notations>
        </note>
      <note default-x="52.64" default-y="-233.66">
        <pitch>
          <step>F</step>
          <octave>5</octave>
          </pitch>
        <duration>20</duration>
        <voice>1</voice>
        <type>eighth</type>
        <accidental>natural</accidental>
        <time-modification>
          <actual-notes>3</actual-notes>
          <normal-notes>2</normal-notes>
          </time-modification>
        <stem>down</stem>
        <staff>1</staff>
        <beam number="1">continue</beam>
        </note>
      <note default-x="81.33" default-y="-243.66">
        <pitch>
          <step>D</step>
          <octave>5</octave>
          </pitch>
        <duration>20</duration>
        <voice>1</voice>
        <type>eighth</type>
        <time-modification>
          <actual-notes>3</actual-notes>
          <normal-notes>2</normal-notes>
          </time-modification>
        <stem>down</stem>
        <staff>1</staff>
        <beam number="1">end</beam>
        <notations>
          <tuplet type="stop" />
          </notations>
        </note>
      <note default-x="110.02" default-y="-253.66">
        <pitch>
          <step>B</step>
          <octave>4</octave>
          </pitch>
        <duration>20</duration>
        <voice>1</voice>
        <type>eighth</type>
        <time-modification>
          <actual-notes>3</actual-notes>
          <normal-notes>2</normal-notes>
          </time-modification>
        <stem>down</stem>
        <staff>1</staff>
        <beam number="1">begin</beam>
        <notations>
          <tuplet type="start" bracket="no" />
          </notations>
        </note>
      <note default-x="138.71" default-y="-243.66">
        <pitch>
          <step>D</step>
          <octave>5</octave>
          </pitch>
        <duration>20</duration>
        <voice>1</voice>
        <type>eighth</type>
        <time-modification>
          <actual-notes>3</actual-notes>
          <normal-notes>2</normal-notes>
          </time-modification>
        <stem>down</stem>
        <staff>1</staff>
        <beam number="1">continue</beam>
        </note>
      <note default-x="174.57" default-y="-233.66">
        <pitch>
          <step>F</step>
          <octave>5</octave>
          </pitch>
        <duration>20</duration>
        <voice>1</voice>
        <type>eighth</type>
        <time-modification>
          <actual-notes>3</actual-notes>
          <normal-notes>2</normal-notes>
          </time-modification>
        <stem>down</stem>
        <staff>1</staff>
        <beam number="1">end</beam>
        <notations>
          <tuplet type="stop" />
          <slur type="stop" number="1" />
          </notations>
        </note>
      <backup>
        <duration>120</duration>
        </backup>
      <note default-x="23.59" default-y="-369.95">
        <pitch>
          <step>G</step>
          <alter>1</alter>
          <octave>3</octave>
          </pitch>
        <duration>120</duration>
        <voice>5</voice>
        <type>half</type>
        <accidental>sharp</accidental>
        <stem>down</stem>
        <staff>2</staff>
        </note>
      <note default-x="23.59" default-y="-349.95">
        <chord />
        <pitch>
          <step>D</step>
          <octave>4</octave>
          </pitch>
        <duration>120</duration>
        <voice>5</voice>
        <type>half</type>
        <stem>down</stem>
        <staff>2</staff>
        </note>
      <note default-x="23.59" default-y="-339.95">
        <chord />
        <pitch>
          <step>F</step>
          <octave>4</octave>
          </pitch>
        <duration>120</duration>
        <voice>5</voice>
        <type>half</type>
        <accidental>natural</accidental>
        <stem>down</stem>
        <staff>2</staff>
        </note>
      </measure>
    <measure number="198" width="189.19">
      <note default-x="23.95" default-y="-218.66">
        <pitch>
          <step>B</step>
          <octave>5</octave>
          </pitch>
        <duration>20</duration>
        <voice>1</voice>
        <type>eighth</type>
        <time-modification>
          <actual-notes>3</actual-notes>
          <normal-notes>2</normal-notes>
          </time-modification>
        <stem>down</stem>
        <staff>1</staff>
        <beam number="1">begin</beam>
        <notations>
          <tuplet type="start" bracket="no" />
          </notations>
        </note>
      <note default-x="52.22" default-y="-233.66">
        <pitch>
          <step>F</step>
          <octave>5</octave>
          </pitch>
        <duration>20</duration>
        <voice>1</voice>
        <type>eighth</type>
        <accidental>natural</accidental>
        <time-modification>
          <actual-notes>3</actual-notes>
          <normal-notes>2</normal-notes>
          </time-modification>
        <stem>down</stem>
        <staff>1</staff>
        <beam number="1">continue</beam>
        </note>
      <note default-x="79.29" default-y="-243.66">
        <pitch>
          <step>D</step>
          <octave>5</octave>
          </pitch>
        <duration>20</duration>
        <voice>1</voice>
        <type>eighth</type>
        <time-modification>
          <actual-notes>3</actual-notes>
          <normal-notes>2</normal-notes>
          </time-modification>
        <stem>down</stem>
        <staff>1</staff>
        <beam number="1">end</beam>
        <notations>
          <tuplet type="stop" />
          </notations>
        </note>
      <note default-x="106.37" default-y="-253.66">
        <pitch>
          <step>B</step>
          <octave>4</octave>
          </pitch>
        <duration>20</duration>
        <voice>1</voice>
        <type>eighth</type>
        <time-modification>
          <actual-notes>3</actual-notes>
          <normal-notes>2</normal-notes>
          </time-modification>
        <stem>down</stem>
        <staff>1</staff>
        <beam number="1">begin</beam>
        <notations>
          <tuplet type="start" bracket="no" />
          </notations>
        </note>
      <note default-x="133.44" default-y="-243.66">
        <pitch>
          <step>D</step>
          <octave>5</octave>
          </pitch>
        <duration>20</duration>
        <voice>1</voice>
        <type>eighth</type>
        <time-modification>
          <actual-notes>3</actual-notes>
          <normal-notes>2</normal-notes>
          </time-modification>
        <stem>down</stem>
        <staff>1</staff>
        <beam number="1">continue</beam>
        </note>
      <note default-x="160.52" default-y="-233.66">
        <pitch>
          <step>F</step>
          <octave>5</octave>
          </pitch>
        <duration>20</duration>
        <voice>1</voice>
        <type>eighth</type>
        <time-modification>
          <actual-notes>3</actual-notes>
          <normal-notes>2</normal-notes>
          </time-modification>
        <stem>down</stem>
        <staff>1</staff>
        <beam number="1">end</beam>
        <notations>
          <tuplet type="stop" />
          </notations>
        </note>
      <backup>
        <duration>120</duration>
        </backup>
      <direction placement="below">
        <direction-type>
          <dynamics default-x="3.29" default-y="-40.00" relative-y="-40.00">
            <pp />
            </dynamics>
          </direction-type>
        <staff>2</staff>
        <sound dynamics="36.67" />
        </direction>
      <note default-x="23.59" default-y="-369.95">
        <pitch>
          <step>G</step>
          <alter>1</alter>
          <octave>3</octave>
          </pitch>
        <duration>120</duration>
        <tie type="start" />
        <voice>5</voice>
        <type>half</type>
        <accidental>sharp</accidental>
        <stem>down</stem>
        <staff>2</staff>
        <notations>
          <tied type="start" />
          </notations>
        </note>
      <note default-x="23.59" default-y="-349.95">
        <chord />
        <pitch>
          <step>D</step>
          <octave>4</octave>
          </pitch>
        <duration>120</duration>
        <tie type="start" />
        <voice>5</voice>
        <type>half</type>
        <stem>down</stem>
        <staff>2</staff>
        <notations>
          <tied type="start" />
          </notations>
        </note>
      <note default-x="23.59" default-y="-339.95">
        <chord />
        <pitch>
          <step>F</step>
          <octave>4</octave>
          </pitch>
        <duration>120</duration>
        <tie type="start" />
        <voice>5</voice>
        <type>half</type>
        <accidental>natural</accidental>
        <stem>down</stem>
        <staff>2</staff>
        <notations>
          <tied type="start" />
          </notations>
        </note>
      </measure>
    <measure number="199" width="159.26">
      <note default-x="23.23" default-y="-218.66">
        <pitch>
          <step>B</step>
          <octave>5</octave>
          </pitch>
        <duration>30</duration>
        <voice>1</voice>
        <type>eighth</type>
        <stem>down</stem>
        <staff>1</staff>
        </note>
      <note>
        <rest />
        <duration>30</duration>
        <voice>1</voice>
        <type>eighth</type>
        <staff>1</staff>
        </note>
      <note>
        <rest />
        <duration>60</duration>
        <voice>1</voice>
        <type>quarter</type>
        <staff>1</staff>
        <notations>
          <fermata type="upright" relative-y="10.00" />
          </notations>
        </note>
      <backup>
        <duration>120</duration>
        </backup>
      <note default-x="23.23" default-y="-369.95">
        <pitch>
          <step>G</step>
          <alter>1</alter>
          <octave>3</octave>
          </pitch>
        <duration>30</duration>
        <tie type="stop" />
        <voice>5</voice>
        <type>eighth</type>
        <accidental>sharp</accidental>
        <stem>down</stem>
        <staff>2</staff>
        <notations>
          <tied type="stop" />
          </notations>
        </note>
      <note default-x="23.23" default-y="-349.95">
        <chord />
        <pitch>
          <step>D</step>
          <octave>4</octave>
          </pitch>
        <duration>30</duration>
        <tie type="stop" />
        <voice>5</voice>
        <type>eighth</type>
        <stem>down</stem>
        <staff>2</staff>
        <notations>
          <tied type="stop" />
          </notations>
        </note>
      <note default-x="23.23" default-y="-339.95">
        <chord />
        <pitch>
          <step>F</step>
          <octave>4</octave>
          </pitch>
        <duration>30</duration>
        <tie type="stop" />
        <voice>5</voice>
        <type>eighth</type>
        <accidental>natural</accidental>
        <stem>down</stem>
        <staff>2</staff>
        <notations>
          <tied type="stop" />
          </notations>
        </note>
      <direction placement="below">
        <direction-type>
          <pedal type="stop" line="yes" />
          </direction-type>
        <staff>2</staff>
        </direction>
      <direction placement="below">
        <direction-type>
          <dashes type="stop" number="1" />
          </direction-type>
        <staff>2</staff>
        </direction>
      <note>
        <rest />
        <duration>30</duration>
        <voice>5</voice>
        <type>eighth</type>
        <staff>2</staff>
        </note>
      <note>
        <rest />
        <duration>60</duration>
        <voice>5</voice>
        <type>quarter</type>
        <staff>2</staff>
        <notations>
          <fermata type="upright" relative-y="10.00" />
          </notations>
        </note>
      </measure>
    <measure number="200" width="120.19">
      <direction placement="below">
        <direction-type>
          <dynamics default-x="3.29" default-y="-40.00" relative-x="6.57" relative-y="-56.72">
            <ff />
            </dynamics>
          </direction-type>
        <staff>1</staff>
        <sound dynamics="124.44" />
        </direction>
      <note default-x="14.00" default-y="-243.66">
        <pitch>
          <step>D</step>
          <octave>5</octave>
          </pitch>
        <duration>60</duration>
        <voice>1</voice>
        <type>quarter</type>
        <stem>down</stem>
        <staff>1</staff>
        </note>
      <note default-x="25.87" default-y="-238.66">
        <chord />
        <pitch>
          <step>E</step>
          <octave>5</octave>
          </pitch>
        <duration>60</duration>
        <voice>1</voice>
        <type>quarter</type>
        <stem>down</stem>
        <staff>1</staff>
        </note>
      <note default-x="14.00" default-y="-228.66">
        <chord />
        <pitch>
          <step>G</step>
          <octave>5</octave>
          </pitch>
        <duration>60</duration>
        <voice>1</voice>
        <type>quarter</type>
        <accidental>natural</accidental>
        <stem>down</stem>
        <staff>1</staff>
        </note>
      <note default-x="25.87" default-y="-223.66">
        <chord />
        <pitch>
          <step>A</step>
          <octave>5</octave>
          </pitch>
        <duration>60</duration>
        <voice>1</voice>
        <type>quarter</type>
        <stem>down</stem>
        <staff>1</staff>
        </note>
      <note>
        <rest />
        <duration>60</duration>
        <voice>1</voice>
        <type>quarter</type>
        <staff>1</staff>
        </note>
      <backup>
        <duration>120</duration>
        </backup>
      <note default-x="25.87" default-y="-399.95">
        <pitch>
          <step>A</step>
          <octave>2</octave>
          </pitch>
        <duration>60</duration>
        <voice>5</voice>
        <type>quarter</type>
        <stem>down</stem>
        <staff>2</staff>
        </note>
      <note default-x="25.87" default-y="-364.95">
        <chord />
        <pitch>
          <step>A</step>
          <octave>3</octave>
          </pitch>
        <duration>60</duration>
        <voice>5</voice>
        <type>quarter</type>
        <stem>down</stem>
        <staff>2</staff>
        </note>
      <note>
        <rest />
        <duration>60</duration>
        <voice>5</voice>
        <type>quarter</type>
        <staff>2</staff>
        </note>
      </measure>
    <measure number="201" width="138.97">
      <note default-x="13.80" default-y="-273.66">
        <pitch>
          <step>E</step>
          <octave>4</octave>
          </pitch>
        <duration>60</duration>
        <voice>1</voice>
        <type>quarter</type>
        <stem>up</stem>
        <staff>1</staff>
        </note>
      <note default-x="13.80" default-y="-263.66">
        <chord />
        <pitch>
          <step>G</step>
          <octave>4</octave>
          </pitch>
        <duration>60</duration>
        <voice>1</voice>
        <type>quarter</type>
        <stem>up</stem>
        <staff>1</staff>
        </note>
      <note default-x="25.67" default-y="-258.66">
        <chord />
        <pitch>
          <step>A</step>
          <octave>4</octave>
          </pitch>
        <duration>60</duration>
        <voice>1</voice>
        <type>quarter</type>
        <stem>up</stem>
        <staff>1</staff>
        </note>
      <note default-x="13.80" default-y="-248.66">
        <chord />
        <pitch>
          <step>C</step>
          <alter>1</alter>
          <octave>5</octave>
          </pitch>
        <duration>60</duration>
        <voice>1</voice>
        <type>quarter</type>
        <stem>up</stem>
        <staff>1</staff>
        </note>
      <note>
        <rest />
        <duration>60</duration>
        <voice>1</voice>
        <type>quarter</type>
        <staff>1</staff>
        <notations>
          <fermata type="upright" relative-y="10.00" />
          </notations>
        </note>
      <backup>
        <duration>120</duration>
        </backup>
      <note default-x="13.80" default-y="-434.95">
        <pitch>
          <step>A</step>
          <octave>1</octave>
          </pitch>
        <duration>60</duration>
        <voice>5</voice>
        <type>quarter</type>
        <stem>up</stem>
        <staff>2</staff>
        </note>
      <note default-x="13.80" default-y="-399.95">
        <chord />
        <pitch>
          <step>A</step>
          <octave>2</octave>
          </pitch>
        <duration>60</duration>
        <voice>5</voice>
        <type>quarter</type>
        <stem>up</stem>
        <staff>2</staff>
        </note>
      <note>
        <rest />
        <duration>60</duration>
        <voice>5</voice>
        <type>quarter</type>
        <staff>2</staff>
        <notations>
          <fermata type="upright" relative-y="10.00" />
          </notations>
        </note>
      </measure>
    <measure number="202" width="201.20">
      <note default-x="17.23" default-y="-278.66">
        <pitch>
          <step>D</step>
          <octave>4</octave>
          </pitch>
        <duration>45</duration>
        <voice>1</voice>
        <type>eighth</type>
        <dot />
        <stem>down</stem>
        <staff>1</staff>
        <beam number="1">begin</beam>
        </note>
      <note default-x="17.23" default-y="-268.66">
        <chord />
        <pitch>
          <step>F</step>
          <alter>1</alter>
          <octave>4</octave>
          </pitch>
        <duration>45</duration>
        <voice>1</voice>
        <type>eighth</type>
        <dot />
        <accidental>sharp</accidental>
        <stem>down</stem>
        <staff>1</staff>
        </note>
      <note default-x="17.23" default-y="-258.66">
        <chord />
        <pitch>
          <step>A</step>
          <octave>4</octave>
          </pitch>
        <duration>45</duration>
        <voice>1</voice>
        <type>eighth</type>
        <dot />
        <stem>down</stem>
        <staff>1</staff>
        </note>
      <note default-x="17.23" default-y="-243.66">
        <chord />
        <pitch>
          <step>D</step>
          <octave>5</octave>
          </pitch>
        <duration>45</duration>
        <voice>1</voice>
        <type>eighth</type>
        <dot />
        <stem>down</stem>
        <staff>1</staff>
        </note>
      <note default-x="85.22" default-y="-233.66">
        <pitch>
          <step>F</step>
          <alter>1</alter>
          <octave>5</octave>
          </pitch>
        <duration>15</duration>
        <voice>1</voice>
        <type>16th</type>
        <stem>down</stem>
        <staff>1</staff>
        <beam number="1">end</beam>
        <beam number="2">backward hook</beam>
        </note>
      <note default-x="108.42" default-y="-233.66">
        <pitch>
          <step>F</step>
          <alter>1</alter>
          <octave>5</octave>
          </pitch>
        <duration>45</duration>
        <voice>1</voice>
        <type>eighth</type>
        <dot />
        <stem>down</stem>
        <staff>1</staff>
        <beam number="1">begin</beam>
        </note>
      <note default-x="176.40" default-y="-223.66">
        <pitch>
          <step>A</step>
          <octave>5</octave>
          </pitch>
        <duration>15</duration>
        <voice>1</voice>
        <type>16th</type>
        <stem>down</stem>
        <staff>1</staff>
        <beam number="1">end</beam>
        <beam number="2">backward hook</beam>
        </note>
      <backup>
        <duration>120</duration>
        </backup>
      <direction placement="above">
        <direction-type>
          <dynamics default-x="6.58" relative-x="4.37" relative-y="31.49">
            <ff />
            </dynamics>
          </direction-type>
        <staff>2</staff>
        <sound dynamics="124.44" />
        </direction>
      <direction placement="below">
        <direction-type>
          <pedal type="start" line="yes" default-y="-92.04" />
          </direction-type>
        <staff>2</staff>
        </direction>
      <note default-x="17.23" default-y="-419.95">
        <pitch>
          <step>D</step>
          <octave>2</octave>
          </pitch>
        <duration>20</duration>
        <voice>5</voice>
        <type>eighth</type>
        <time-modification>
          <actual-notes>3</actual-notes>
          <normal-notes>2</normal-notes>
          </time-modification>
        <stem>up</stem>
        <staff>2</staff>
        <beam number="1">begin</beam>
        <notations>
          <tuplet type="start" bracket="no" />
          </notations>
        </note>
      <note default-x="43.39" default-y="-399.95">
        <pitch>
          <step>A</step>
          <octave>2</octave>
          </pitch>
        <duration>20</duration>
        <voice>5</voice>
        <type>eighth</type>
        <time-modification>
          <actual-notes>3</actual-notes>
          <normal-notes>2</normal-notes>
          </time-modification>
        <stem>up</stem>
        <staff>2</staff>
        <beam number="1">continue</beam>
        </note>
      <note default-x="69.55" default-y="-384.95">
        <pitch>
          <step>D</step>
          <octave>3</octave>
          </pitch>
        <duration>20</duration>
        <voice>5</voice>
        <type>eighth</type>
        <time-modification>
          <actual-notes>3</actual-notes>
          <normal-notes>2</normal-notes>
          </time-modification>
        <stem>up</stem>
        <staff>2</staff>
        <beam number="1">end</beam>
        <notations>
          <tuplet type="stop" />
          </notations>
        </note>
      <note default-x="108.42" default-y="-374.95">
        <pitch>
          <step>F</step>
          <alter>1</alter>
          <octave>3</octave>
          </pitch>
        <duration>20</duration>
        <voice>5</voice>
        <type>eighth</type>
        <time-modification>
          <actual-notes>3</actual-notes>
          <normal-notes>2</normal-notes>
          </time-modification>
        <stem>up</stem>
        <staff>2</staff>
        <beam number="1">begin</beam>
        <notations>
          <tuplet type="start" bracket="no" />
          </notations>
        </note>
      <note default-x="134.58" default-y="-384.95">
        <pitch>
          <step>D</step>
          <octave>3</octave>
          </pitch>
        <duration>20</duration>
        <voice>5</voice>
        <type>eighth</type>
        <time-modification>
          <actual-notes>3</actual-notes>
          <normal-notes>2</normal-notes>
          </time-modification>
        <stem>up</stem>
        <staff>2</staff>
        <beam number="1">continue</beam>
        </note>
      <note default-x="160.74" default-y="-399.95">
        <pitch>
          <step>A</step>
          <octave>2</octave>
          </pitch>
        <duration>20</duration>
        <voice>5</voice>
        <type>eighth</type>
        <time-modification>
          <actual-notes>3</actual-notes>
          <normal-notes>2</normal-notes>
          </time-modification>
        <stem>up</stem>
        <staff>2</staff>
        <beam number="1">end</beam>
        <notations>
          <tuplet type="stop" />
          </notations>
        </note>
      </measure>
    <measure number="203" width="182.11">
      <note default-x="13.80" default-y="-243.66">
        <pitch>
          <step>D</step>
          <octave>5</octave>
          </pitch>
        <duration>45</duration>
        <voice>1</voice>
        <type>eighth</type>
        <dot />
        <stem>down</stem>
        <staff>1</staff>
        <beam number="1">begin</beam>
        </note>
      <note default-x="13.80" default-y="-233.66">
        <chord />
        <pitch>
          <step>F</step>
          <alter>1</alter>
          <octave>5</octave>
          </pitch>
        <duration>45</duration>
        <voice>1</voice>
        <type>eighth</type>
        <dot />
        <stem>down</stem>
        <staff>1</staff>
        </note>
      <note default-x="13.80" default-y="-223.66">
        <chord />
        <pitch>
          <step>A</step>
          <octave>5</octave>
          </pitch>
        <duration>45</duration>
        <voice>1</voice>
        <type>eighth</type>
        <dot />
        <stem>down</stem>
        <staff>1</staff>
        </note>
      <note default-x="80.78" default-y="-233.66">
        <pitch>
          <step>F</step>
          <alter>1</alter>
          <octave>5</octave>
          </pitch>
        <duration>15</duration>
        <voice>1</voice>
        <type>16th</type>
        <stem>down</stem>
        <staff>1</staff>
        <beam number="1">end</beam>
        <beam number="2">backward hook</beam>
        </note>
      <note default-x="103.53" default-y="-233.66">
        <pitch>
          <step>F</step>
          <alter>1</alter>
          <octave>5</octave>
          </pitch>
        <duration>20</duration>
        <voice>1</voice>
        <type>eighth</type>
        <time-modification>
          <actual-notes>3</actual-notes>
          <normal-notes>2</normal-notes>
          </time-modification>
        <stem>down</stem>
        <staff>1</staff>
        <beam number="1">begin</beam>
        <notations>
          <tuplet type="start" bracket="no" />
          </notations>
        </note>
      <note default-x="129.19" default-y="-243.66">
        <pitch>
          <step>D</step>
          <octave>5</octave>
          </pitch>
        <duration>20</duration>
        <voice>1</voice>
        <type>eighth</type>
        <time-modification>
          <actual-notes>3</actual-notes>
          <normal-notes>2</normal-notes>
          </time-modification>
        <stem>down</stem>
        <staff>1</staff>
        <beam number="1">continue</beam>
        </note>
      <note default-x="154.85" default-y="-258.66">
        <pitch>
          <step>A</step>
          <octave>4</octave>
          </pitch>
        <duration>20</duration>
        <voice>1</voice>
        <type>eighth</type>
        <time-modification>
          <actual-notes>3</actual-notes>
          <normal-notes>2</normal-notes>
          </time-modification>
        <stem>down</stem>
        <staff>1</staff>
        <beam number="1">end</beam>
        <notations>
          <tuplet type="stop" />
          </notations>
        </note>
      <backup>
        <duration>120</duration>
        </backup>
      <note default-x="13.80" default-y="-419.95">
        <pitch>
          <step>D</step>
          <octave>2</octave>
          </pitch>
        <duration>20</duration>
        <voice>5</voice>
        <type>eighth</type>
        <time-modification>
          <actual-notes>3</actual-notes>
          <normal-notes>2</normal-notes>
          </time-modification>
        <stem>up</stem>
        <staff>2</staff>
        <beam number="1">begin</beam>
        <notations>
          <tuplet type="start" bracket="no" />
          </notations>
        </note>
      <note default-x="39.46" default-y="-399.95">
        <pitch>
          <step>A</step>
          <octave>2</octave>
          </pitch>
        <duration>20</duration>
        <voice>5</voice>
        <type>eighth</type>
        <time-modification>
          <actual-notes>3</actual-notes>
          <normal-notes>2</normal-notes>
          </time-modification>
        <stem>up</stem>
        <staff>2</staff>
        <beam number="1">continue</beam>
        </note>
      <note default-x="65.11" default-y="-384.95">
        <pitch>
          <step>D</step>
          <octave>3</octave>
          </pitch>
        <duration>20</duration>
        <voice>5</voice>
        <type>eighth</type>
        <time-modification>
          <actual-notes>3</actual-notes>
          <normal-notes>2</normal-notes>
          </time-modification>
        <stem>up</stem>
        <staff>2</staff>
        <beam number="1">end</beam>
        <notations>
          <tuplet type="stop" />
          </notations>
        </note>
      <note default-x="103.53" default-y="-374.95">
        <pitch>
          <step>F</step>
          <alter>1</alter>
          <octave>3</octave>
          </pitch>
        <duration>20</duration>
        <voice>5</voice>
        <type>eighth</type>
        <time-modification>
          <actual-notes>3</actual-notes>
          <normal-notes>2</normal-notes>
          </time-modification>
        <stem>up</stem>
        <staff>2</staff>
        <beam number="1">begin</beam>
        <notations>
          <tuplet type="start" bracket="no" />
          </notations>
        </note>
      <note default-x="129.19" default-y="-384.95">
        <pitch>
          <step>D</step>
          <octave>3</octave>
          </pitch>
        <duration>20</duration>
        <voice>5</voice>
        <type>eighth</type>
        <time-modification>
          <actual-notes>3</actual-notes>
          <normal-notes>2</normal-notes>
          </time-modification>
        <stem>up</stem>
        <staff>2</staff>
        <beam number="1">continue</beam>
        </note>
      <note default-x="154.85" default-y="-399.95">
        <pitch>
          <step>A</step>
          <octave>2</octave>
          </pitch>
        <duration>20</duration>
        <voice>5</voice>
        <type>eighth</type>
        <time-modification>
          <actual-notes>3</actual-notes>
          <normal-notes>2</normal-notes>
          </time-modification>
        <stem>up</stem>
        <staff>2</staff>
        <beam number="1">end</beam>
        <notations>
          <tuplet type="stop" />
          </notations>
        </note>
      </measure>
    </part></score-partwise>
