<?xml version='1.0' encoding='utf-8'?>
<score-partwise version="3.1"><part-list><score-part id="P2"><part-name>Piano</part-name></score-part></part-list><part id="P2"><measure number="139" width="292.57">
      <print>
        <staff-layout number="1">
          <staff-distance>108.72</staff-distance>
          </staff-layout>
        <staff-layout number="2">
          <staff-distance>80.00</staff-distance>
          </staff-layout>
        </print>
      <attributes><divisions>4</divisions>
        <key>
          <fifths>2</fifths>
          </key>
        <staves>2</staves>
        <clef number="1">
          <sign>G</sign>
          <line>2</line>
          </clef>
        <clef number="2">
          <sign>F</sign>
          <line>4</line>
          </clef>
        </attributes><direction placement="below">
        <direction-type>
          <dynamics default-x="3.29" default-y="-40.00" relative-y="-40.00">
            <f />
            </dynamics>
          </direction-type>
        <staff>1</staff>
        <sound dynamics="106.67" />
        </direction>
      <direction placement="below">
        <direction-type>
          <wedge type="crescendo" number="1" default-y="-70.07" relative-x="23.02" />
          </direction-type>
        <staff>1</staff>
        </direction>
      <note default-x="102.70" default-y="-173.72">
        <pitch>
          <step>A</step>
          <octave>4</octave>
          </pitch>
        <duration>2</duration>
        <voice>1</voice>
        <type>eighth</type>
        <stem>down</stem>
        <staff>1</staff>
        <beam number="1">begin</beam>
        <notations>
          <slur type="start" placement="above" number="1" />
          </notations>
        </note>
      <direction placement="below">
        <direction-type>
          <words default-y="-40.00" relative-x="-3.29" relative-y="-54.73" font-weight="bold" font-size="12">a Tempo</words>
          </direction-type>
        <staff>1</staff>
        </direction>
      <note default-x="134.08" default-y="-158.72">
        <pitch>
          <step>D</step>
          <octave>5</octave>
          </pitch>
        <duration>2</duration>
        <voice>1</voice>
        <type>eighth</type>
        <stem>down</stem>
        <staff>1</staff>
        <beam number="1">continue</beam>
        </note>
      <note default-x="165.46" default-y="-148.72">
        <pitch>
          <step>F</step>
          <alter>1</alter>
          <octave>5</octave>
          </pitch>
        <duration>2</duration>
        <voice>1</voice>
        <type>eighth</type>
        <stem>down</stem>
        <staff>1</staff>
        <beam number="1">continue</beam>
        </note>
      <note default-x="196.84" default-y="-138.72">
        <pitch>
          <step>A</step>
          <octave>5</octave>
          </pitch>
        <duration>2</duration>
        <voice>1</voice>
        <type>eighth</type>
        <stem>down</stem>
        <staff>1</staff>
        <beam number="1">continue</beam>
        </note>
      <note default-x="228.22" default-y="-123.72">
        <pitch>
          <step>D</step>
          <octave>6</octave>
          </pitch>
        <duration>2</duration>
        <voice>1</voice>
        <type>eighth</type>
        <stem>down</stem>
        <staff>1</staff>
        <beam number="1">continue</beam>
        </note>
      <note default-x="259.60" default-y="-113.72">
        <pitch>
          <step>F</step>
          <alter>1</alter>
          <octave>6</octave>
          </pitch>
        <duration>2</duration>
        <voice>1</voice>
        <type>eighth</type>
        <stem>down</stem>
        <staff>1</staff>
        <beam number="1">end</beam>
        <notations>
          <slur type="stop" number="1" />
          </notations>
        </note>
      <direction placement="below">
        <direction-type>
          <wedge type="stop" number="1" relative-x="-3.29" />
          </direction-type>
        <staff>1</staff>
        </direction>
      <backup>
        <duration>12</duration>
        </backup>
      <direction placement="below">
        <direction-type>
          <pedal type="start" line="yes" default-y="-114.52" relative-x="-36.17" />
          </direction-type>
        <staff>2</staff>
        </direction>
      <note default-x="102.34" default-y="-303.72">
        <pitch>
          <step>A</step>
          <octave>2</octave>
          </pitch>
        <duration>12</duration>
        <voice>5</voice>
        <type>half</type>
        <dot />
        <stem>up</stem>
        <staff>2</staff>
        </note>
      <direction placement="below">
        <direction-type>
          <pedal type="stop" line="yes" relative-x="-3.29" />
          </direction-type>
        <staff>2</staff>
        </direction>
      <backup>
        <duration>12</duration>
        </backup>
      <note default-x="102.70" default-y="-338.72">
        <pitch>
          <step>A</step>
          <octave>1</octave>
          </pitch>
        <duration>2</duration>
        <voice>6</voice>
        <type>eighth</type>
        <stem>down</stem>
        <staff>2</staff>
        <notations>
          <arpeggiate default-x="-13.09" default-y="-64.49" />
          </notations>
        </note>
      <note>
        <rest>
          <display-step>E</display-step>
          <display-octave>2</display-octave>
          </rest>
        <duration>2</duration>
        <voice>6</voice>
        <type>eighth</type>
        <staff>2</staff>
        </note>
      <note default-x="165.46" default-y="-338.72">
        <pitch>
          <step>A</step>
          <octave>1</octave>
          </pitch>
        <duration>2</duration>
        <voice>6</voice>
        <type>eighth</type>
        <stem>down</stem>
        <staff>2</staff>
        </note>
      <note>
        <rest>
          <display-step>E</display-step>
          <display-octave>2</display-octave>
          </rest>
        <duration>2</duration>
        <voice>6</voice>
        <type>eighth</type>
        <staff>2</staff>
        </note>
      <note>
        <rest>
          <display-step>E</display-step>
          <display-octave>2</display-octave>
          </rest>
        <duration>4</duration>
        <voice>6</voice>
        <type>quarter</type>
        <staff>2</staff>
        </note>
      </measure>
    <measure number="140" width="189.28">
      <direction placement="above">
        <direction-type>
          <octave-shift type="down" size="8" number="1" default-y="33.47" relative-x="-10.00" />
          </direction-type>
        <staff>1</staff>
        </direction>
      <note default-x="26.57" default-y="-173.72">
        <pitch>
          <step>A</step>
          <octave>5</octave>
          </pitch>
        <duration>4</duration>
        <voice>1</voice>
        <type>quarter</type>
        <stem>down</stem>
        <staff>1</staff>
        </note>
      <note default-x="26.57" default-y="-138.72">
        <chord />
        <pitch>
          <step>A</step>
          <octave>6</octave>
          </pitch>
        <duration>4</duration>
        <voice>1</voice>
        <type>quarter</type>
        <stem>down</stem>
        <staff>1</staff>
        </note>
      <direction placement="above">
        <direction-type>
          <octave-shift type="stop" size="8" number="1" relative-x="5.96" />
          </direction-type>
        <staff>1</staff>
        </direction>
      <note>
        <rest />
        <duration>4</duration>
        <voice>1</voice>
        <type>quarter</type>
        <staff>1</staff>
        </note>
      <note>
        <rest />
        <duration>4</duration>
        <voice>1</voice>
        <type>quarter</type>
        <staff>1</staff>
        </note>
      <backup>
        <duration>12</duration>
        </backup>
      <direction placement="below">
        <direction-type>
          <pedal type="start" line="yes" default-y="-112.88" relative-x="-4.93" />
          </direction-type>
        <staff>2</staff>
        </direction>
      <note default-x="26.57" default-y="-268.72">
        <pitch>
          <step>A</step>
          <octave>3</octave>
          </pitch>
        <duration>4</duration>
        <voice>5</voice>
        <type>quarter</type>
        <stem>down</stem>
        <staff>2</staff>
        </note>
      <note default-x="26.57" default-y="-253.72">
        <chord />
        <pitch>
          <step>D</step>
          <octave>4</octave>
          </pitch>
        <duration>4</duration>
        <voice>5</voice>
        <type>quarter</type>
        <stem>down</stem>
        <staff>2</staff>
        </note>
      <note default-x="26.57" default-y="-243.72">
        <chord />
        <pitch>
          <step>F</step>
          <alter>1</alter>
          <octave>4</octave>
          </pitch>
        <duration>4</duration>
        <voice>5</voice>
        <type>quarter</type>
        <stem>down</stem>
        <staff>2</staff>
        </note>
      <note>
        <rest />
        <duration>4</duration>
        <voice>5</voice>
        <type>quarter</type>
        <staff>2</staff>
        </note>
      <note>
        <rest />
        <duration>4</duration>
        <voice>5</voice>
        <type>quarter</type>
        <staff>2</staff>
        </note>
      <direction placement="below">
        <direction-type>
          <pedal type="stop" line="yes" relative-x="-4.93" />
          </direction-type>
        <staff>2</staff>
        </direction>
      </measure>
    <measure number="141" width="120.02">
      <direction placement="below">
        <direction-type>
          <dynamics default-x="6.58" default-y="-45.41" relative-y="-40.00">
            <f />
            </dynamics>
          </direction-type>
        <staff>1</staff>
        <sound dynamics="106.67" />
        </direction>
      <note default-x="13.80" default-y="-203.72">
        <pitch>
          <step>B</step>
          <octave>3</octave>
          </pitch>
        <duration>12</duration>
        <tie type="start" />
        <voice>1</voice>
        <type>half</type>
        <dot />
        <stem>up</stem>
        <staff>1</staff>
        <notations>
          <tied type="start" />
          </notations>
        </note>
      <note default-x="13.80" default-y="-193.72">
        <chord />
        <pitch>
          <step>D</step>
          <octave>4</octave>
          </pitch>
        <duration>12</duration>
        <tie type="start" />
        <voice>1</voice>
        <type>half</type>
        <dot />
        <stem>up</stem>
        <staff>1</staff>
        <notations>
          <tied type="start" />
          </notations>
        </note>
      <note default-x="13.80" default-y="-178.72">
        <chord />
        <pitch>
          <step>G</step>
          <octave>4</octave>
          </pitch>
        <duration>12</duration>
        <tie type="start" />
        <voice>1</voice>
        <type>half</type>
        <dot />
        <stem>up</stem>
        <staff>1</staff>
        <notations>
          <tied type="start" />
          </notations>
        </note>
      <note default-x="13.80" default-y="-168.72">
        <chord />
        <pitch>
          <step>B</step>
          <octave>4</octave>
          </pitch>
        <duration>12</duration>
        <tie type="start" />
        <voice>1</voice>
        <type>half</type>
        <dot />
        <stem>up</stem>
        <staff>1</staff>
        <notations>
          <tied type="start" />
          </notations>
        </note>
      <backup>
        <duration>12</duration>
        </backup>
      <direction placement="below">
        <direction-type>
          <pedal type="start" line="yes" default-y="-108.97" />
          </direction-type>
        <staff>2</staff>
        </direction>
      <note default-x="13.80" default-y="-338.72">
        <pitch>
          <step>A</step>
          <octave>1</octave>
          </pitch>
        <duration>12</duration>
        <tie type="start" />
        <voice>5</voice>
        <type>half</type>
        <dot />
        <stem>up</stem>
        <staff>2</staff>
        <notations>
          <tied type="start" />
          </notations>
        </note>
      <note default-x="13.80" default-y="-303.72">
        <chord />
        <pitch>
          <step>A</step>
          <octave>2</octave>
          </pitch>
        <duration>12</duration>
        <tie type="start" />
        <voice>5</voice>
        <type>half</type>
        <dot />
        <stem>up</stem>
        <staff>2</staff>
        <notations>
          <tied type="start" />
          </notations>
        </note>
      </measure>
    <measure number="142" width="133.94">
      <note default-x="13.80" default-y="-203.72">
        <pitch>
          <step>B</step>
          <octave>3</octave>
          </pitch>
        <duration>4</duration>
        <tie type="stop" />
        <voice>1</voice>
        <type>quarter</type>
        <stem>up</stem>
        <staff>1</staff>
        <notations>
          <tied type="stop" />
          </notations>
        </note>
      <note default-x="13.80" default-y="-193.72">
        <chord />
        <pitch>
          <step>D</step>
          <octave>4</octave>
          </pitch>
        <duration>4</duration>
        <tie type="stop" />
        <voice>1</voice>
        <type>quarter</type>
        <stem>up</stem>
        <staff>1</staff>
        <notations>
          <tied type="stop" />
          </notations>
        </note>
      <note default-x="13.80" default-y="-178.72">
        <chord />
        <pitch>
          <step>G</step>
          <octave>4</octave>
          </pitch>
        <duration>4</duration>
        <tie type="stop" />
        <voice>1</voice>
        <type>quarter</type>
        <stem>up</stem>
        <staff>1</staff>
        <notations>
          <tied type="stop" />
          </notations>
        </note>
      <note default-x="13.80" default-y="-168.72">
        <chord />
        <pitch>
          <step>B</step>
          <octave>4</octave>
          </pitch>
        <duration>4</duration>
        <tie type="stop" />
        <voice>1</voice>
        <type>quarter</type>
        <stem>up</stem>
        <staff>1</staff>
        <notations>
          <tied type="stop" />
          </notations>
        </note>
      <note>
        <rest />
        <duration>4</duration>
        <voice>1</voice>
        <type>quarter</type>
        <staff>1</staff>
        </note>
      <note>
        <rest />
        <duration>4</duration>
        <voice>1</voice>
        <type>quarter</type>
        <staff>1</staff>
        </note>
      <backup>
        <duration>12</duration>
        </backup>
      <note default-x="13.80" default-y="-338.72">
        <pitch>
          <step>A</step>
          <octave>1</octave>
          </pitch>
        <duration>4</duration>
        <tie type="stop" />
        <voice>5</voice>
        <type>quarter</type>
        <stem>up</stem>
        <staff>2</staff>
        <notations>
          <tied type="stop" />
          </notations>
        </note>
      <note default-x="13.80" default-y="-303.72">
        <chord />
        <pitch>
          <step>A</step>
          <octave>2</octave>
          </pitch>
        <duration>4</duration>
        <tie type="stop" />
        <voice>5</voice>
        <type>quarter</type>
        <stem>up</stem>
        <staff>2</staff>
        <notations>
          <tied type="stop" />
          </notations>
        </note>
      <direction placement="below">
        <direction-type>
          <pedal type="stop" line="yes" />
          </direction-type>
        <staff>2</staff>
        </direction>
      <note>
        <rest />
        <duration>4</duration>
        <voice>5</voice>
        <type>quarter</type>
        <staff>2</staff>
        </note>
      <note>
        <rest />
        <duration>4</duration>
        <voice>5</voice>
        <type>quarter</type>
        <staff>2</staff>
        </note>
      </measure>
    <measure number="143" width="113.11">
      <note>
        <rest measure="yes" />
        <duration>12</duration>
        <voice>1</voice>
        <staff>1</staff>
        </note>
      <backup>
        <duration>12</duration>
        </backup>
      <note>
        <rest measure="yes" />
        <duration>12</duration>
        <voice>5</voice>
        <staff>2</staff>
        </note>
      </measure>
    <measure number="144" width="126.97">
      <note>
        <rest measure="yes" />
        <duration>12</duration>
        <voice>1</voice>
        <staff>1</staff>
        </note>
      <backup>
        <duration>12</duration>
        </backup>
      <note>
        <rest measure="yes" />
        <duration>12</duration>
        <voice>5</voice>
        <staff>2</staff>
        </note>
      </measure>
    <measure number="145" width="135.21">
      <direction placement="below">
        <direction-type>
          <dynamics default-x="3.29" default-y="-40.00" relative-y="-40.00">
            <p />
            </dynamics>
          </direction-type>
        <staff>1</staff>
        <sound dynamics="54.44" />
        </direction>
      <direction placement="below">
        <direction-type>
          <wedge type="crescendo" number="1" default-y="-75.00" />
          </direction-type>
        <staff>1</staff>
        </direction>
      <direction placement="below">
        <direction-type>
          <words font-family="FreeSerif" font-size="10" font-style="italic" default-y="-98.08" relative-x="37.81">cresc. molto  </words>
          </direction-type>
        <direction-type>
          <dashes type="start" number="1" default-y="-98.08" relative-x="37.81" />
          </direction-type>
        <staff>1</staff>
        </direction>
      <note default-x="13.80" default-y="-143.72">
        <pitch>
          <step>G</step>
          <octave>5</octave>
          </pitch>
        <duration>6</duration>
        <voice>1</voice>
        <type>half</type>
        <dot />
        <time-modification>
          <actual-notes>2</actual-notes>
          <normal-notes>1</normal-notes>
          </time-modification>
        <stem>down</stem>
        <staff>1</staff>
        <notations>
          <ornaments>
            <tremolo type="start">3</tremolo>
            </ornaments>
          </notations>
        </note>
      <note default-x="13.80" default-y="-133.72">
        <chord />
        <pitch>
          <step>B</step>
          <octave>5</octave>
          </pitch>
        <duration>6</duration>
        <voice>1</voice>
        <type>half</type>
        <dot />
        <time-modification>
          <actual-notes>2</actual-notes>
          <normal-notes>1</normal-notes>
          </time-modification>
        <stem>down</stem>
        <staff>1</staff>
        </note>
      <note default-x="73.52" default-y="-168.72">
        <pitch>
          <step>B</step>
          <octave>4</octave>
          </pitch>
        <duration>6</duration>
        <voice>1</voice>
        <type>half</type>
        <dot />
        <time-modification>
          <actual-notes>2</actual-notes>
          <normal-notes>1</normal-notes>
          </time-modification>
        <stem>down</stem>
        <staff>1</staff>
        <notations>
          <ornaments>
            <tremolo type="stop">3</tremolo>
            </ornaments>
          </notations>
        </note>
      <backup>
        <duration>12</duration>
        </backup>
      <direction placement="below">
        <direction-type>
          <pedal type="start" line="yes" default-y="-108.97" />
          </direction-type>
        <staff>2</staff>
        </direction>
      <note default-x="13.80" default-y="-338.72">
        <pitch>
          <step>A</step>
          <octave>1</octave>
          </pitch>
        <duration>6</duration>
        <voice>5</voice>
        <type>half</type>
        <dot />
        <time-modification>
          <actual-notes>2</actual-notes>
          <normal-notes>1</normal-notes>
          </time-modification>
        <stem>up</stem>
        <staff>2</staff>
        <notations>
          <ornaments>
            <tremolo type="start">3</tremolo>
            </ornaments>
          </notations>
        </note>
      <note default-x="73.52" default-y="-303.72">
        <pitch>
          <step>A</step>
          <octave>2</octave>
          </pitch>
        <duration>6</duration>
        <voice>5</voice>
        <type>half</type>
        <dot />
        <time-modification>
          <actual-notes>2</actual-notes>
          <normal-notes>1</normal-notes>
          </time-modification>
        <stem>up</stem>
        <staff>2</staff>
        <notations>
          <ornaments>
            <tremolo type="stop">3</tremolo>
            </ornaments>
          </notations>
        </note>
      </measure>
    <measure number="146" width="135.21">
      <note default-x="13.80" default-y="-143.72">
        <pitch>
          <step>G</step>
          <octave>5</octave>
          </pitch>
        <duration>6</duration>
        <voice>1</voice>
        <type>half</type>
        <dot />
        <time-modification>
          <actual-notes>2</actual-notes>
          <normal-notes>1</normal-notes>
          </time-modification>
        <stem>down</stem>
        <staff>1</staff>
        <notations>
          <ornaments>
            <tremolo type="start">3</tremolo>
            </ornaments>
          </notations>
        </note>
      <note default-x="13.80" default-y="-133.72">
        <chord />
        <pitch>
          <step>B</step>
          <octave>5</octave>
          </pitch>
        <duration>6</duration>
        <voice>1</voice>
        <type>half</type>
        <dot />
        <time-modification>
          <actual-notes>2</actual-notes>
          <normal-notes>1</normal-notes>
          </time-modification>
        <stem>down</stem>
        <staff>1</staff>
        </note>
      <note default-x="73.52" default-y="-168.72">
        <pitch>
          <step>B</step>
          <octave>4</octave>
          </pitch>
        <duration>6</duration>
        <voice>1</voice>
        <type>half</type>
        <dot />
        <time-modification>
          <actual-notes>2</actual-notes>
          <normal-notes>1</normal-notes>
          </time-modification>
        <stem>down</stem>
        <staff>1</staff>
        <notations>
          <ornaments>
            <tremolo type="stop">3</tremolo>
            </ornaments>
          </notations>
        </note>
      <backup>
        <duration>12</duration>
        </backup>
      <note default-x="13.80" default-y="-338.72">
        <pitch>
          <step>A</step>
          <octave>1</octave>
          </pitch>
        <duration>6</duration>
        <voice>5</voice>
        <type>half</type>
        <dot />
        <time-modification>
          <actual-notes>2</actual-notes>
          <normal-notes>1</normal-notes>
          </time-modification>
        <stem>up</stem>
        <staff>2</staff>
        <notations>
          <ornaments>
            <tremolo type="start">3</tremolo>
            </ornaments>
          </notations>
        </note>
      <note default-x="73.52" default-y="-303.72">
        <pitch>
          <step>A</step>
          <octave>2</octave>
          </pitch>
        <duration>6</duration>
        <voice>5</voice>
        <type>half</type>
        <dot />
        <time-modification>
          <actual-notes>2</actual-notes>
          <normal-notes>1</normal-notes>
          </time-modification>
        <stem>up</stem>
        <staff>2</staff>
        <notations>
          <ornaments>
            <tremolo type="stop">3</tremolo>
            </ornaments>
          </notations>
        </note>
      <direction placement="below">
        <direction-type>
          <pedal type="stop" line="yes" />
          </direction-type>
        <staff>2</staff>
        </direction>
      </measure>
    </part></score-partwise>
