<?xml version='1.0' encoding='utf-8'?>
<score-partwise version="3.1"><part-list><score-part id="P2"><part-name>Piano</part-name></score-part></part-list><part id="P2"><measure number="53" width="246.05">
      <print>
        <staff-layout number="1">
          <staff-distance>115.21</staff-distance>
          </staff-layout>
        <staff-layout number="2">
          <staff-distance>76.58</staff-distance>
          </staff-layout>
        </print>
      <attributes><divisions>8</divisions>
        <key>
          <fifths>-3</fifths>
          </key>
        <staves>2</staves>
        <clef number="1">
          <sign>G</sign>
          <line>2</line>
          </clef>
        <clef number="2">
          <sign>F</sign>
          <line>4</line>
          </clef>
        </attributes><note default-x="101.38" default-y="-180.21">
        <pitch>
          <step>A</step>
          <alter>-1</alter>
          <octave>5</octave>
          </pitch>
        <duration>8</duration>
        <voice>1</voice>
        <type>quarter</type>
        <stem>down</stem>
        <staff>1</staff>
        <notations>
          <slur type="start" placement="above" number="2" />
          </notations>
        </note>
      <note default-x="101.38" default-y="-170.21">
        <chord />
        <pitch>
          <step>C</step>
          <octave>6</octave>
          </pitch>
        <duration>8</duration>
        <voice>1</voice>
        <type>quarter</type>
        <stem>down</stem>
        <staff>1</staff>
        </note>
      <note default-x="101.38" default-y="-155.21">
        <chord />
        <pitch>
          <step>F</step>
          <octave>6</octave>
          </pitch>
        <duration>8</duration>
        <voice>1</voice>
        <type>quarter</type>
        <stem>down</stem>
        <staff>1</staff>
        </note>
      <note default-x="196.63" default-y="-170.21">
        <pitch>
          <step>C</step>
          <octave>6</octave>
          </pitch>
        <duration>4</duration>
        <voice>1</voice>
        <type>eighth</type>
        <stem>down</stem>
        <staff>1</staff>
        <notations>
          <slur type="stop" number="2" />
          </notations>
        </note>
      <note default-x="196.63" default-y="-155.21">
        <chord />
        <pitch>
          <step>F</step>
          <octave>6</octave>
          </pitch>
        <duration>4</duration>
        <voice>1</voice>
        <type>eighth</type>
        <stem>down</stem>
        <staff>1</staff>
        </note>
      <note default-x="196.63" default-y="-145.21">
        <chord />
        <pitch>
          <step>A</step>
          <alter>-1</alter>
          <octave>6</octave>
          </pitch>
        <duration>4</duration>
        <voice>1</voice>
        <type>eighth</type>
        <stem>down</stem>
        <staff>1</staff>
        </note>
      <backup>
        <duration>12</duration>
        </backup>
      <note default-x="101.38" default-y="-286.79">
        <pitch>
          <step>E</step>
          <alter>-1</alter>
          <octave>3</octave>
          </pitch>
        <duration>4</duration>
        <voice>5</voice>
        <type>eighth</type>
        <stem>up</stem>
        <staff>2</staff>
        <beam number="1">begin</beam>
        </note>
      <note default-x="149.00" default-y="-301.79">
        <pitch>
          <step>B</step>
          <alter>-1</alter>
          <octave>2</octave>
          </pitch>
        <duration>4</duration>
        <voice>5</voice>
        <type>eighth</type>
        <stem>up</stem>
        <staff>2</staff>
        <beam number="1">continue</beam>
        </note>
      <note default-x="196.63" default-y="-286.79">
        <pitch>
          <step>E</step>
          <alter>-1</alter>
          <octave>3</octave>
          </pitch>
        <duration>4</duration>
        <voice>5</voice>
        <type>eighth</type>
        <stem>up</stem>
        <staff>2</staff>
        <beam number="1">end</beam>
        <notations>
          <slur type="stop" number="1" />
          </notations>
        </note>
      <backup>
        <duration>12</duration>
        </backup>
      <note default-x="101.38" default-y="-321.79">
        <pitch>
          <step>E</step>
          <alter>-1</alter>
          <octave>2</octave>
          </pitch>
        <duration>12</duration>
        <tie type="stop" />
        <voice>6</voice>
        <type>quarter</type>
        <dot />
        <stem>down</stem>
        <staff>2</staff>
        <notations>
          <tied type="stop" />
          </notations>
        </note>
      </measure>
    <measure number="54" width="179.92">
      <note default-x="16.50" default-y="-175.21">
        <pitch>
          <step>B</step>
          <alter>-1</alter>
          <octave>5</octave>
          </pitch>
        <duration>8</duration>
        <voice>1</voice>
        <type>quarter</type>
        <stem>down</stem>
        <staff>1</staff>
        <notations>
          <slur type="start" placement="above" number="1" />
          </notations>
        </note>
      <note default-x="16.50" default-y="-160.21">
        <chord />
        <pitch>
          <step>E</step>
          <alter>-1</alter>
          <octave>6</octave>
          </pitch>
        <duration>8</duration>
        <voice>1</voice>
        <type>quarter</type>
        <stem>down</stem>
        <staff>1</staff>
        </note>
      <note default-x="16.50" default-y="-150.21">
        <chord />
        <pitch>
          <step>G</step>
          <octave>6</octave>
          </pitch>
        <duration>8</duration>
        <voice>1</voice>
        <type>quarter</type>
        <stem>down</stem>
        <staff>1</staff>
        </note>
      <note default-x="120.40" default-y="-185.21">
        <pitch>
          <step>G</step>
          <octave>5</octave>
          </pitch>
        <duration>4</duration>
        <voice>1</voice>
        <type>eighth</type>
        <stem>down</stem>
        <staff>1</staff>
        </note>
      <note default-x="120.40" default-y="-175.21">
        <chord />
        <pitch>
          <step>B</step>
          <alter>-1</alter>
          <octave>5</octave>
          </pitch>
        <duration>4</duration>
        <voice>1</voice>
        <type>eighth</type>
        <stem>down</stem>
        <staff>1</staff>
        </note>
      <note default-x="120.40" default-y="-160.21">
        <chord />
        <pitch>
          <step>E</step>
          <alter>-1</alter>
          <octave>6</octave>
          </pitch>
        <duration>4</duration>
        <voice>1</voice>
        <type>eighth</type>
        <stem>down</stem>
        <staff>1</staff>
        </note>
      <backup>
        <duration>12</duration>
        </backup>
      <note default-x="16.50" default-y="-301.79">
        <pitch>
          <step>B</step>
          <alter>-1</alter>
          <octave>2</octave>
          </pitch>
        <duration>4</duration>
        <voice>5</voice>
        <type>eighth</type>
        <stem>up</stem>
        <staff>2</staff>
        <beam number="1">begin</beam>
        <notations>
          <slur type="start" placement="above" number="2" />
          </notations>
        </note>
      <note default-x="62.68" default-y="-286.79">
        <pitch>
          <step>E</step>
          <alter>-1</alter>
          <octave>3</octave>
          </pitch>
        <duration>4</duration>
        <voice>5</voice>
        <type>eighth</type>
        <stem>up</stem>
        <staff>2</staff>
        <beam number="1">continue</beam>
        </note>
      <note default-x="120.40" default-y="-301.79">
        <pitch>
          <step>B</step>
          <alter>-1</alter>
          <octave>2</octave>
          </pitch>
        <duration>4</duration>
        <voice>5</voice>
        <type>eighth</type>
        <stem>up</stem>
        <staff>2</staff>
        <beam number="1">end</beam>
        </note>
      <backup>
        <duration>12</duration>
        </backup>
      <note default-x="16.50" default-y="-321.79">
        <pitch>
          <step>E</step>
          <alter>-1</alter>
          <octave>2</octave>
          </pitch>
        <duration>12</duration>
        <tie type="start" />
        <voice>6</voice>
        <type>quarter</type>
        <dot />
        <stem>down</stem>
        <staff>2</staff>
        <notations>
          <tied type="start" />
          </notations>
        </note>
      </measure>
    <measure number="55" width="159.33">
      <note default-x="26.80" default-y="-175.21">
        <pitch>
          <step>B</step>
          <alter>-1</alter>
          <octave>5</octave>
          </pitch>
        <duration>12</duration>
        <voice>1</voice>
        <type>quarter</type>
        <dot />
        <stem>down</stem>
        <staff>1</staff>
        <notations>
          <slur type="stop" number="1" />
          </notations>
        </note>
      <note default-x="26.80" default-y="-165.21">
        <chord />
        <pitch>
          <step>D</step>
          <octave>6</octave>
          </pitch>
        <duration>12</duration>
        <voice>1</voice>
        <type>quarter</type>
        <dot />
        <stem>down</stem>
        <staff>1</staff>
        </note>
      <note default-x="26.80" default-y="-155.21">
        <chord />
        <pitch>
          <step>F</step>
          <octave>6</octave>
          </pitch>
        <duration>12</duration>
        <voice>1</voice>
        <type>quarter</type>
        <dot />
        <stem>down</stem>
        <staff>1</staff>
        </note>
      <direction placement="above">
        <direction-type>
          <octave-shift type="stop" size="8" number="1" />
          </direction-type>
        <staff>1</staff>
        </direction>
      <backup>
        <duration>12</duration>
        </backup>
      <note default-x="26.80" default-y="-286.79">
        <pitch>
          <step>E</step>
          <alter>-1</alter>
          <octave>3</octave>
          </pitch>
        <duration>4</duration>
        <voice>5</voice>
        <type>eighth</type>
        <stem>up</stem>
        <staff>2</staff>
        <beam number="1">begin</beam>
        </note>
      <note default-x="70.38" default-y="-301.79">
        <pitch>
          <step>B</step>
          <alter>-1</alter>
          <octave>2</octave>
          </pitch>
        <duration>4</duration>
        <voice>5</voice>
        <type>eighth</type>
        <stem>up</stem>
        <staff>2</staff>
        <beam number="1">continue</beam>
        </note>
      <note default-x="113.96" default-y="-286.79">
        <pitch>
          <step>E</step>
          <alter>-1</alter>
          <octave>3</octave>
          </pitch>
        <duration>4</duration>
        <voice>5</voice>
        <type>eighth</type>
        <stem>up</stem>
        <staff>2</staff>
        <beam number="1">end</beam>
        <notations>
          <slur type="stop" number="2" />
          </notations>
        </note>
      <backup>
        <duration>12</duration>
        </backup>
      <note default-x="26.80" default-y="-321.79">
        <pitch>
          <step>E</step>
          <alter>-1</alter>
          <octave>2</octave>
          </pitch>
        <duration>12</duration>
        <tie type="stop" />
        <voice>6</voice>
        <type>quarter</type>
        <dot />
        <stem>down</stem>
        <staff>2</staff>
        <notations>
          <tied type="stop" />
          </notations>
        </note>
      </measure>
    <measure number="56" width="149.03">
      <direction placement="below">
        <direction-type>
          <words font-family="Edwin" font-size="10" font-style="italic" default-y="-80.00">dim.</words>
          </direction-type>
        <direction-type>
          <dashes type="start" number="1" default-y="-80.00" />
          </direction-type>
        <staff>1</staff>
        </direction>
      <note default-x="16.50" default-y="-175.21">
        <pitch>
          <step>B</step>
          <alter>-1</alter>
          <octave>4</octave>
          </pitch>
        <duration>8</duration>
        <voice>1</voice>
        <type>quarter</type>
        <stem>down</stem>
        <staff>1</staff>
        <notations>
          <slur type="start" placement="above" number="1" />
          </notations>
        </note>
      <note default-x="16.50" default-y="-160.21">
        <chord />
        <pitch>
          <step>E</step>
          <alter>-1</alter>
          <octave>5</octave>
          </pitch>
        <duration>8</duration>
        <voice>1</voice>
        <type>quarter</type>
        <stem>down</stem>
        <staff>1</staff>
        </note>
      <note default-x="16.50" default-y="-150.21">
        <chord />
        <pitch>
          <step>G</step>
          <octave>5</octave>
          </pitch>
        <duration>8</duration>
        <voice>1</voice>
        <type>quarter</type>
        <stem>down</stem>
        <staff>1</staff>
        </note>
      <note default-x="103.65" default-y="-185.21">
        <pitch>
          <step>G</step>
          <octave>4</octave>
          </pitch>
        <duration>4</duration>
        <voice>1</voice>
        <type>eighth</type>
        <stem>down</stem>
        <staff>1</staff>
        </note>
      <note default-x="103.65" default-y="-175.21">
        <chord />
        <pitch>
          <step>B</step>
          <alter>-1</alter>
          <octave>4</octave>
          </pitch>
        <duration>4</duration>
        <voice>1</voice>
        <type>eighth</type>
        <stem>down</stem>
        <staff>1</staff>
        </note>
      <note default-x="103.65" default-y="-160.21">
        <chord />
        <pitch>
          <step>E</step>
          <alter>-1</alter>
          <octave>5</octave>
          </pitch>
        <duration>4</duration>
        <voice>1</voice>
        <type>eighth</type>
        <stem>down</stem>
        <staff>1</staff>
        </note>
      <backup>
        <duration>12</duration>
        </backup>
      <note default-x="16.50" default-y="-301.79">
        <pitch>
          <step>B</step>
          <alter>-1</alter>
          <octave>2</octave>
          </pitch>
        <duration>4</duration>
        <voice>5</voice>
        <type>eighth</type>
        <stem>up</stem>
        <staff>2</staff>
        <beam number="1">begin</beam>
        </note>
      <note default-x="60.08" default-y="-286.79">
        <pitch>
          <step>E</step>
          <alter>-1</alter>
          <octave>3</octave>
          </pitch>
        <duration>4</duration>
        <voice>5</voice>
        <type>eighth</type>
        <stem>up</stem>
        <staff>2</staff>
        <beam number="1">continue</beam>
        </note>
      <note default-x="103.65" default-y="-301.79">
        <pitch>
          <step>B</step>
          <alter>-1</alter>
          <octave>2</octave>
          </pitch>
        <duration>4</duration>
        <voice>5</voice>
        <type>eighth</type>
        <stem>up</stem>
        <staff>2</staff>
        <beam number="1">end</beam>
        </note>
      <backup>
        <duration>12</duration>
        </backup>
      <note default-x="16.50" default-y="-321.79">
        <pitch>
          <step>E</step>
          <alter>-1</alter>
          <octave>2</octave>
          </pitch>
        <duration>12</duration>
        <tie type="start" />
        <voice>6</voice>
        <type>quarter</type>
        <dot />
        <stem>down</stem>
        <staff>2</staff>
        <notations>
          <tied type="start" />
          </notations>
        </note>
      </measure>
    <measure number="57" width="136.86">
      <note default-x="16.50" default-y="-175.21">
        <pitch>
          <step>B</step>
          <alter>-1</alter>
          <octave>4</octave>
          </pitch>
        <duration>12</duration>
        <voice>1</voice>
        <type>quarter</type>
        <dot />
        <stem>down</stem>
        <staff>1</staff>
        <notations>
          <slur type="stop" number="1" />
          </notations>
        </note>
      <note default-x="16.50" default-y="-165.21">
        <chord />
        <pitch>
          <step>D</step>
          <octave>5</octave>
          </pitch>
        <duration>12</duration>
        <voice>1</voice>
        <type>quarter</type>
        <dot />
        <stem>down</stem>
        <staff>1</staff>
        </note>
      <note default-x="16.50" default-y="-155.21">
        <chord />
        <pitch>
          <step>F</step>
          <octave>5</octave>
          </pitch>
        <duration>12</duration>
        <voice>1</voice>
        <type>quarter</type>
        <dot />
        <stem>down</stem>
        <staff>1</staff>
        </note>
      <direction placement="below">
        <direction-type>
          <dashes type="stop" number="1" />
          </direction-type>
        <staff>1</staff>
        </direction>
      <backup>
        <duration>12</duration>
        </backup>
      <note default-x="16.50" default-y="-286.79">
        <pitch>
          <step>E</step>
          <alter>-1</alter>
          <octave>3</octave>
          </pitch>
        <duration>4</duration>
        <voice>5</voice>
        <type>eighth</type>
        <stem>up</stem>
        <staff>2</staff>
        <beam number="1">begin</beam>
        </note>
      <note default-x="53.80" default-y="-301.79">
        <pitch>
          <step>B</step>
          <alter>-1</alter>
          <octave>2</octave>
          </pitch>
        <duration>4</duration>
        <voice>5</voice>
        <type>eighth</type>
        <stem>up</stem>
        <staff>2</staff>
        <beam number="1">continue</beam>
        </note>
      <note default-x="91.11" default-y="-286.79">
        <pitch>
          <step>E</step>
          <alter>-1</alter>
          <octave>3</octave>
          </pitch>
        <duration>4</duration>
        <voice>5</voice>
        <type>eighth</type>
        <stem>up</stem>
        <staff>2</staff>
        <beam number="1">end</beam>
        </note>
      <backup>
        <duration>12</duration>
        </backup>
      <note default-x="16.50" default-y="-321.79">
        <pitch>
          <step>E</step>
          <alter>-1</alter>
          <octave>2</octave>
          </pitch>
        <duration>12</duration>
        <tie type="stop" />
        <voice>6</voice>
        <type>quarter</type>
        <dot />
        <stem>down</stem>
        <staff>2</staff>
        <notations>
          <tied type="stop" />
          </notations>
        </note>
      </measure>
    <measure number="58" width="149.03">
      <attributes>
        <clef number="1">
          <sign>F</sign>
          <line>4</line>
          </clef>
        </attributes>
      <direction placement="below">
        <direction-type>
          <dynamics default-x="3.25" default-y="-55.00" relative-y="-25.00">
            <pp />
            </dynamics>
          </direction-type>
        <staff>1</staff>
        <sound dynamics="36.67" />
        </direction>
      <note default-x="16.50" default-y="-160.21">
        <pitch>
          <step>G</step>
          <octave>3</octave>
          </pitch>
        <duration>12</duration>
        <tie type="start" />
        <voice>1</voice>
        <type>quarter</type>
        <dot />
        <stem>down</stem>
        <staff>1</staff>
        <notations>
          <tied type="start" />
          </notations>
        </note>
      <note default-x="16.50" default-y="-150.21">
        <chord />
        <pitch>
          <step>B</step>
          <alter>-1</alter>
          <octave>3</octave>
          </pitch>
        <duration>12</duration>
        <tie type="start" />
        <voice>1</voice>
        <type>quarter</type>
        <dot />
        <stem>down</stem>
        <staff>1</staff>
        <notations>
          <tied type="start" />
          </notations>
        </note>
      <backup>
        <duration>12</duration>
        </backup>
      <note default-x="16.50" default-y="-301.79">
        <pitch>
          <step>B</step>
          <alter>-1</alter>
          <octave>2</octave>
          </pitch>
        <duration>4</duration>
        <voice>5</voice>
        <type>eighth</type>
        <stem>up</stem>
        <staff>2</staff>
        <beam number="1">begin</beam>
        </note>
      <note default-x="60.08" default-y="-286.79">
        <pitch>
          <step>E</step>
          <alter>-1</alter>
          <octave>3</octave>
          </pitch>
        <duration>4</duration>
        <voice>5</voice>
        <type>eighth</type>
        <stem>up</stem>
        <staff>2</staff>
        <beam number="1">continue</beam>
        </note>
      <note default-x="103.65" default-y="-301.79">
        <pitch>
          <step>B</step>
          <alter>-1</alter>
          <octave>2</octave>
          </pitch>
        <duration>4</duration>
        <voice>5</voice>
        <type>eighth</type>
        <stem>up</stem>
        <staff>2</staff>
        <beam number="1">end</beam>
        </note>
      <backup>
        <duration>12</duration>
        </backup>
      <note default-x="16.50" default-y="-321.79">
        <pitch>
          <step>E</step>
          <alter>-1</alter>
          <octave>2</octave>
          </pitch>
        <duration>12</duration>
        <tie type="start" />
        <voice>6</voice>
        <type>quarter</type>
        <dot />
        <stem>down</stem>
        <staff>2</staff>
        <notations>
          <tied type="start" />
          </notations>
        </note>
      </measure>
    <measure number="59" width="136.35">
      <note default-x="16.50" default-y="-160.21">
        <pitch>
          <step>G</step>
          <octave>3</octave>
          </pitch>
        <duration>12</duration>
        <tie type="stop" />
        <voice>1</voice>
        <type>quarter</type>
        <dot />
        <stem>down</stem>
        <staff>1</staff>
        <notations>
          <tied type="stop" />
          </notations>
        </note>
      <note default-x="16.50" default-y="-150.21">
        <chord />
        <pitch>
          <step>B</step>
          <alter>-1</alter>
          <octave>3</octave>
          </pitch>
        <duration>12</duration>
        <tie type="stop" />
        <voice>1</voice>
        <type>quarter</type>
        <dot />
        <stem>down</stem>
        <staff>1</staff>
        <notations>
          <tied type="stop" />
          </notations>
        </note>
      <backup>
        <duration>12</duration>
        </backup>
      <note default-x="16.50" default-y="-286.79">
        <pitch>
          <step>E</step>
          <alter>-1</alter>
          <octave>3</octave>
          </pitch>
        <duration>4</duration>
        <voice>5</voice>
        <type>eighth</type>
        <stem>up</stem>
        <staff>2</staff>
        <beam number="1">begin</beam>
        </note>
      <note default-x="53.61" default-y="-301.79">
        <pitch>
          <step>B</step>
          <alter>-1</alter>
          <octave>2</octave>
          </pitch>
        <duration>4</duration>
        <voice>5</voice>
        <type>eighth</type>
        <stem>up</stem>
        <staff>2</staff>
        <beam number="1">continue</beam>
        </note>
      <note default-x="90.73" default-y="-286.79">
        <pitch>
          <step>E</step>
          <alter>-1</alter>
          <octave>3</octave>
          </pitch>
        <duration>4</duration>
        <voice>5</voice>
        <type>eighth</type>
        <stem>up</stem>
        <staff>2</staff>
        <beam number="1">end</beam>
        </note>
      <backup>
        <duration>12</duration>
        </backup>
      <note default-x="16.50" default-y="-321.79">
        <pitch>
          <step>E</step>
          <alter>-1</alter>
          <octave>2</octave>
          </pitch>
        <duration>12</duration>
        <tie type="stop" />
        <voice>6</voice>
        <type>quarter</type>
        <dot />
        <stem>down</stem>
        <staff>2</staff>
        <notations>
          <tied type="stop" />
          </notations>
        </note>
      </measure>
    <measure number="60" width="115.54">
      <attributes>
        <clef number="1">
          <sign>G</sign>
          <line>2</line>
          </clef>
        </attributes>
      <direction placement="below">
        <direction-type>
          <dynamics default-x="6.50" default-y="-52.61" relative-y="-25.00">
            <mf />
            </dynamics>
          </direction-type>
        <staff>1</staff>
        <sound dynamics="88.89" />
        </direction>
      <note default-x="13.00" default-y="-200.21">
        <pitch>
          <step>D</step>
          <octave>4</octave>
          </pitch>
        <duration>12</duration>
        <tie type="start" />
        <voice>1</voice>
        <type>quarter</type>
        <dot />
        <stem>up</stem>
        <staff>1</staff>
        <notations>
          <tied type="start" />
          </notations>
        </note>
      <note default-x="13.00" default-y="-190.21">
        <chord />
        <pitch>
          <step>F</step>
          <octave>4</octave>
          </pitch>
        <duration>12</duration>
        <tie type="start" />
        <voice>1</voice>
        <type>quarter</type>
        <dot />
        <stem>up</stem>
        <staff>1</staff>
        <notations>
          <tied type="start" />
          </notations>
        </note>
      <note default-x="13.00" default-y="-175.21">
        <chord />
        <pitch>
          <step>B</step>
          <alter>-1</alter>
          <octave>4</octave>
          </pitch>
        <duration>12</duration>
        <tie type="start" />
        <voice>1</voice>
        <type>quarter</type>
        <dot />
        <stem>up</stem>
        <staff>1</staff>
        <notations>
          <tied type="start" />
          </notations>
        </note>
      <backup>
        <duration>12</duration>
        </backup>
      <note default-x="13.00" default-y="-266.79">
        <pitch>
          <step>B</step>
          <alter>-1</alter>
          <octave>3</octave>
          </pitch>
        <duration>12</duration>
        <tie type="start" />
        <voice>5</voice>
        <type>quarter</type>
        <dot />
        <stem>down</stem>
        <staff>2</staff>
        <notations>
          <tied type="start" />
          <articulations>
            <strong-accent type="up" />
            </articulations>
          </notations>
        </note>
      </measure>
    </part></score-partwise>
