<?xml version='1.0' encoding='utf-8'?>
<score-partwise version="3.1"><part-list><score-part id="P2"><part-name>Piano</part-name></score-part></part-list><part id="P2"><measure number="85" width="131.06">
      <print>
        <staff-layout number="1">
          <staff-distance>65.00</staff-distance>
          </staff-layout>
        <staff-layout number="2">
          <staff-distance>65.00</staff-distance>
          </staff-layout>
        </print>
      <attributes>
        <divisions>24</divisions>
        <key>
          <fifths>0</fifths>
          </key>
        <staves>2</staves>
        <clef number="1">
          <sign>F</sign>
          <line>4</line>
          </clef>
        <clef number="2">
          <sign>F</sign>
          <line>4</line>
          </clef>
        </attributes>
      <direction placement="below">
        <direction-type>
          <dynamics default-x="6.58" default-y="-40.00" relative-x="-10.14" relative-y="-38.87">
            <pp />
            </dynamics>
          </direction-type>
        <staff>1</staff>
        <sound dynamics="36.67" />
        </direction>
      <note default-x="59.77" default-y="-140.00">
        <pitch>
          <step>A</step>
          <octave>2</octave>
          </pitch>
        <duration>72</duration>
        <voice>1</voice>
        <type>half</type>
        <dot />
        <stem>up</stem>
        <staff>1</staff>
        </note>
      <note default-x="59.77" default-y="-130.00">
        <chord />
        <pitch>
          <step>C</step>
          <octave>3</octave>
          </pitch>
        <duration>72</duration>
        <voice>1</voice>
        <type>half</type>
        <dot />
        <stem>up</stem>
        <staff>1</staff>
        </note>
      <note default-x="59.77" default-y="-120.00">
        <chord />
        <pitch>
          <step>E</step>
          <octave>3</octave>
          </pitch>
        <duration>72</duration>
        <voice>1</voice>
        <type>half</type>
        <dot />
        <stem>up</stem>
        <staff>1</staff>
        </note>
      <backup>
        <duration>72</duration>
        </backup>
      <note>
        <rest measure="yes" />
        <duration>72</duration>
        <voice>5</voice>
        <staff>2</staff>
        </note>
      </measure>
    <measure number="86" width="176.24">
      <note default-x="12.58" default-y="-140.00">
        <pitch>
          <step>A</step>
          <octave>2</octave>
          </pitch>
        <duration>72</duration>
        <voice>1</voice>
        <type>half</type>
        <dot />
        <stem>up</stem>
        <staff>1</staff>
        </note>
      <note default-x="12.58" default-y="-130.00">
        <chord />
        <pitch>
          <step>C</step>
          <octave>3</octave>
          </pitch>
        <duration>72</duration>
        <voice>1</voice>
        <type>half</type>
        <dot />
        <stem>up</stem>
        <staff>1</staff>
        </note>
      <note default-x="12.58" default-y="-120.00">
        <chord />
        <pitch>
          <step>E</step>
          <octave>3</octave>
          </pitch>
        <duration>72</duration>
        <voice>1</voice>
        <type>half</type>
        <dot />
        <stem>up</stem>
        <staff>1</staff>
        </note>
      <backup>
        <duration>72</duration>
        </backup>
      <note>
        <rest />
        <duration>24</duration>
        <voice>5</voice>
        <type>quarter</type>
        <staff>2</staff>
        </note>
      <note>
        <rest />
        <duration>24</duration>
        <voice>5</voice>
        <type>quarter</type>
        <staff>2</staff>
        </note>
      <direction placement="below">
        <direction-type>
          <dynamics default-x="6.58" default-y="-62.25" relative-y="-40.00">
            <mp />
            </dynamics>
          </direction-type>
        <staff>2</staff>
        <sound dynamics="55.56" />
        </direction>
      <note default-x="81.68" default-y="-280.00">
        <pitch>
          <step>A</step>
          <octave>1</octave>
          </pitch>
        <duration>6</duration>
        <voice>5</voice>
        <type>16th</type>
        <stem>up</stem>
        <staff>2</staff>
        <beam number="1">begin</beam>
        <beam number="2">begin</beam>
        <notations>
          <slur type="start" placement="below" number="1" />
          </notations>
        </note>
      <note default-x="104.94" default-y="-275.00">
        <pitch>
          <step>B</step>
          <octave>1</octave>
          </pitch>
        <duration>6</duration>
        <voice>5</voice>
        <type>16th</type>
        <stem>up</stem>
        <staff>2</staff>
        <beam number="1">continue</beam>
        <beam number="2">continue</beam>
        </note>
      <note default-x="128.21" default-y="-270.00">
        <pitch>
          <step>C</step>
          <octave>2</octave>
          </pitch>
        <duration>6</duration>
        <voice>5</voice>
        <type>16th</type>
        <stem>up</stem>
        <staff>2</staff>
        <beam number="1">continue</beam>
        <beam number="2">continue</beam>
        </note>
      <note default-x="151.47" default-y="-265.00">
        <pitch>
          <step>D</step>
          <octave>2</octave>
          </pitch>
        <duration>6</duration>
        <voice>5</voice>
        <type>16th</type>
        <stem>up</stem>
        <staff>2</staff>
        <beam number="1">end</beam>
        <beam number="2">end</beam>
        </note>
      </measure>
    <measure number="87" width="126.95">
      <note>
        <rest measure="yes" />
        <duration>72</duration>
        <voice>1</voice>
        <staff>1</staff>
        </note>
      <backup>
        <duration>72</duration>
        </backup>
      <note default-x="15.80" default-y="-260.00">
        <pitch>
          <step>E</step>
          <octave>2</octave>
          </pitch>
        <duration>36</duration>
        <voice>5</voice>
        <type>quarter</type>
        <dot />
        <stem>up</stem>
        <staff>2</staff>
        <notations>
          <slur type="stop" number="1" />
          </notations>
        </note>
      <note default-x="62.10" default-y="-260.00">
        <pitch>
          <step>E</step>
          <octave>2</octave>
          </pitch>
        <duration>12</duration>
        <voice>5</voice>
        <type>eighth</type>
        <stem>up</stem>
        <staff>2</staff>
        </note>
      <note default-x="87.37" default-y="-260.00">
        <pitch>
          <step>E</step>
          <octave>2</octave>
          </pitch>
        <duration>24</duration>
        <voice>5</voice>
        <type>quarter</type>
        <stem>up</stem>
        <staff>2</staff>
        </note>
      </measure>
    <measure number="88" width="176.24">
      <note default-x="12.58" default-y="-140.00">
        <pitch>
          <step>A</step>
          <octave>2</octave>
          </pitch>
        <duration>72</duration>
        <voice>1</voice>
        <type>half</type>
        <dot />
        <stem>up</stem>
        <staff>1</staff>
        </note>
      <note default-x="12.58" default-y="-130.00">
        <chord />
        <pitch>
          <step>C</step>
          <octave>3</octave>
          </pitch>
        <duration>72</duration>
        <voice>1</voice>
        <type>half</type>
        <dot />
        <stem>up</stem>
        <staff>1</staff>
        </note>
      <note default-x="12.58" default-y="-120.00">
        <chord />
        <pitch>
          <step>E</step>
          <octave>3</octave>
          </pitch>
        <duration>72</duration>
        <voice>1</voice>
        <type>half</type>
        <dot />
        <stem>up</stem>
        <staff>1</staff>
        </note>
      <backup>
        <duration>72</duration>
        </backup>
      <note>
        <rest />
        <duration>24</duration>
        <voice>5</voice>
        <type>quarter</type>
        <staff>2</staff>
        </note>
      <note>
        <rest />
        <duration>24</duration>
        <voice>5</voice>
        <type>quarter</type>
        <staff>2</staff>
        </note>
      <direction placement="below">
        <direction-type>
          <dynamics default-x="6.58" default-y="-60.71" relative-y="-40.00">
            <p />
            </dynamics>
          </direction-type>
        <staff>2</staff>
        <sound dynamics="44.44" />
        </direction>
      <note default-x="81.68" default-y="-280.00">
        <pitch>
          <step>A</step>
          <octave>1</octave>
          </pitch>
        <duration>6</duration>
        <voice>5</voice>
        <type>16th</type>
        <stem>up</stem>
        <staff>2</staff>
        <beam number="1">begin</beam>
        <beam number="2">begin</beam>
        <notations>
          <slur type="start" placement="below" number="1" />
          </notations>
        </note>
      <note default-x="104.94" default-y="-275.00">
        <pitch>
          <step>B</step>
          <octave>1</octave>
          </pitch>
        <duration>6</duration>
        <voice>5</voice>
        <type>16th</type>
        <stem>up</stem>
        <staff>2</staff>
        <beam number="1">continue</beam>
        <beam number="2">continue</beam>
        </note>
      <note default-x="128.21" default-y="-270.00">
        <pitch>
          <step>C</step>
          <octave>2</octave>
          </pitch>
        <duration>6</duration>
        <voice>5</voice>
        <type>16th</type>
        <stem>up</stem>
        <staff>2</staff>
        <beam number="1">continue</beam>
        <beam number="2">continue</beam>
        </note>
      <note default-x="151.47" default-y="-265.00">
        <pitch>
          <step>D</step>
          <octave>2</octave>
          </pitch>
        <duration>6</duration>
        <voice>5</voice>
        <type>16th</type>
        <stem>up</stem>
        <staff>2</staff>
        <beam number="1">end</beam>
        <beam number="2">end</beam>
        </note>
      </measure>
    <measure number="89" width="126.95">
      <note>
        <rest measure="yes" />
        <duration>72</duration>
        <voice>1</voice>
        <staff>1</staff>
        </note>
      <backup>
        <duration>72</duration>
        </backup>
      <note default-x="15.80" default-y="-260.00">
        <pitch>
          <step>E</step>
          <octave>2</octave>
          </pitch>
        <duration>36</duration>
        <voice>5</voice>
        <type>quarter</type>
        <dot />
        <stem>up</stem>
        <staff>2</staff>
        <notations>
          <slur type="stop" number="1" />
          </notations>
        </note>
      <note default-x="62.10" default-y="-260.00">
        <pitch>
          <step>E</step>
          <octave>2</octave>
          </pitch>
        <duration>12</duration>
        <voice>5</voice>
        <type>eighth</type>
        <stem>up</stem>
        <staff>2</staff>
        </note>
      <note default-x="87.37" default-y="-260.00">
        <pitch>
          <step>E</step>
          <octave>2</octave>
          </pitch>
        <duration>24</duration>
        <voice>5</voice>
        <type>quarter</type>
        <stem>up</stem>
        <staff>2</staff>
        </note>
      </measure>
    <measure number="90" width="106.44">
      <direction placement="below">
        <direction-type>
          <words font-family="FreeSerif" font-size="10" font-style="italic" default-y="-77.75" relative-x="-3.38">dim.</words>
          </direction-type>
        <direction-type>
          <dashes type="start" number="1" default-y="-77.75" relative-x="-3.38" />
          </direction-type>
        <staff>1</staff>
        </direction>
      <note default-x="12.58" default-y="-140.00">
        <pitch>
          <step>A</step>
          <octave>2</octave>
          </pitch>
        <duration>48</duration>
        <voice>1</voice>
        <type>half</type>
        <stem>up</stem>
        <staff>1</staff>
        </note>
      <note default-x="12.58" default-y="-130.00">
        <chord />
        <pitch>
          <step>C</step>
          <octave>3</octave>
          </pitch>
        <duration>48</duration>
        <voice>1</voice>
        <type>half</type>
        <stem>up</stem>
        <staff>1</staff>
        </note>
      <note default-x="12.58" default-y="-120.00">
        <chord />
        <pitch>
          <step>E</step>
          <octave>3</octave>
          </pitch>
        <duration>48</duration>
        <voice>1</voice>
        <type>half</type>
        <stem>up</stem>
        <staff>1</staff>
        </note>
      <note>
        <rest />
        <duration>24</duration>
        <voice>1</voice>
        <type>quarter</type>
        <staff>1</staff>
        </note>
      <backup>
        <duration>72</duration>
        </backup>
      <note>
        <rest />
        <duration>24</duration>
        <voice>5</voice>
        <type>quarter</type>
        <staff>2</staff>
        </note>
      <note>
        <rest />
        <duration>24</duration>
        <voice>5</voice>
        <type>quarter</type>
        <staff>2</staff>
        </note>
      <direction placement="below">
        <direction-type>
          <dynamics default-x="6.58" default-y="-51.96" relative-y="-40.00">
            <pp />
            </dynamics>
          </direction-type>
        <staff>2</staff>
        <sound dynamics="36.67" />
        </direction>
      <note default-x="74.21" default-y="-280.00">
        <pitch>
          <step>A</step>
          <octave>1</octave>
          </pitch>
        <duration>24</duration>
        <voice>5</voice>
        <type>quarter</type>
        <stem>up</stem>
        <staff>2</staff>
        </note>
      <note default-x="74.21" default-y="-260.00">
        <chord />
        <pitch>
          <step>E</step>
          <octave>2</octave>
          </pitch>
        <duration>24</duration>
        <voice>5</voice>
        <type>quarter</type>
        <stem>up</stem>
        <staff>2</staff>
        </note>
      </measure>
    <measure number="91" width="106.44">
      <note default-x="12.58" default-y="-140.00">
        <pitch>
          <step>A</step>
          <octave>2</octave>
          </pitch>
        <duration>48</duration>
        <voice>1</voice>
        <type>half</type>
        <stem>up</stem>
        <staff>1</staff>
        </note>
      <note default-x="12.58" default-y="-130.00">
        <chord />
        <pitch>
          <step>C</step>
          <octave>3</octave>
          </pitch>
        <duration>48</duration>
        <voice>1</voice>
        <type>half</type>
        <stem>up</stem>
        <staff>1</staff>
        </note>
      <note default-x="12.58" default-y="-120.00">
        <chord />
        <pitch>
          <step>E</step>
          <octave>3</octave>
          </pitch>
        <duration>48</duration>
        <voice>1</voice>
        <type>half</type>
        <stem>up</stem>
        <staff>1</staff>
        </note>
      <direction placement="below">
        <direction-type>
          <dashes type="stop" number="1" />
          </direction-type>
        <staff>1</staff>
        </direction>
      <note>
        <rest />
        <duration>24</duration>
        <voice>1</voice>
        <type>quarter</type>
        <staff>1</staff>
        </note>
      <backup>
        <duration>72</duration>
        </backup>
      <note>
        <rest />
        <duration>24</duration>
        <voice>5</voice>
        <type>quarter</type>
        <staff>2</staff>
        </note>
      <note>
        <rest />
        <duration>24</duration>
        <voice>5</voice>
        <type>quarter</type>
        <staff>2</staff>
        </note>
      <note default-x="74.21" default-y="-280.00">
        <pitch>
          <step>A</step>
          <octave>1</octave>
          </pitch>
        <duration>24</duration>
        <voice>5</voice>
        <type>quarter</type>
        <stem>up</stem>
        <staff>2</staff>
        </note>
      <note default-x="74.21" default-y="-260.00">
        <chord />
        <pitch>
          <step>E</step>
          <octave>2</octave>
          </pitch>
        <duration>24</duration>
        <voice>5</voice>
        <type>quarter</type>
        <stem>up</stem>
        <staff>2</staff>
        </note>
      </measure>
    <measure number="92" width="106.44">
      <direction placement="below">
        <direction-type>
          <wedge type="diminuendo" number="1" default-y="-70.00" />
          </direction-type>
        <staff>1</staff>
        </direction>
      <note default-x="12.58" default-y="-140.00">
        <pitch>
          <step>A</step>
          <octave>2</octave>
          </pitch>
        <duration>48</duration>
        <voice>1</voice>
        <type>half</type>
        <stem>up</stem>
        <staff>1</staff>
        </note>
      <note default-x="12.58" default-y="-130.00">
        <chord />
        <pitch>
          <step>C</step>
          <octave>3</octave>
          </pitch>
        <duration>48</duration>
        <voice>1</voice>
        <type>half</type>
        <stem>up</stem>
        <staff>1</staff>
        </note>
      <note default-x="12.58" default-y="-120.00">
        <chord />
        <pitch>
          <step>E</step>
          <octave>3</octave>
          </pitch>
        <duration>48</duration>
        <voice>1</voice>
        <type>half</type>
        <stem>up</stem>
        <staff>1</staff>
        </note>
      <note>
        <rest />
        <duration>24</duration>
        <voice>1</voice>
        <type>quarter</type>
        <staff>1</staff>
        </note>
      <backup>
        <duration>72</duration>
        </backup>
      <note>
        <rest />
        <duration>24</duration>
        <voice>5</voice>
        <type>quarter</type>
        <staff>2</staff>
        </note>
      <note>
        <rest />
        <duration>24</duration>
        <voice>5</voice>
        <type>quarter</type>
        <staff>2</staff>
        </note>
      <note default-x="74.21" default-y="-280.00">
        <pitch>
          <step>A</step>
          <octave>1</octave>
          </pitch>
        <duration>24</duration>
        <voice>5</voice>
        <type>quarter</type>
        <stem>up</stem>
        <staff>2</staff>
        </note>
      <note default-x="74.21" default-y="-260.00">
        <chord />
        <pitch>
          <step>E</step>
          <octave>2</octave>
          </pitch>
        <duration>24</duration>
        <voice>5</voice>
        <type>quarter</type>
        <stem>up</stem>
        <staff>2</staff>
        </note>
      </measure>
    <measure number="93" width="106.44">
      <note default-x="12.58" default-y="-140.00">
        <pitch>
          <step>A</step>
          <octave>2</octave>
          </pitch>
        <duration>48</duration>
        <voice>1</voice>
        <type>half</type>
        <stem>up</stem>
        <staff>1</staff>
        </note>
      <note default-x="12.58" default-y="-130.00">
        <chord />
        <pitch>
          <step>C</step>
          <octave>3</octave>
          </pitch>
        <duration>48</duration>
        <voice>1</voice>
        <type>half</type>
        <stem>up</stem>
        <staff>1</staff>
        </note>
      <note default-x="12.58" default-y="-120.00">
        <chord />
        <pitch>
          <step>E</step>
          <octave>3</octave>
          </pitch>
        <duration>48</duration>
        <voice>1</voice>
        <type>half</type>
        <stem>up</stem>
        <staff>1</staff>
        </note>
      <note>
        <rest />
        <duration>24</duration>
        <voice>1</voice>
        <type>quarter</type>
        <staff>1</staff>
        </note>
      <direction placement="below">
        <direction-type>
          <wedge type="stop" number="1" relative-x="30.42" />
          </direction-type>
        <staff>1</staff>
        </direction>
      <backup>
        <duration>72</duration>
        </backup>
      <note>
        <rest />
        <duration>24</duration>
        <voice>5</voice>
        <type>quarter</type>
        <staff>2</staff>
        </note>
      <note>
        <rest />
        <duration>24</duration>
        <voice>5</voice>
        <type>quarter</type>
        <staff>2</staff>
        </note>
      <note default-x="74.21" default-y="-280.00">
        <pitch>
          <step>A</step>
          <octave>1</octave>
          </pitch>
        <duration>24</duration>
        <voice>5</voice>
        <type>quarter</type>
        <stem>up</stem>
        <staff>2</staff>
        </note>
      <note default-x="74.21" default-y="-260.00">
        <chord />
        <pitch>
          <step>E</step>
          <octave>2</octave>
          </pitch>
        <duration>24</duration>
        <voice>5</voice>
        <type>quarter</type>
        <stem>up</stem>
        <staff>2</staff>
        </note>
      </measure>
    <measure number="94" width="91.49">
      <direction placement="below">
        <direction-type>
          <wedge type="diminuendo" number="1" default-y="-75.00" />
          </direction-type>
        <staff>1</staff>
        </direction>
      <note default-x="12.00" default-y="-140.00">
        <pitch>
          <step>A</step>
          <octave>2</octave>
          </pitch>
        <duration>72</duration>
        <voice>1</voice>
        <type>half</type>
        <dot />
        <stem>up</stem>
        <staff>1</staff>
        <notations>
          <fermata type="upright" default-y="9.65" relative-y="10.00" />
          </notations>
        </note>
      <note default-x="12.00" default-y="-130.00">
        <chord />
        <pitch>
          <step>C</step>
          <octave>3</octave>
          </pitch>
        <duration>72</duration>
        <voice>1</voice>
        <type>half</type>
        <dot />
        <stem>up</stem>
        <staff>1</staff>
        </note>
      <note default-x="12.00" default-y="-120.00">
        <chord />
        <pitch>
          <step>E</step>
          <octave>3</octave>
          </pitch>
        <duration>72</duration>
        <voice>1</voice>
        <type>half</type>
        <dot />
        <stem>up</stem>
        <staff>1</staff>
        </note>
      <direction placement="below">
        <direction-type>
          <wedge type="stop" number="1" />
          </direction-type>
        <staff>1</staff>
        </direction>
      <backup>
        <duration>72</duration>
        </backup>
      <note>
        <rest measure="yes" />
        <duration>72</duration>
        <voice>5</voice>
        <staff>2</staff>
        </note>
      <barline location="right">
        <bar-style>light-heavy</bar-style>
        </barline>
      </measure>
    </part></score-partwise>
