<?xml version='1.0' encoding='utf-8'?>
<score-partwise version="3.1"><part-list><score-part id="P2"><part-name>Piano</part-name></score-part></part-list><part id="P2"><measure number="45" width="176.60">
      <print>
        <staff-layout number="1">
          <staff-distance>78.07</staff-distance>
          </staff-layout>
        <staff-layout number="2">
          <staff-distance>67.18</staff-distance>
          </staff-layout>
        </print>
      <attributes><divisions>24</divisions>
        <key>
          <fifths>0</fifths>
          </key>
        <staves>2</staves>
        <clef number="1">
          <sign>G</sign>
          <line>2</line>
          </clef>
        <clef number="2">
          <sign>F</sign>
          <line>4</line>
          </clef>
        </attributes><note default-x="62.51" default-y="-133.07">
        <pitch>
          <step>C</step>
          <octave>5</octave>
          </pitch>
        <duration>24</duration>
        <voice>1</voice>
        <type>quarter</type>
        <stem>down</stem>
        <staff>1</staff>
        </note>
      <note default-x="62.51" default-y="-123.07">
        <chord />
        <pitch>
          <step>E</step>
          <octave>5</octave>
          </pitch>
        <duration>24</duration>
        <voice>1</voice>
        <type>quarter</type>
        <stem>down</stem>
        <staff>1</staff>
        </note>
      <note default-x="62.51" default-y="-108.07">
        <chord />
        <pitch>
          <step>A</step>
          <octave>5</octave>
          </pitch>
        <duration>24</duration>
        <voice>1</voice>
        <type>quarter</type>
        <stem>down</stem>
        <staff>1</staff>
        </note>
      <note>
        <rest />
        <duration>24</duration>
        <voice>1</voice>
        <type>quarter</type>
        <staff>1</staff>
        </note>
      <direction placement="below">
        <direction-type>
          <dynamics default-x="3.29" default-y="-40.00" relative-x="-20.00" relative-y="-40.00">
            <f />
            </dynamics>
          </direction-type>
        <staff>1</staff>
        <sound dynamics="106.67" />
        </direction>
      <note default-x="137.51" default-y="-148.07">
        <pitch>
          <step>G</step>
          <alter>1</alter>
          <octave>4</octave>
          </pitch>
        <duration>24</duration>
        <voice>1</voice>
        <type>quarter</type>
        <accidental>sharp</accidental>
        <stem>down</stem>
        <staff>1</staff>
        <notations>
          <articulations>
            <strong-accent type="up" />
            </articulations>
          </notations>
        </note>
      <note default-x="137.51" default-y="-138.07">
        <chord />
        <pitch>
          <step>B</step>
          <octave>4</octave>
          </pitch>
        <duration>24</duration>
        <voice>1</voice>
        <type>quarter</type>
        <stem>down</stem>
        <staff>1</staff>
        </note>
      <note default-x="137.51" default-y="-123.07">
        <chord />
        <pitch>
          <step>E</step>
          <octave>5</octave>
          </pitch>
        <duration>24</duration>
        <voice>1</voice>
        <type>quarter</type>
        <stem>down</stem>
        <staff>1</staff>
        </note>
      <backup>
        <duration>72</duration>
        </backup>
      <note default-x="62.51" default-y="-260.25">
        <pitch>
          <step>A</step>
          <octave>2</octave>
          </pitch>
        <duration>24</duration>
        <voice>5</voice>
        <type>quarter</type>
        <stem>up</stem>
        <staff>2</staff>
        </note>
      <note>
        <rest />
        <duration>24</duration>
        <voice>5</voice>
        <type>quarter</type>
        <staff>2</staff>
        </note>
      <note default-x="137.51" default-y="-240.25">
        <pitch>
          <step>E</step>
          <octave>3</octave>
          </pitch>
        <duration>24</duration>
        <voice>5</voice>
        <type>quarter</type>
        <stem>down</stem>
        <staff>2</staff>
        <notations>
          <articulations>
            <strong-accent type="up" />
            </articulations>
          </notations>
        </note>
      </measure>
    <measure number="46" width="125.26">
      <note default-x="12.00" default-y="-143.07">
        <pitch>
          <step>A</step>
          <octave>4</octave>
          </pitch>
        <duration>24</duration>
        <voice>1</voice>
        <type>quarter</type>
        <stem>down</stem>
        <staff>1</staff>
        <notations>
          <articulations>
            <strong-accent type="up" />
            </articulations>
          </notations>
        </note>
      <note default-x="12.00" default-y="-133.07">
        <chord />
        <pitch>
          <step>C</step>
          <octave>5</octave>
          </pitch>
        <duration>24</duration>
        <voice>1</voice>
        <type>quarter</type>
        <stem>down</stem>
        <staff>1</staff>
        </note>
      <note default-x="12.00" default-y="-118.07">
        <chord />
        <pitch>
          <step>F</step>
          <octave>5</octave>
          </pitch>
        <duration>24</duration>
        <voice>1</voice>
        <type>quarter</type>
        <stem>down</stem>
        <staff>1</staff>
        </note>
      <note>
        <rest />
        <duration>24</duration>
        <voice>1</voice>
        <type>quarter</type>
        <staff>1</staff>
        </note>
      <note default-x="86.44" default-y="-153.07">
        <pitch>
          <step>F</step>
          <octave>4</octave>
          </pitch>
        <duration>24</duration>
        <voice>1</voice>
        <type>quarter</type>
        <stem>up</stem>
        <staff>1</staff>
        <notations>
          <articulations>
            <strong-accent type="up" />
            </articulations>
          </notations>
        </note>
      <note default-x="86.44" default-y="-138.07">
        <chord />
        <pitch>
          <step>B</step>
          <alter>-1</alter>
          <octave>4</octave>
          </pitch>
        <duration>24</duration>
        <voice>1</voice>
        <type>quarter</type>
        <accidental>flat</accidental>
        <stem>up</stem>
        <staff>1</staff>
        </note>
      <note default-x="86.44" default-y="-128.07">
        <chord />
        <pitch>
          <step>D</step>
          <octave>5</octave>
          </pitch>
        <duration>24</duration>
        <voice>1</voice>
        <type>quarter</type>
        <stem>up</stem>
        <staff>1</staff>
        </note>
      <backup>
        <duration>72</duration>
        </backup>
      <note default-x="12.00" default-y="-270.25">
        <pitch>
          <step>F</step>
          <octave>2</octave>
          </pitch>
        <duration>24</duration>
        <voice>5</voice>
        <type>quarter</type>
        <stem>up</stem>
        <staff>2</staff>
        <notations>
          <articulations>
            <strong-accent type="up" />
            </articulations>
          </notations>
        </note>
      <note default-x="12.00" default-y="-235.25">
        <chord />
        <pitch>
          <step>F</step>
          <octave>3</octave>
          </pitch>
        <duration>24</duration>
        <voice>5</voice>
        <type>quarter</type>
        <stem>up</stem>
        <staff>2</staff>
        </note>
      <note>
        <rest />
        <duration>24</duration>
        <voice>5</voice>
        <type>quarter</type>
        <staff>2</staff>
        </note>
      <note default-x="86.44" default-y="-285.25">
        <pitch>
          <step>C</step>
          <octave>2</octave>
          </pitch>
        <duration>24</duration>
        <voice>5</voice>
        <type>quarter</type>
        <stem>up</stem>
        <staff>2</staff>
        <notations>
          <articulations>
            <strong-accent type="up" />
            </articulations>
          </notations>
        </note>
      <note default-x="86.44" default-y="-250.25">
        <chord />
        <pitch>
          <step>C</step>
          <octave>3</octave>
          </pitch>
        <duration>24</duration>
        <voice>5</voice>
        <type>quarter</type>
        <stem>up</stem>
        <staff>2</staff>
        </note>
      </measure>
    <measure number="47" width="125.26">
      <note default-x="12.00" default-y="-143.07">
        <pitch>
          <step>A</step>
          <octave>4</octave>
          </pitch>
        <duration>24</duration>
        <voice>1</voice>
        <type>quarter</type>
        <stem>down</stem>
        <staff>1</staff>
        <notations>
          <articulations>
            <strong-accent type="up" />
            </articulations>
          </notations>
        </note>
      <note default-x="12.00" default-y="-133.07">
        <chord />
        <pitch>
          <step>C</step>
          <octave>5</octave>
          </pitch>
        <duration>24</duration>
        <voice>1</voice>
        <type>quarter</type>
        <stem>down</stem>
        <staff>1</staff>
        </note>
      <note default-x="12.00" default-y="-118.07">
        <chord />
        <pitch>
          <step>F</step>
          <octave>5</octave>
          </pitch>
        <duration>24</duration>
        <voice>1</voice>
        <type>quarter</type>
        <stem>down</stem>
        <staff>1</staff>
        </note>
      <note>
        <rest />
        <duration>24</duration>
        <voice>1</voice>
        <type>quarter</type>
        <staff>1</staff>
        </note>
      <note default-x="86.44" default-y="-153.07">
        <pitch>
          <step>F</step>
          <octave>4</octave>
          </pitch>
        <duration>24</duration>
        <voice>1</voice>
        <type>quarter</type>
        <stem>up</stem>
        <staff>1</staff>
        <notations>
          <articulations>
            <strong-accent type="up" />
            </articulations>
          </notations>
        </note>
      <note default-x="86.44" default-y="-138.07">
        <chord />
        <pitch>
          <step>B</step>
          <alter>-1</alter>
          <octave>4</octave>
          </pitch>
        <duration>24</duration>
        <voice>1</voice>
        <type>quarter</type>
        <accidental>flat</accidental>
        <stem>up</stem>
        <staff>1</staff>
        </note>
      <note default-x="86.44" default-y="-128.07">
        <chord />
        <pitch>
          <step>D</step>
          <octave>5</octave>
          </pitch>
        <duration>24</duration>
        <voice>1</voice>
        <type>quarter</type>
        <stem>up</stem>
        <staff>1</staff>
        </note>
      <backup>
        <duration>72</duration>
        </backup>
      <note default-x="12.00" default-y="-270.25">
        <pitch>
          <step>F</step>
          <octave>2</octave>
          </pitch>
        <duration>24</duration>
        <voice>5</voice>
        <type>quarter</type>
        <stem>up</stem>
        <staff>2</staff>
        <notations>
          <articulations>
            <strong-accent type="up" />
            </articulations>
          </notations>
        </note>
      <note default-x="12.00" default-y="-235.25">
        <chord />
        <pitch>
          <step>F</step>
          <octave>3</octave>
          </pitch>
        <duration>24</duration>
        <voice>5</voice>
        <type>quarter</type>
        <stem>up</stem>
        <staff>2</staff>
        </note>
      <note>
        <rest />
        <duration>24</duration>
        <voice>5</voice>
        <type>quarter</type>
        <staff>2</staff>
        </note>
      <note default-x="86.44" default-y="-285.25">
        <pitch>
          <step>C</step>
          <octave>2</octave>
          </pitch>
        <duration>24</duration>
        <voice>5</voice>
        <type>quarter</type>
        <stem>up</stem>
        <staff>2</staff>
        <notations>
          <articulations>
            <strong-accent type="up" />
            </articulations>
          </notations>
        </note>
      <note default-x="86.44" default-y="-250.25">
        <chord />
        <pitch>
          <step>C</step>
          <octave>3</octave>
          </pitch>
        <duration>24</duration>
        <voice>5</voice>
        <type>quarter</type>
        <stem>up</stem>
        <staff>2</staff>
        </note>
      </measure>
    <measure number="48" width="125.26">
      <note default-x="12.00" default-y="-143.07">
        <pitch>
          <step>A</step>
          <octave>4</octave>
          </pitch>
        <duration>24</duration>
        <voice>1</voice>
        <type>quarter</type>
        <stem>down</stem>
        <staff>1</staff>
        <notations>
          <articulations>
            <strong-accent type="up" />
            </articulations>
          </notations>
        </note>
      <note default-x="12.00" default-y="-133.07">
        <chord />
        <pitch>
          <step>C</step>
          <octave>5</octave>
          </pitch>
        <duration>24</duration>
        <voice>1</voice>
        <type>quarter</type>
        <stem>down</stem>
        <staff>1</staff>
        </note>
      <note default-x="12.00" default-y="-118.07">
        <chord />
        <pitch>
          <step>F</step>
          <octave>5</octave>
          </pitch>
        <duration>24</duration>
        <voice>1</voice>
        <type>quarter</type>
        <stem>down</stem>
        <staff>1</staff>
        </note>
      <note>
        <rest />
        <duration>24</duration>
        <voice>1</voice>
        <type>quarter</type>
        <staff>1</staff>
        </note>
      <direction placement="below">
        <direction-type>
          <wedge type="diminuendo" number="1" default-y="-60.00" />
          </direction-type>
        <staff>1</staff>
        </direction>
      <note default-x="86.44" default-y="-153.07">
        <pitch>
          <step>F</step>
          <octave>4</octave>
          </pitch>
        <duration>24</duration>
        <voice>1</voice>
        <type>quarter</type>
        <stem>up</stem>
        <staff>1</staff>
        <notations>
          <articulations>
            <strong-accent type="up" />
            </articulations>
          </notations>
        </note>
      <note default-x="86.44" default-y="-138.07">
        <chord />
        <pitch>
          <step>B</step>
          <alter>-1</alter>
          <octave>4</octave>
          </pitch>
        <duration>24</duration>
        <voice>1</voice>
        <type>quarter</type>
        <accidental>flat</accidental>
        <stem>up</stem>
        <staff>1</staff>
        </note>
      <note default-x="86.44" default-y="-128.07">
        <chord />
        <pitch>
          <step>D</step>
          <octave>5</octave>
          </pitch>
        <duration>24</duration>
        <voice>1</voice>
        <type>quarter</type>
        <stem>up</stem>
        <staff>1</staff>
        </note>
      <backup>
        <duration>72</duration>
        </backup>
      <note default-x="12.00" default-y="-270.25">
        <pitch>
          <step>F</step>
          <octave>2</octave>
          </pitch>
        <duration>24</duration>
        <voice>5</voice>
        <type>quarter</type>
        <stem>up</stem>
        <staff>2</staff>
        <notations>
          <articulations>
            <strong-accent type="up" />
            </articulations>
          </notations>
        </note>
      <note default-x="12.00" default-y="-235.25">
        <chord />
        <pitch>
          <step>F</step>
          <octave>3</octave>
          </pitch>
        <duration>24</duration>
        <voice>5</voice>
        <type>quarter</type>
        <stem>up</stem>
        <staff>2</staff>
        </note>
      <note>
        <rest />
        <duration>24</duration>
        <voice>5</voice>
        <type>quarter</type>
        <staff>2</staff>
        </note>
      <note default-x="86.44" default-y="-285.25">
        <pitch>
          <step>C</step>
          <octave>2</octave>
          </pitch>
        <duration>24</duration>
        <voice>5</voice>
        <type>quarter</type>
        <stem>up</stem>
        <staff>2</staff>
        <notations>
          <articulations>
            <strong-accent type="up" />
            </articulations>
          </notations>
        </note>
      <note default-x="86.44" default-y="-250.25">
        <chord />
        <pitch>
          <step>C</step>
          <octave>3</octave>
          </pitch>
        <duration>24</duration>
        <voice>5</voice>
        <type>quarter</type>
        <stem>up</stem>
        <staff>2</staff>
        </note>
      </measure>
    <measure number="49" width="140.85">
      <note default-x="12.94" default-y="-143.07">
        <pitch>
          <step>A</step>
          <octave>4</octave>
          </pitch>
        <duration>24</duration>
        <voice>1</voice>
        <type>quarter</type>
        <stem>down</stem>
        <staff>1</staff>
        <notations>
          <articulations>
            <strong-accent type="up" />
            </articulations>
          </notations>
        </note>
      <note default-x="12.94" default-y="-133.07">
        <chord />
        <pitch>
          <step>C</step>
          <octave>5</octave>
          </pitch>
        <duration>24</duration>
        <voice>1</voice>
        <type>quarter</type>
        <stem>down</stem>
        <staff>1</staff>
        </note>
      <note default-x="12.94" default-y="-118.07">
        <chord />
        <pitch>
          <step>F</step>
          <octave>5</octave>
          </pitch>
        <duration>24</duration>
        <voice>1</voice>
        <type>quarter</type>
        <stem>down</stem>
        <staff>1</staff>
        </note>
      <note>
        <rest />
        <duration>24</duration>
        <voice>1</voice>
        <type>quarter</type>
        <staff>1</staff>
        </note>
      <note default-x="97.14" default-y="-153.07">
        <pitch>
          <step>F</step>
          <octave>4</octave>
          </pitch>
        <duration>24</duration>
        <voice>1</voice>
        <type>quarter</type>
        <stem>up</stem>
        <staff>1</staff>
        </note>
      <note default-x="97.14" default-y="-138.07">
        <chord />
        <pitch>
          <step>B</step>
          <alter>-1</alter>
          <octave>4</octave>
          </pitch>
        <duration>24</duration>
        <voice>1</voice>
        <type>quarter</type>
        <accidental>flat</accidental>
        <stem>up</stem>
        <staff>1</staff>
        </note>
      <note default-x="97.14" default-y="-128.07">
        <chord />
        <pitch>
          <step>D</step>
          <octave>5</octave>
          </pitch>
        <duration>24</duration>
        <voice>1</voice>
        <type>quarter</type>
        <stem>up</stem>
        <staff>1</staff>
        </note>
      <direction placement="below">
        <direction-type>
          <wedge type="stop" number="1" />
          </direction-type>
        <staff>1</staff>
        </direction>
      <backup>
        <duration>72</duration>
        </backup>
      <note default-x="12.94" default-y="-270.25">
        <pitch>
          <step>F</step>
          <octave>2</octave>
          </pitch>
        <duration>24</duration>
        <voice>5</voice>
        <type>quarter</type>
        <stem>up</stem>
        <staff>2</staff>
        <notations>
          <articulations>
            <strong-accent type="up" />
            </articulations>
          </notations>
        </note>
      <note default-x="12.94" default-y="-235.25">
        <chord />
        <pitch>
          <step>F</step>
          <octave>3</octave>
          </pitch>
        <duration>24</duration>
        <voice>5</voice>
        <type>quarter</type>
        <stem>up</stem>
        <staff>2</staff>
        </note>
      <note>
        <rest />
        <duration>24</duration>
        <voice>5</voice>
        <type>quarter</type>
        <staff>2</staff>
        </note>
      <note default-x="97.14" default-y="-285.25">
        <pitch>
          <step>C</step>
          <octave>2</octave>
          </pitch>
        <duration>24</duration>
        <voice>5</voice>
        <type>quarter</type>
        <stem>up</stem>
        <staff>2</staff>
        </note>
      <note default-x="97.14" default-y="-250.25">
        <chord />
        <pitch>
          <step>C</step>
          <octave>3</octave>
          </pitch>
        <duration>24</duration>
        <voice>5</voice>
        <type>quarter</type>
        <stem>up</stem>
        <staff>2</staff>
        </note>
      </measure>
    <measure number="50" width="221.96">
      <direction placement="below">
        <direction-type>
          <dynamics default-x="3.29" default-y="-45.00" relative-x="-20.00" relative-y="-20.00">
            <p />
            </dynamics>
          </direction-type>
        <staff>1</staff>
        <sound dynamics="54.44" />
        </direction>
      <note default-x="41.80" default-y="-143.07">
        <pitch>
          <step>A</step>
          <octave>4</octave>
          </pitch>
        <duration>24</duration>
        <voice>1</voice>
        <type>quarter</type>
        <stem>down</stem>
        <staff>1</staff>
        </note>
      <note default-x="41.80" default-y="-133.07">
        <chord />
        <pitch>
          <step>C</step>
          <octave>5</octave>
          </pitch>
        <duration>24</duration>
        <voice>1</voice>
        <type>quarter</type>
        <stem>down</stem>
        <staff>1</staff>
        </note>
      <note default-x="41.80" default-y="-118.07">
        <chord />
        <pitch>
          <step>F</step>
          <octave>5</octave>
          </pitch>
        <duration>24</duration>
        <voice>1</voice>
        <type>quarter</type>
        <stem>down</stem>
        <staff>1</staff>
        </note>
      <note>
        <rest />
        <duration>24</duration>
        <voice>1</voice>
        <type>quarter</type>
        <staff>1</staff>
        </note>
      <note default-x="160.84" default-y="-153.07">
        <pitch>
          <step>F</step>
          <octave>4</octave>
          </pitch>
        <duration>24</duration>
        <voice>1</voice>
        <type>quarter</type>
        <stem>up</stem>
        <staff>1</staff>
        </note>
      <note default-x="160.84" default-y="-138.07">
        <chord />
        <pitch>
          <step>B</step>
          <alter>-1</alter>
          <octave>4</octave>
          </pitch>
        <duration>24</duration>
        <voice>1</voice>
        <type>quarter</type>
        <accidental>flat</accidental>
        <stem>up</stem>
        <staff>1</staff>
        </note>
      <note default-x="160.84" default-y="-128.07">
        <chord />
        <pitch>
          <step>D</step>
          <octave>5</octave>
          </pitch>
        <duration>24</duration>
        <voice>1</voice>
        <type>quarter</type>
        <stem>up</stem>
        <staff>1</staff>
        </note>
      <backup>
        <duration>72</duration>
        </backup>
      <note default-x="41.80" default-y="-270.25">
        <pitch>
          <step>F</step>
          <octave>2</octave>
          </pitch>
        <duration>24</duration>
        <voice>5</voice>
        <type>quarter</type>
        <stem>up</stem>
        <staff>2</staff>
        </note>
      <note default-x="41.80" default-y="-235.25">
        <chord />
        <pitch>
          <step>F</step>
          <octave>3</octave>
          </pitch>
        <duration>24</duration>
        <voice>5</voice>
        <type>quarter</type>
        <stem>up</stem>
        <staff>2</staff>
        </note>
      <note>
        <rest />
        <duration>24</duration>
        <voice>5</voice>
        <type>quarter</type>
        <staff>2</staff>
        </note>
      <note default-x="160.84" default-y="-285.25">
        <pitch>
          <step>C</step>
          <octave>2</octave>
          </pitch>
        <duration>24</duration>
        <voice>5</voice>
        <type>quarter</type>
        <stem>up</stem>
        <staff>2</staff>
        </note>
      <note default-x="160.84" default-y="-250.25">
        <chord />
        <pitch>
          <step>C</step>
          <octave>3</octave>
          </pitch>
        <duration>24</duration>
        <voice>5</voice>
        <type>quarter</type>
        <stem>up</stem>
        <staff>2</staff>
        </note>
      </measure>
    <measure number="51" width="147.30">
      <note default-x="18.08" default-y="-158.07">
        <pitch>
          <step>E</step>
          <octave>4</octave>
          </pitch>
        <duration>24</duration>
        <voice>1</voice>
        <type>quarter</type>
        <stem>up</stem>
        <staff>1</staff>
        </note>
      <note default-x="18.08" default-y="-138.07">
        <chord />
        <pitch>
          <step>B</step>
          <alter>-1</alter>
          <octave>4</octave>
          </pitch>
        <duration>24</duration>
        <voice>1</voice>
        <type>quarter</type>
        <accidental>flat</accidental>
        <stem>up</stem>
        <staff>1</staff>
        </note>
      <note default-x="29.95" default-y="-133.07">
        <chord />
        <pitch>
          <step>C</step>
          <octave>5</octave>
          </pitch>
        <duration>24</duration>
        <voice>1</voice>
        <type>quarter</type>
        <stem>up</stem>
        <staff>1</staff>
        </note>
      <note>
        <rest />
        <duration>24</duration>
        <voice>1</voice>
        <type>quarter</type>
        <staff>1</staff>
        </note>
      <note default-x="103.16" default-y="-158.07">
        <pitch>
          <step>E</step>
          <octave>4</octave>
          </pitch>
        <duration>24</duration>
        <voice>1</voice>
        <type>quarter</type>
        <stem>up</stem>
        <staff>1</staff>
        </note>
      <note default-x="103.16" default-y="-138.07">
        <chord />
        <pitch>
          <step>B</step>
          <alter>-1</alter>
          <octave>4</octave>
          </pitch>
        <duration>24</duration>
        <voice>1</voice>
        <type>quarter</type>
        <stem>up</stem>
        <staff>1</staff>
        </note>
      <note default-x="115.03" default-y="-133.07">
        <chord />
        <pitch>
          <step>C</step>
          <octave>5</octave>
          </pitch>
        <duration>24</duration>
        <voice>1</voice>
        <type>quarter</type>
        <stem>up</stem>
        <staff>1</staff>
        </note>
      <backup>
        <duration>72</duration>
        </backup>
      <note default-x="18.08" default-y="-270.25">
        <pitch>
          <step>F</step>
          <octave>2</octave>
          </pitch>
        <duration>24</duration>
        <voice>5</voice>
        <type>quarter</type>
        <stem>up</stem>
        <staff>2</staff>
        </note>
      <note default-x="18.08" default-y="-235.25">
        <chord />
        <pitch>
          <step>F</step>
          <octave>3</octave>
          </pitch>
        <duration>24</duration>
        <voice>5</voice>
        <type>quarter</type>
        <stem>up</stem>
        <staff>2</staff>
        </note>
      <note>
        <rest />
        <duration>24</duration>
        <voice>5</voice>
        <type>quarter</type>
        <staff>2</staff>
        </note>
      <note default-x="103.16" default-y="-285.25">
        <pitch>
          <step>C</step>
          <octave>2</octave>
          </pitch>
        <duration>24</duration>
        <voice>5</voice>
        <type>quarter</type>
        <stem>up</stem>
        <staff>2</staff>
        </note>
      <note default-x="103.16" default-y="-250.25">
        <chord />
        <pitch>
          <step>C</step>
          <octave>3</octave>
          </pitch>
        <duration>24</duration>
        <voice>5</voice>
        <type>quarter</type>
        <stem>up</stem>
        <staff>2</staff>
        </note>
      </measure>
    <measure number="52" width="192.19">
      <note default-x="16.20" default-y="-158.07">
        <pitch>
          <step>E</step>
          <octave>4</octave>
          </pitch>
        <duration>24</duration>
        <voice>1</voice>
        <type>quarter</type>
        <stem>up</stem>
        <staff>1</staff>
        </note>
      <note default-x="16.20" default-y="-138.07">
        <chord />
        <pitch>
          <step>B</step>
          <alter>-1</alter>
          <octave>4</octave>
          </pitch>
        <duration>24</duration>
        <voice>1</voice>
        <type>quarter</type>
        <accidental>flat</accidental>
        <stem>up</stem>
        <staff>1</staff>
        </note>
      <note default-x="16.20" default-y="-128.07">
        <chord />
        <pitch>
          <step>D</step>
          <octave>5</octave>
          </pitch>
        <duration>24</duration>
        <voice>1</voice>
        <type>quarter</type>
        <stem>up</stem>
        <staff>1</staff>
        </note>
      <note>
        <rest />
        <duration>24</duration>
        <voice>1</voice>
        <type>quarter</type>
        <staff>1</staff>
        </note>
      <note default-x="143.18" default-y="-158.07">
        <pitch>
          <step>E</step>
          <octave>4</octave>
          </pitch>
        <duration>24</duration>
        <voice>1</voice>
        <type>quarter</type>
        <stem>up</stem>
        <staff>1</staff>
        </note>
      <note default-x="143.18" default-y="-138.07">
        <chord />
        <pitch>
          <step>B</step>
          <alter>-1</alter>
          <octave>4</octave>
          </pitch>
        <duration>24</duration>
        <voice>1</voice>
        <type>quarter</type>
        <stem>up</stem>
        <staff>1</staff>
        </note>
      <note default-x="155.04" default-y="-133.07">
        <chord />
        <pitch>
          <step>C</step>
          <octave>5</octave>
          </pitch>
        <duration>24</duration>
        <voice>1</voice>
        <type>quarter</type>
        <stem>up</stem>
        <staff>1</staff>
        </note>
      <backup>
        <duration>72</duration>
        </backup>
      <note default-x="16.20" default-y="-270.25">
        <pitch>
          <step>F</step>
          <octave>2</octave>
          </pitch>
        <duration>24</duration>
        <voice>5</voice>
        <type>quarter</type>
        <stem>up</stem>
        <staff>2</staff>
        </note>
      <note default-x="16.20" default-y="-235.25">
        <chord />
        <pitch>
          <step>F</step>
          <octave>3</octave>
          </pitch>
        <duration>24</duration>
        <voice>5</voice>
        <type>quarter</type>
        <stem>up</stem>
        <staff>2</staff>
        </note>
      <note>
        <rest />
        <duration>24</duration>
        <voice>5</voice>
        <type>quarter</type>
        <staff>2</staff>
        </note>
      <note default-x="143.18" default-y="-285.25">
        <pitch>
          <step>C</step>
          <octave>2</octave>
          </pitch>
        <duration>24</duration>
        <voice>5</voice>
        <type>quarter</type>
        <stem>up</stem>
        <staff>2</staff>
        </note>
      <note default-x="143.18" default-y="-250.25">
        <chord />
        <pitch>
          <step>C</step>
          <octave>3</octave>
          </pitch>
        <duration>24</duration>
        <voice>5</voice>
        <type>quarter</type>
        <stem>up</stem>
        <staff>2</staff>
        </note>
      </measure>
    </part></score-partwise>
