<?xml version='1.0' encoding='utf-8'?>
<score-partwise version="3.1"><part-list><score-part id="P2"><part-name>Piano</part-name></score-part></part-list><part id="P2"><measure number="73" width="246.36">
      <print>
        <staff-layout number="1">
          <staff-distance>99.97</staff-distance>
          </staff-layout>
        <staff-layout number="2">
          <staff-distance>103.82</staff-distance>
          </staff-layout>
        </print>
      <attributes><divisions>4</divisions>
        <key>
          <fifths>-4</fifths>
          </key>
        <staves>2</staves>
        <clef number="1">
          <sign>G</sign>
          <line>2</line>
          </clef>
        <clef number="2">
          <sign>F</sign>
          <line>4</line>
          </clef>
        </attributes><note default-x="114.18" default-y="-322.93">
        <pitch>
          <step>C</step>
          <octave>4</octave>
          </pitch>
        <duration>2</duration>
        <voice>1</voice>
        <type>eighth</type>
        <stem>up</stem>
        <staff>1</staff>
        </note>
      <note default-x="114.18" default-y="-312.93">
        <chord />
        <pitch>
          <step>E</step>
          <alter>-1</alter>
          <octave>4</octave>
          </pitch>
        <duration>2</duration>
        <voice>1</voice>
        <type>eighth</type>
        <stem>up</stem>
        <staff>1</staff>
        </note>
      <note default-x="114.18" default-y="-297.93">
        <chord />
        <pitch>
          <step>A</step>
          <alter>-1</alter>
          <octave>4</octave>
          </pitch>
        <duration>2</duration>
        <voice>1</voice>
        <type>eighth</type>
        <stem>up</stem>
        <staff>1</staff>
        </note>
      <note default-x="157.70" default-y="-322.93">
        <pitch>
          <step>C</step>
          <octave>4</octave>
          </pitch>
        <duration>2</duration>
        <voice>1</voice>
        <type>eighth</type>
        <stem>up</stem>
        <staff>1</staff>
        <beam number="1">begin</beam>
        </note>
      <direction placement="below">
        <direction-type>
          <wedge type="crescendo" number="1" default-y="-79.02" />
          </direction-type>
        <staff>1</staff>
        </direction>
      <note default-x="201.23" default-y="-312.93">
        <pitch>
          <step>E</step>
          <alter>-1</alter>
          <octave>4</octave>
          </pitch>
        <duration>2</duration>
        <voice>1</voice>
        <type>eighth</type>
        <stem>up</stem>
        <staff>1</staff>
        <beam number="1">end</beam>
        </note>
      <backup>
        <duration>6</duration>
        </backup>
      <note default-x="114.18" default-y="-486.74">
        <pitch>
          <step>A</step>
          <alter>-1</alter>
          <octave>1</octave>
          </pitch>
        <duration>6</duration>
        <tie type="start" />
        <voice>5</voice>
        <type>quarter</type>
        <dot />
        <stem>up</stem>
        <staff>2</staff>
        <notations>
          <tied type="start" />
          </notations>
        </note>
      <note default-x="114.18" default-y="-451.74">
        <chord />
        <pitch>
          <step>A</step>
          <alter>-1</alter>
          <octave>2</octave>
          </pitch>
        <duration>6</duration>
        <tie type="start" />
        <voice>5</voice>
        <type>quarter</type>
        <dot />
        <stem>up</stem>
        <staff>2</staff>
        <notations>
          <tied type="start" />
          </notations>
        </note>
      </measure>
    <measure number="74" width="152.88">
      <note default-x="13.80" default-y="-297.93">
        <pitch>
          <step>A</step>
          <alter>-1</alter>
          <octave>4</octave>
          </pitch>
        <duration>2</duration>
        <voice>1</voice>
        <type>eighth</type>
        <stem>up</stem>
        <staff>1</staff>
        <beam number="1">begin</beam>
        </note>
      <note default-x="59.63" default-y="-332.93">
        <pitch>
          <step>A</step>
          <alter>-1</alter>
          <octave>3</octave>
          </pitch>
        <duration>2</duration>
        <voice>1</voice>
        <type>eighth</type>
        <stem>up</stem>
        <staff>1</staff>
        <beam number="1">continue</beam>
        </note>
      <note default-x="59.63" default-y="-322.93">
        <chord />
        <pitch>
          <step>C</step>
          <octave>4</octave>
          </pitch>
        <duration>2</duration>
        <voice>1</voice>
        <type>eighth</type>
        <stem>up</stem>
        <staff>1</staff>
        </note>
      <note default-x="59.63" default-y="-312.93">
        <chord />
        <pitch>
          <step>E</step>
          <alter>-1</alter>
          <octave>4</octave>
          </pitch>
        <duration>2</duration>
        <voice>1</voice>
        <type>eighth</type>
        <stem>up</stem>
        <staff>1</staff>
        </note>
      <note default-x="105.45" default-y="-322.93">
        <pitch>
          <step>C</step>
          <octave>4</octave>
          </pitch>
        <duration>2</duration>
        <voice>1</voice>
        <type>eighth</type>
        <stem>up</stem>
        <staff>1</staff>
        <beam number="1">end</beam>
        <notations>
          <slur type="stop" number="1" />
          </notations>
        </note>
      <note default-x="105.45" default-y="-312.93">
        <chord />
        <pitch>
          <step>E</step>
          <alter>-1</alter>
          <octave>4</octave>
          </pitch>
        <duration>2</duration>
        <voice>1</voice>
        <type>eighth</type>
        <stem>up</stem>
        <staff>1</staff>
        </note>
      <note default-x="105.45" default-y="-297.93">
        <chord />
        <pitch>
          <step>A</step>
          <alter>-1</alter>
          <octave>4</octave>
          </pitch>
        <duration>2</duration>
        <voice>1</voice>
        <type>eighth</type>
        <stem>up</stem>
        <staff>1</staff>
        </note>
      <direction placement="below">
        <direction-type>
          <wedge type="stop" number="1" />
          </direction-type>
        <staff>1</staff>
        </direction>
      <backup>
        <duration>6</duration>
        </backup>
      <note default-x="13.80" default-y="-486.74">
        <pitch>
          <step>A</step>
          <alter>-1</alter>
          <octave>1</octave>
          </pitch>
        <duration>2</duration>
        <tie type="stop" />
        <voice>5</voice>
        <type>eighth</type>
        <stem>up</stem>
        <staff>2</staff>
        <notations>
          <tied type="stop" />
          </notations>
        </note>
      <note default-x="13.80" default-y="-451.74">
        <chord />
        <pitch>
          <step>A</step>
          <alter>-1</alter>
          <octave>2</octave>
          </pitch>
        <duration>2</duration>
        <tie type="stop" />
        <voice>5</voice>
        <type>eighth</type>
        <stem>up</stem>
        <staff>2</staff>
        <notations>
          <tied type="stop" />
          </notations>
        </note>
      <note>
        <rest />
        <duration>2</duration>
        <voice>5</voice>
        <type>eighth</type>
        <staff>2</staff>
        </note>
      <note>
        <rest />
        <duration>2</duration>
        <voice>5</voice>
        <type>eighth</type>
        <staff>2</staff>
        </note>
      </measure>
    <measure number="75" width="165.67">
      <direction placement="below">
        <direction-type>
          <dynamics default-x="6.58" default-y="-44.02" relative-y="-40.00">
            <f />
            </dynamics>
          </direction-type>
        <staff>1</staff>
        <sound dynamics="106.67" />
        </direction>
      <note default-x="21.00" default-y="-307.93">
        <pitch>
          <step>F</step>
          <alter>-1</alter>
          <octave>4</octave>
          </pitch>
        <duration>4</duration>
        <voice>1</voice>
        <type>quarter</type>
        <accidental>flat</accidental>
        <stem>up</stem>
        <staff>1</staff>
        <notations>
          <slur type="start" placement="above" number="1" />
          </notations>
        </note>
      <note default-x="21.00" default-y="-297.93">
        <chord />
        <pitch>
          <step>A</step>
          <alter>-1</alter>
          <octave>4</octave>
          </pitch>
        <duration>4</duration>
        <voice>1</voice>
        <type>quarter</type>
        <stem>up</stem>
        <staff>1</staff>
        </note>
      <note default-x="21.00" default-y="-287.93">
        <chord />
        <pitch>
          <step>C</step>
          <alter>-1</alter>
          <octave>5</octave>
          </pitch>
        <duration>4</duration>
        <voice>1</voice>
        <type>quarter</type>
        <accidental>flat</accidental>
        <stem>up</stem>
        <staff>1</staff>
        </note>
      <note default-x="116.38" default-y="-297.93">
        <pitch>
          <step>A</step>
          <alter>-1</alter>
          <octave>4</octave>
          </pitch>
        <duration>2</duration>
        <voice>1</voice>
        <type>eighth</type>
        <stem>down</stem>
        <staff>1</staff>
        </note>
      <note default-x="116.38" default-y="-287.93">
        <chord />
        <pitch>
          <step>C</step>
          <alter>-1</alter>
          <octave>5</octave>
          </pitch>
        <duration>2</duration>
        <voice>1</voice>
        <type>eighth</type>
        <stem>down</stem>
        <staff>1</staff>
        </note>
      <note default-x="116.38" default-y="-272.93">
        <chord />
        <pitch>
          <step>F</step>
          <alter>-1</alter>
          <octave>5</octave>
          </pitch>
        <duration>2</duration>
        <voice>1</voice>
        <type>eighth</type>
        <accidental>flat</accidental>
        <stem>down</stem>
        <staff>1</staff>
        </note>
      <backup>
        <duration>6</duration>
        </backup>
      <note>
        <rest />
        <duration>2</duration>
        <voice>5</voice>
        <type>eighth</type>
        <staff>2</staff>
        </note>
      <note default-x="68.69" default-y="-416.74">
        <pitch>
          <step>A</step>
          <alter>-1</alter>
          <octave>3</octave>
          </pitch>
        <duration>2</duration>
        <voice>5</voice>
        <type>eighth</type>
        <stem>up</stem>
        <staff>2</staff>
        <beam number="1">begin</beam>
        <notations>
          <slur type="start" placement="below" number="2" />
          </notations>
        </note>
      <note default-x="116.38" default-y="-426.74">
        <pitch>
          <step>F</step>
          <alter>-1</alter>
          <octave>3</octave>
          </pitch>
        <duration>2</duration>
        <voice>5</voice>
        <type>eighth</type>
        <accidental>flat</accidental>
        <stem>up</stem>
        <staff>2</staff>
        <beam number="1">end</beam>
        <notations>
          <slur type="stop" number="2" />
          </notations>
        </note>
      <backup>
        <duration>6</duration>
        </backup>
      <note default-x="21.00" default-y="-451.74">
        <pitch>
          <step>A</step>
          <alter>-1</alter>
          <octave>2</octave>
          </pitch>
        <duration>6</duration>
        <voice>6</voice>
        <type>quarter</type>
        <dot />
        <stem>down</stem>
        <staff>2</staff>
        </note>
      </measure>
    <measure number="76" width="186.60">
      <direction placement="below">
        <direction-type>
          <wedge type="diminuendo" number="1" default-y="-99.07" />
          </direction-type>
        <staff>1</staff>
        </direction>
      <note default-x="21.00" default-y="-287.93">
        <pitch>
          <step>C</step>
          <alter>-1</alter>
          <octave>5</octave>
          </pitch>
        <duration>3</duration>
        <voice>1</voice>
        <type>eighth</type>
        <dot />
        <accidental>flat</accidental>
        <stem>up</stem>
        <staff>1</staff>
        <beam number="1">begin</beam>
        </note>
      <note default-x="102.30" default-y="-292.93">
        <pitch>
          <step>B</step>
          <alter>-1</alter>
          <octave>4</octave>
          </pitch>
        <duration>1</duration>
        <voice>1</voice>
        <type>16th</type>
        <stem>up</stem>
        <staff>1</staff>
        <beam number="1">continue</beam>
        <beam number="2">forward hook</beam>
        </note>
      <note default-x="134.97" default-y="-297.93">
        <pitch>
          <step>A</step>
          <alter>-1</alter>
          <octave>4</octave>
          </pitch>
        <duration>2</duration>
        <voice>1</voice>
        <type>eighth</type>
        <stem>up</stem>
        <staff>1</staff>
        <beam number="1">end</beam>
        </note>
      <direction placement="below">
        <direction-type>
          <wedge type="stop" number="1" />
          </direction-type>
        <staff>1</staff>
        </direction>
      <backup>
        <duration>6</duration>
        </backup>
      <note default-x="21.00" default-y="-307.93">
        <pitch>
          <step>F</step>
          <alter>-1</alter>
          <octave>4</octave>
          </pitch>
        <duration>4</duration>
        <voice>2</voice>
        <type>quarter</type>
        <accidental>flat</accidental>
        <stem>down</stem>
        <staff>1</staff>
        </note>
      <note default-x="21.00" default-y="-297.93">
        <chord />
        <pitch>
          <step>A</step>
          <alter>-1</alter>
          <octave>4</octave>
          </pitch>
        <duration>4</duration>
        <voice>2</voice>
        <type>quarter</type>
        <stem>down</stem>
        <staff>1</staff>
        </note>
      <note default-x="134.97" default-y="-322.93">
        <pitch>
          <step>C</step>
          <alter>-1</alter>
          <octave>4</octave>
          </pitch>
        <duration>2</duration>
        <voice>2</voice>
        <type>eighth</type>
        <accidental>flat</accidental>
        <stem>down</stem>
        <staff>1</staff>
        </note>
      <note default-x="134.97" default-y="-307.93">
        <chord />
        <pitch>
          <step>F</step>
          <alter>-1</alter>
          <octave>4</octave>
          </pitch>
        <duration>2</duration>
        <voice>2</voice>
        <type>eighth</type>
        <stem>down</stem>
        <staff>1</staff>
        </note>
      <backup>
        <duration>6</duration>
        </backup>
      <note>
        <rest />
        <duration>2</duration>
        <voice>5</voice>
        <type>eighth</type>
        <staff>2</staff>
        </note>
      <note default-x="71.03" default-y="-416.74">
        <pitch>
          <step>A</step>
          <alter>-1</alter>
          <octave>3</octave>
          </pitch>
        <duration>2</duration>
        <voice>5</voice>
        <type>eighth</type>
        <stem>up</stem>
        <staff>2</staff>
        <beam number="1">begin</beam>
        <notations>
          <slur type="start" placement="below" number="2" />
          </notations>
        </note>
      <note default-x="134.97" default-y="-426.74">
        <pitch>
          <step>F</step>
          <alter>-1</alter>
          <octave>3</octave>
          </pitch>
        <duration>2</duration>
        <voice>5</voice>
        <type>eighth</type>
        <accidental>flat</accidental>
        <stem>up</stem>
        <staff>2</staff>
        <beam number="1">end</beam>
        <notations>
          <slur type="stop" number="2" />
          </notations>
        </note>
      <backup>
        <duration>6</duration>
        </backup>
      <note default-x="21.00" default-y="-451.74">
        <pitch>
          <step>A</step>
          <alter>-1</alter>
          <octave>2</octave>
          </pitch>
        <duration>6</duration>
        <voice>6</voice>
        <type>quarter</type>
        <dot />
        <stem>down</stem>
        <staff>2</staff>
        </note>
      </measure>
    <measure number="77" width="154.81">
      <note default-x="14.00" default-y="-312.93">
        <pitch>
          <step>E</step>
          <alter>-1</alter>
          <octave>4</octave>
          </pitch>
        <duration>4</duration>
        <voice>1</voice>
        <type>quarter</type>
        <stem>up</stem>
        <staff>1</staff>
        <notations>
          <articulations>
            <accent />
            </articulations>
          </notations>
        </note>
      <note default-x="14.00" default-y="-297.93">
        <chord />
        <pitch>
          <step>A</step>
          <alter>-1</alter>
          <octave>4</octave>
          </pitch>
        <duration>4</duration>
        <voice>1</voice>
        <type>quarter</type>
        <stem>up</stem>
        <staff>1</staff>
        </note>
      <note default-x="14.00" default-y="-287.93">
        <chord />
        <pitch>
          <step>C</step>
          <octave>5</octave>
          </pitch>
        <duration>4</duration>
        <voice>1</voice>
        <type>quarter</type>
        <accidental>natural</accidental>
        <stem>up</stem>
        <staff>1</staff>
        </note>
      <note default-x="106.81" default-y="-322.93">
        <pitch>
          <step>C</step>
          <octave>4</octave>
          </pitch>
        <duration>2</duration>
        <voice>1</voice>
        <type>eighth</type>
        <stem>up</stem>
        <staff>1</staff>
        </note>
      <note default-x="106.81" default-y="-312.93">
        <chord />
        <pitch>
          <step>E</step>
          <alter>-1</alter>
          <octave>4</octave>
          </pitch>
        <duration>2</duration>
        <voice>1</voice>
        <type>eighth</type>
        <stem>up</stem>
        <staff>1</staff>
        </note>
      <note default-x="106.81" default-y="-297.93">
        <chord />
        <pitch>
          <step>A</step>
          <alter>-1</alter>
          <octave>4</octave>
          </pitch>
        <duration>2</duration>
        <voice>1</voice>
        <type>eighth</type>
        <stem>up</stem>
        <staff>1</staff>
        </note>
      <backup>
        <duration>6</duration>
        </backup>
      <note>
        <rest />
        <duration>2</duration>
        <voice>5</voice>
        <type>eighth</type>
        <staff>2</staff>
        </note>
      <note default-x="60.40" default-y="-416.74">
        <pitch>
          <step>A</step>
          <alter>-1</alter>
          <octave>3</octave>
          </pitch>
        <duration>2</duration>
        <voice>5</voice>
        <type>eighth</type>
        <stem>up</stem>
        <staff>2</staff>
        <beam number="1">begin</beam>
        <notations>
          <slur type="start" placement="below" number="2" />
          </notations>
        </note>
      <note default-x="106.81" default-y="-431.74">
        <pitch>
          <step>E</step>
          <alter>-1</alter>
          <octave>3</octave>
          </pitch>
        <duration>2</duration>
        <voice>5</voice>
        <type>eighth</type>
        <stem>up</stem>
        <staff>2</staff>
        <beam number="1">end</beam>
        <notations>
          <slur type="stop" number="2" />
          </notations>
        </note>
      <backup>
        <duration>6</duration>
        </backup>
      <note default-x="14.00" default-y="-451.74">
        <pitch>
          <step>A</step>
          <alter>-1</alter>
          <octave>2</octave>
          </pitch>
        <duration>6</duration>
        <voice>6</voice>
        <type>quarter</type>
        <dot />
        <stem>down</stem>
        <staff>2</staff>
        </note>
      </measure>
    <measure number="78" width="144.28">
      <note default-x="13.80" default-y="-327.93">
        <pitch>
          <step>B</step>
          <alter>-1</alter>
          <octave>3</octave>
          </pitch>
        <duration>6</duration>
        <voice>1</voice>
        <type>quarter</type>
        <dot />
        <stem>up</stem>
        <staff>1</staff>
        <notations>
          <slur type="stop" number="1" />
          </notations>
        </note>
      <note default-x="13.80" default-y="-317.93">
        <chord />
        <pitch>
          <step>D</step>
          <alter>-1</alter>
          <octave>4</octave>
          </pitch>
        <duration>6</duration>
        <voice>1</voice>
        <type>quarter</type>
        <dot />
        <stem>up</stem>
        <staff>1</staff>
        </note>
      <note default-x="25.67" default-y="-312.93">
        <chord />
        <pitch>
          <step>E</step>
          <alter>-1</alter>
          <octave>4</octave>
          </pitch>
        <duration>6</duration>
        <voice>1</voice>
        <type>quarter</type>
        <dot />
        <stem>up</stem>
        <staff>1</staff>
        </note>
      <backup>
        <duration>6</duration>
        </backup>
      <note>
        <rest />
        <duration>2</duration>
        <voice>5</voice>
        <type>eighth</type>
        <staff>2</staff>
        </note>
      <note default-x="56.76" default-y="-421.74">
        <pitch>
          <step>G</step>
          <octave>3</octave>
          </pitch>
        <duration>2</duration>
        <voice>5</voice>
        <type>eighth</type>
        <stem>up</stem>
        <staff>2</staff>
        <beam number="1">begin</beam>
        <notations>
          <slur type="start" placement="below" number="1" />
          </notations>
        </note>
      <note default-x="99.72" default-y="-431.74">
        <pitch>
          <step>E</step>
          <alter>-1</alter>
          <octave>3</octave>
          </pitch>
        <duration>2</duration>
        <voice>5</voice>
        <type>eighth</type>
        <stem>up</stem>
        <staff>2</staff>
        <beam number="1">end</beam>
        <notations>
          <slur type="stop" number="1" />
          </notations>
        </note>
      <backup>
        <duration>6</duration>
        </backup>
      <note default-x="13.80" default-y="-451.74">
        <pitch>
          <step>A</step>
          <alter>-1</alter>
          <octave>2</octave>
          </pitch>
        <duration>6</duration>
        <voice>6</voice>
        <type>quarter</type>
        <dot />
        <stem>down</stem>
        <staff>2</staff>
        </note>
      </measure>
    <measure number="79" width="150.93">
      <note default-x="10.12" default-y="-312.93">
        <pitch>
          <step>E</step>
          <alter>-1</alter>
          <octave>4</octave>
          </pitch>
        <duration>4</duration>
        <voice>1</voice>
        <type>quarter</type>
        <stem>up</stem>
        <staff>1</staff>
        <notations>
          <slur type="start" placement="above" number="1" />
          <articulations>
            <accent />
            </articulations>
          </notations>
        </note>
      <note default-x="10.12" default-y="-297.93">
        <chord />
        <pitch>
          <step>A</step>
          <alter>-1</alter>
          <octave>4</octave>
          </pitch>
        <duration>4</duration>
        <voice>1</voice>
        <type>quarter</type>
        <stem>up</stem>
        <staff>1</staff>
        </note>
      <note default-x="10.12" default-y="-287.93">
        <chord />
        <pitch>
          <step>C</step>
          <octave>5</octave>
          </pitch>
        <duration>4</duration>
        <voice>1</voice>
        <type>quarter</type>
        <stem>up</stem>
        <staff>1</staff>
        </note>
      <note default-x="102.93" default-y="-322.93">
        <pitch>
          <step>C</step>
          <octave>4</octave>
          </pitch>
        <duration>2</duration>
        <voice>1</voice>
        <type>eighth</type>
        <stem>up</stem>
        <staff>1</staff>
        </note>
      <note default-x="102.93" default-y="-312.93">
        <chord />
        <pitch>
          <step>E</step>
          <alter>-1</alter>
          <octave>4</octave>
          </pitch>
        <duration>2</duration>
        <voice>1</voice>
        <type>eighth</type>
        <stem>up</stem>
        <staff>1</staff>
        </note>
      <note default-x="102.93" default-y="-297.93">
        <chord />
        <pitch>
          <step>A</step>
          <alter>-1</alter>
          <octave>4</octave>
          </pitch>
        <duration>2</duration>
        <voice>1</voice>
        <type>eighth</type>
        <stem>up</stem>
        <staff>1</staff>
        </note>
      <backup>
        <duration>6</duration>
        </backup>
      <note>
        <rest />
        <duration>2</duration>
        <voice>5</voice>
        <type>eighth</type>
        <staff>2</staff>
        </note>
      <note default-x="56.52" default-y="-416.74">
        <pitch>
          <step>A</step>
          <alter>-1</alter>
          <octave>3</octave>
          </pitch>
        <duration>2</duration>
        <voice>5</voice>
        <type>eighth</type>
        <stem>up</stem>
        <staff>2</staff>
        <beam number="1">begin</beam>
        <notations>
          <slur type="start" placement="below" number="2" />
          </notations>
        </note>
      <note default-x="102.93" default-y="-431.74">
        <pitch>
          <step>E</step>
          <alter>-1</alter>
          <octave>3</octave>
          </pitch>
        <duration>2</duration>
        <voice>5</voice>
        <type>eighth</type>
        <stem>up</stem>
        <staff>2</staff>
        <beam number="1">end</beam>
        <notations>
          <slur type="stop" number="2" />
          </notations>
        </note>
      <backup>
        <duration>6</duration>
        </backup>
      <note default-x="10.12" default-y="-451.74">
        <pitch>
          <step>A</step>
          <alter>-1</alter>
          <octave>2</octave>
          </pitch>
        <duration>6</duration>
        <voice>6</voice>
        <type>quarter</type>
        <dot />
        <stem>down</stem>
        <staff>2</staff>
        </note>
      </measure>
    <measure number="80" width="187.99">
      <direction placement="below">
        <direction-type>
          <wedge type="crescendo" number="1" default-y="-87.82" />
          </direction-type>
        <staff>1</staff>
        </direction>
      <note default-x="40.67" default-y="-307.93">
        <pitch>
          <step>F</step>
          <octave>4</octave>
          </pitch>
        <duration>3</duration>
        <voice>1</voice>
        <type>eighth</type>
        <dot />
        <stem>up</stem>
        <staff>1</staff>
        <beam number="1">begin</beam>
        </note>
      <note default-x="113.53" default-y="-302.93">
        <pitch>
          <step>G</step>
          <octave>4</octave>
          </pitch>
        <duration>1</duration>
        <voice>1</voice>
        <type>16th</type>
        <stem>up</stem>
        <staff>1</staff>
        <beam number="1">continue</beam>
        <beam number="2">forward hook</beam>
        </note>
      <note default-x="141.55" default-y="-297.93">
        <pitch>
          <step>A</step>
          <alter>-1</alter>
          <octave>4</octave>
          </pitch>
        <duration>2</duration>
        <voice>1</voice>
        <type>eighth</type>
        <stem>up</stem>
        <staff>1</staff>
        <beam number="1">end</beam>
        <notations>
          <slur type="stop" number="1" />
          </notations>
        </note>
      <direction placement="below">
        <direction-type>
          <wedge type="stop" number="1" />
          </direction-type>
        <staff>1</staff>
        </direction>
      <backup>
        <duration>6</duration>
        </backup>
      <note default-x="28.80" default-y="-322.93">
        <pitch>
          <step>C</step>
          <alter>-1</alter>
          <octave>4</octave>
          </pitch>
        <duration>6</duration>
        <voice>2</voice>
        <type>quarter</type>
        <dot />
        <accidental>flat</accidental>
        <stem>down</stem>
        <staff>1</staff>
        </note>
      <note default-x="40.67" default-y="-317.93">
        <chord />
        <pitch>
          <step>D</step>
          <octave>4</octave>
          </pitch>
        <duration>6</duration>
        <voice>2</voice>
        <type>quarter</type>
        <dot />
        <accidental>natural</accidental>
        <stem>down</stem>
        <staff>1</staff>
        </note>
      <backup>
        <duration>6</duration>
        </backup>
      <note>
        <rest />
        <duration>2</duration>
        <voice>5</voice>
        <type>eighth</type>
        <staff>2</staff>
        </note>
      <note default-x="85.50" default-y="-416.74">
        <pitch>
          <step>A</step>
          <alter>-1</alter>
          <octave>3</octave>
          </pitch>
        <duration>2</duration>
        <voice>5</voice>
        <type>eighth</type>
        <stem>up</stem>
        <staff>2</staff>
        <beam number="1">begin</beam>
        <notations>
          <slur type="start" placement="below" number="1" />
          </notations>
        </note>
      <note default-x="141.55" default-y="-426.74">
        <pitch>
          <step>F</step>
          <octave>3</octave>
          </pitch>
        <duration>2</duration>
        <voice>5</voice>
        <type>eighth</type>
        <stem>up</stem>
        <staff>2</staff>
        <beam number="1">end</beam>
        <notations>
          <slur type="stop" number="1" />
          </notations>
        </note>
      <backup>
        <duration>6</duration>
        </backup>
      <note default-x="40.67" default-y="-451.74">
        <pitch>
          <step>A</step>
          <alter>-1</alter>
          <octave>2</octave>
          </pitch>
        <duration>6</duration>
        <voice>6</voice>
        <type>quarter</type>
        <dot />
        <stem>down</stem>
        <staff>2</staff>
        </note>
      </measure>
    <measure number="81" width="157.01">
      <direction placement="below">
        <direction-type>
          <words default-y="-40.00" relative-x="-5.03" relative-y="-58.12" font-style="italic" font-size="12">rit.</words>
          </direction-type>
        <staff>1</staff>
        </direction>
      <note default-x="16.20" default-y="-292.93">
        <pitch>
          <step>B</step>
          <alter>-1</alter>
          <octave>4</octave>
          </pitch>
        <duration>4</duration>
        <voice>1</voice>
        <type>quarter</type>
        <stem>up</stem>
        <staff>1</staff>
        <notations>
          <slur type="start" placement="above" number="1" />
          <articulations>
            <accent />
            </articulations>
          </notations>
        </note>
      <direction placement="below">
        <direction-type>
          <wedge type="diminuendo" number="1" default-y="-84.07" />
          </direction-type>
        <staff>1</staff>
        </direction>
      <note default-x="109.01" default-y="-277.93">
        <pitch>
          <step>E</step>
          <alter>-1</alter>
          <octave>5</octave>
          </pitch>
        <duration>2</duration>
        <voice>1</voice>
        <type>eighth</type>
        <stem>up</stem>
        <staff>1</staff>
        <notations>
          <slur type="stop" number="1" />
          </notations>
        </note>
      <backup>
        <duration>6</duration>
        </backup>
      <note default-x="16.20" default-y="-317.93">
        <pitch>
          <step>D</step>
          <alter>-1</alter>
          <octave>4</octave>
          </pitch>
        <duration>6</duration>
        <voice>2</voice>
        <type>quarter</type>
        <dot />
        <accidental>flat</accidental>
        <stem>down</stem>
        <staff>1</staff>
        </note>
      <note default-x="16.20" default-y="-302.93">
        <chord />
        <pitch>
          <step>G</step>
          <octave>4</octave>
          </pitch>
        <duration>6</duration>
        <voice>2</voice>
        <type>quarter</type>
        <dot />
        <stem>down</stem>
        <staff>1</staff>
        </note>
      <backup>
        <duration>6</duration>
        </backup>
      <note>
        <rest>
          <display-step>B</display-step>
          <display-octave>2</display-octave>
          </rest>
        <duration>2</duration>
        <voice>5</voice>
        <type>eighth</type>
        <staff>2</staff>
        </note>
      <note default-x="62.60" default-y="-421.74">
        <pitch>
          <step>G</step>
          <octave>3</octave>
          </pitch>
        <duration>2</duration>
        <voice>5</voice>
        <type>eighth</type>
        <stem>up</stem>
        <staff>2</staff>
        <beam number="1">begin</beam>
        <notations>
          <slur type="start" placement="below" number="1" />
          </notations>
        </note>
      <note default-x="109.01" default-y="-431.74">
        <pitch>
          <step>E</step>
          <alter>-1</alter>
          <octave>3</octave>
          </pitch>
        <duration>2</duration>
        <voice>5</voice>
        <type>eighth</type>
        <stem>up</stem>
        <staff>2</staff>
        <beam number="1">end</beam>
        <notations>
          <slur type="stop" number="1" />
          </notations>
        </note>
      <backup>
        <duration>6</duration>
        </backup>
      <note default-x="16.20" default-y="-451.74">
        <pitch>
          <step>A</step>
          <alter>-1</alter>
          <octave>2</octave>
          </pitch>
        <duration>6</duration>
        <voice>6</voice>
        <type>quarter</type>
        <dot />
        <stem>down</stem>
        <staff>2</staff>
        </note>
      </measure>
    <measure number="82" width="160.41">
      <note default-x="14.00" default-y="-292.93">
        <pitch>
          <step>B</step>
          <octave>4</octave>
          </pitch>
        <duration>4</duration>
        <voice>1</voice>
        <type>quarter</type>
        <accidental>natural</accidental>
        <stem>up</stem>
        <staff>1</staff>
        <notations>
          <slur type="start" placement="above" number="1" />
          </notations>
        </note>
      <note default-x="106.81" default-y="-277.93">
        <pitch>
          <step>E</step>
          <alter>-1</alter>
          <octave>5</octave>
          </pitch>
        <duration>2</duration>
        <voice>1</voice>
        <type>eighth</type>
        <stem>up</stem>
        <staff>1</staff>
        <notations>
          <slur type="stop" number="1" />
          </notations>
        </note>
      <direction placement="below">
        <direction-type>
          <wedge type="stop" number="1" />
          </direction-type>
        <staff>1</staff>
        </direction>
      <backup>
        <duration>6</duration>
        </backup>
      <note default-x="14.00" default-y="-317.93">
        <pitch>
          <step>D</step>
          <alter>-1</alter>
          <octave>4</octave>
          </pitch>
        <duration>6</duration>
        <voice>2</voice>
        <type>quarter</type>
        <dot />
        <stem>down</stem>
        <staff>1</staff>
        </note>
      <note default-x="14.00" default-y="-302.93">
        <chord />
        <pitch>
          <step>G</step>
          <octave>4</octave>
          </pitch>
        <duration>6</duration>
        <voice>2</voice>
        <type>quarter</type>
        <dot />
        <stem>down</stem>
        <staff>1</staff>
        </note>
      <backup>
        <duration>6</duration>
        </backup>
      <note>
        <rest>
          <display-step>B</display-step>
          <display-octave>2</display-octave>
          </rest>
        <duration>2</duration>
        <voice>5</voice>
        <type>eighth</type>
        <staff>2</staff>
        </note>
      <note default-x="60.40" default-y="-421.74">
        <pitch>
          <step>G</step>
          <octave>3</octave>
          </pitch>
        <duration>2</duration>
        <voice>5</voice>
        <type>eighth</type>
        <stem>up</stem>
        <staff>2</staff>
        <beam number="1">begin</beam>
        <notations>
          <slur type="start" placement="below" number="1" />
          </notations>
        </note>
      <note default-x="106.81" default-y="-431.74">
        <pitch>
          <step>E</step>
          <alter>-1</alter>
          <octave>3</octave>
          </pitch>
        <duration>2</duration>
        <voice>5</voice>
        <type>eighth</type>
        <stem>up</stem>
        <staff>2</staff>
        <beam number="1">end</beam>
        <notations>
          <slur type="stop" number="1" />
          </notations>
        </note>
      <backup>
        <duration>6</duration>
        </backup>
      <note default-x="14.00" default-y="-451.74">
        <pitch>
          <step>A</step>
          <alter>-1</alter>
          <octave>2</octave>
          </pitch>
        <duration>6</duration>
        <voice>6</voice>
        <type>quarter</type>
        <dot />
        <stem>down</stem>
        <staff>2</staff>
        </note>
      <barline location="right">
        <bar-style>light-light</bar-style>
        </barline>
      </measure>
    </part></score-partwise>
