<?xml version='1.0' encoding='utf-8'?>
<score-partwise version="3.1"><part-list><score-part id="P2"><part-name>Piano</part-name></score-part></part-list><part id="P2"><measure number="19" width="200.23">
      <print>
        <staff-layout number="1">
          <staff-distance>101.03</staff-distance>
          </staff-layout>
        <staff-layout number="2">
          <staff-distance>99.13</staff-distance>
          </staff-layout>
        </print>
      <attributes><divisions>2</divisions>
        <key>
          <fifths>1</fifths>
          </key>
        <staves>2</staves>
        <clef number="1">
          <sign>G</sign>
          <line>2</line>
          </clef>
        <clef number="2">
          <sign>F</sign>
          <line>4</line>
          </clef>
        </attributes><note default-x="114.31" default-y="-186.03">
        <pitch>
          <step>D</step>
          <octave>4</octave>
          </pitch>
        <duration>2</duration>
        <voice>1</voice>
        <type>quarter</type>
        <stem>up</stem>
        <staff>1</staff>
        </note>
      <note default-x="114.31" default-y="-161.03">
        <chord />
        <pitch>
          <step>B</step>
          <octave>4</octave>
          </pitch>
        <duration>2</duration>
        <voice>1</voice>
        <type>quarter</type>
        <stem>up</stem>
        <staff>1</staff>
        </note>
      <note default-x="156.37" default-y="-181.03">
        <pitch>
          <step>E</step>
          <octave>4</octave>
          </pitch>
        <duration>2</duration>
        <voice>1</voice>
        <type>quarter</type>
        <stem>up</stem>
        <staff>1</staff>
        </note>
      <note default-x="156.37" default-y="-156.03">
        <chord />
        <pitch>
          <step>C</step>
          <octave>5</octave>
          </pitch>
        <duration>2</duration>
        <voice>1</voice>
        <type>quarter</type>
        <stem>up</stem>
        <staff>1</staff>
        </note>
      <backup>
        <duration>4</duration>
        </backup>
      <note default-x="102.42" default-y="-290.15">
        <pitch>
          <step>F</step>
          <octave>3</octave>
          </pitch>
        <duration>2</duration>
        <voice>5</voice>
        <type>quarter</type>
        <accidental>natural</accidental>
        <stem>down</stem>
        <staff>2</staff>
        </note>
      <note default-x="114.31" default-y="-285.15">
        <chord />
        <pitch>
          <step>G</step>
          <alter>1</alter>
          <octave>3</octave>
          </pitch>
        <duration>2</duration>
        <voice>5</voice>
        <type>quarter</type>
        <accidental>sharp</accidental>
        <stem>down</stem>
        <staff>2</staff>
        </note>
      <note default-x="156.37" default-y="-295.15">
        <pitch>
          <step>E</step>
          <octave>3</octave>
          </pitch>
        <duration>2</duration>
        <voice>5</voice>
        <type>quarter</type>
        <stem>down</stem>
        <staff>2</staff>
        </note>
      <note default-x="156.37" default-y="-285.15">
        <chord />
        <pitch>
          <step>G</step>
          <alter>1</alter>
          <octave>3</octave>
          </pitch>
        <duration>2</duration>
        <voice>5</voice>
        <type>quarter</type>
        <stem>down</stem>
        <staff>2</staff>
        </note>
      </measure>
    <measure number="20" width="114.40">
      <note default-x="20.43" default-y="-166.03">
        <pitch>
          <step>A</step>
          <octave>4</octave>
          </pitch>
        <duration>2</duration>
        <voice>1</voice>
        <type>quarter</type>
        <stem>up</stem>
        <staff>1</staff>
        </note>
      <note default-x="62.64" default-y="-181.03">
        <pitch>
          <step>E</step>
          <octave>4</octave>
          </pitch>
        <duration>2</duration>
        <voice>1</voice>
        <type>quarter</type>
        <stem>up</stem>
        <staff>1</staff>
        </note>
      <backup>
        <duration>4</duration>
        </backup>
      <note default-x="20.43" default-y="-191.03">
        <pitch>
          <step>C</step>
          <octave>4</octave>
          </pitch>
        <duration>4</duration>
        <voice>2</voice>
        <type>half</type>
        <stem>down</stem>
        <staff>1</staff>
        </note>
      <backup>
        <duration>4</duration>
        </backup>
      <note default-x="20.43" default-y="-315.15">
        <pitch>
          <step>A</step>
          <octave>2</octave>
          </pitch>
        <duration>4</duration>
        <voice>5</voice>
        <type>half</type>
        <stem>down</stem>
        <staff>2</staff>
        </note>
      <note default-x="20.43" default-y="-280.15">
        <chord />
        <pitch>
          <step>A</step>
          <octave>3</octave>
          </pitch>
        <duration>4</duration>
        <voice>5</voice>
        <type>half</type>
        <stem>down</stem>
        <staff>2</staff>
        </note>
      </measure>
    <measure number="21" width="122.20">
      <note default-x="32.92" default-y="-186.03">
        <pitch>
          <step>D</step>
          <alter>1</alter>
          <octave>4</octave>
          </pitch>
        <duration>3</duration>
        <voice>1</voice>
        <type>quarter</type>
        <dot />
        <accidental>sharp</accidental>
        <stem>up</stem>
        <staff>1</staff>
        </note>
      <note default-x="32.92" default-y="-176.03">
        <chord />
        <pitch>
          <step>F</step>
          <alter>1</alter>
          <octave>4</octave>
          </pitch>
        <duration>3</duration>
        <voice>1</voice>
        <type>quarter</type>
        <dot />
        <accidental>sharp</accidental>
        <stem>up</stem>
        <staff>1</staff>
        </note>
      <note default-x="32.92" default-y="-156.03">
        <chord />
        <pitch>
          <step>C</step>
          <octave>5</octave>
          </pitch>
        <duration>3</duration>
        <voice>1</voice>
        <type>quarter</type>
        <dot />
        <stem>up</stem>
        <staff>1</staff>
        </note>
      <note>
        <rest />
        <duration>1</duration>
        <voice>1</voice>
        <type>eighth</type>
        <staff>1</staff>
        <notations>
          <fermata type="upright" relative-y="5.00" />
          </notations>
        </note>
      <backup>
        <duration>4</duration>
        </backup>
      <note default-x="32.92" default-y="-280.15">
        <pitch>
          <step>A</step>
          <octave>3</octave>
          </pitch>
        <duration>3</duration>
        <voice>5</voice>
        <type>quarter</type>
        <dot />
        <stem>down</stem>
        <staff>2</staff>
        </note>
      <note default-x="32.92" default-y="-270.15">
        <chord />
        <pitch>
          <step>C</step>
          <octave>4</octave>
          </pitch>
        <duration>3</duration>
        <voice>5</voice>
        <type>quarter</type>
        <dot />
        <stem>down</stem>
        <staff>2</staff>
        </note>
      <note>
        <rest />
        <duration>1</duration>
        <voice>5</voice>
        <type>eighth</type>
        <staff>2</staff>
        <notations>
          <fermata type="upright" relative-y="5.00" />
          </notations>
        </note>
      </measure>
    <measure number="22" width="105.75">
      <note default-x="20.43" default-y="-156.03">
        <pitch>
          <step>C</step>
          <octave>5</octave>
          </pitch>
        <duration>3</duration>
        <voice>1</voice>
        <type>quarter</type>
        <dot />
        <stem>up</stem>
        <staff>1</staff>
        </note>
      <note default-x="62.84" default-y="-156.03">
        <pitch>
          <step>C</step>
          <octave>5</octave>
          </pitch>
        <duration>1</duration>
        <voice>1</voice>
        <type>eighth</type>
        <stem>up</stem>
        <staff>1</staff>
        <notations>
          <slur type="start" placement="above" number="1" />
          </notations>
        </note>
      <backup>
        <duration>4</duration>
        </backup>
      <note default-x="20.43" default-y="-181.03">
        <pitch>
          <step>E</step>
          <octave>4</octave>
          </pitch>
        <duration>4</duration>
        <voice>2</voice>
        <type>half</type>
        <stem>down</stem>
        <staff>1</staff>
        </note>
      <note default-x="20.43" default-y="-171.03">
        <chord />
        <pitch>
          <step>G</step>
          <octave>4</octave>
          </pitch>
        <duration>4</duration>
        <voice>2</voice>
        <type>half</type>
        <stem>down</stem>
        <staff>1</staff>
        </note>
      <backup>
        <duration>4</duration>
        </backup>
      <note default-x="20.43" default-y="-285.15">
        <pitch>
          <step>G</step>
          <octave>3</octave>
          </pitch>
        <duration>4</duration>
        <voice>5</voice>
        <type>half</type>
        <stem>down</stem>
        <staff>2</staff>
        </note>
      <note default-x="20.43" default-y="-270.15">
        <chord />
        <pitch>
          <step>C</step>
          <octave>4</octave>
          </pitch>
        <duration>4</duration>
        <voice>5</voice>
        <type>half</type>
        <stem>down</stem>
        <staff>2</staff>
        </note>
      </measure>
    <measure number="23" width="125.81">
      <direction placement="below">
        <direction-type>
          <wedge type="crescendo" number="1" default-y="-77.02" />
          </direction-type>
        <staff>1</staff>
        </direction>
      <note default-x="29.93" default-y="-146.03">
        <pitch>
          <step>E</step>
          <octave>5</octave>
          </pitch>
        <duration>1</duration>
        <voice>1</voice>
        <type>eighth</type>
        <stem>up</stem>
        <staff>1</staff>
        <beam number="1">begin</beam>
        </note>
      <note default-x="51.12" default-y="-151.03">
        <pitch>
          <step>D</step>
          <octave>5</octave>
          </pitch>
        <duration>1</duration>
        <voice>1</voice>
        <type>eighth</type>
        <stem>up</stem>
        <staff>1</staff>
        <beam number="1">continue</beam>
        </note>
      <note default-x="72.31" default-y="-156.03">
        <pitch>
          <step>C</step>
          <octave>5</octave>
          </pitch>
        <duration>1</duration>
        <voice>1</voice>
        <type>eighth</type>
        <stem>up</stem>
        <staff>1</staff>
        <beam number="1">continue</beam>
        </note>
      <note default-x="93.84" default-y="-151.03">
        <pitch>
          <step>D</step>
          <octave>5</octave>
          </pitch>
        <duration>1</duration>
        <voice>1</voice>
        <type>eighth</type>
        <stem>up</stem>
        <staff>1</staff>
        <beam number="1">end</beam>
        </note>
      <direction placement="below">
        <direction-type>
          <wedge type="stop" number="1" />
          </direction-type>
        <staff>1</staff>
        </direction>
      <backup>
        <duration>4</duration>
        </backup>
      <note default-x="18.04" default-y="-176.03">
        <pitch>
          <step>F</step>
          <octave>4</octave>
          </pitch>
        <duration>4</duration>
        <voice>2</voice>
        <type>half</type>
        <accidental>natural</accidental>
        <stem>down</stem>
        <staff>1</staff>
        </note>
      <note default-x="29.93" default-y="-171.03">
        <chord />
        <pitch>
          <step>G</step>
          <octave>4</octave>
          </pitch>
        <duration>4</duration>
        <voice>2</voice>
        <type>half</type>
        <stem>down</stem>
        <staff>1</staff>
        </note>
      <backup>
        <duration>4</duration>
        </backup>
      <note default-x="29.93" default-y="-285.15">
        <pitch>
          <step>G</step>
          <octave>3</octave>
          </pitch>
        <duration>4</duration>
        <tie type="start" />
        <voice>5</voice>
        <type>half</type>
        <stem>down</stem>
        <staff>2</staff>
        <notations>
          <tied type="start" />
          </notations>
        </note>
      <note default-x="29.93" default-y="-275.15">
        <chord />
        <pitch>
          <step>B</step>
          <octave>3</octave>
          </pitch>
        <duration>4</duration>
        <voice>5</voice>
        <type>half</type>
        <stem>down</stem>
        <staff>2</staff>
        </note>
      </measure>
    <measure number="24" width="74.45">
      <note default-x="23.32" default-y="-181.03">
        <pitch>
          <step>E</step>
          <octave>4</octave>
          </pitch>
        <duration>4</duration>
        <voice>1</voice>
        <type>half</type>
        <stem>down</stem>
        <staff>1</staff>
        <notations>
          <slur type="stop" number="1" />
          </notations>
        </note>
      <note default-x="23.32" default-y="-156.03">
        <chord />
        <pitch>
          <step>C</step>
          <octave>5</octave>
          </pitch>
        <duration>4</duration>
        <voice>1</voice>
        <type>half</type>
        <stem>down</stem>
        <staff>1</staff>
        </note>
      <note default-x="23.32" default-y="-146.03">
        <chord />
        <pitch>
          <step>E</step>
          <octave>5</octave>
          </pitch>
        <duration>4</duration>
        <voice>1</voice>
        <type>half</type>
        <stem>down</stem>
        <staff>1</staff>
        </note>
      <backup>
        <duration>4</duration>
        </backup>
      <note default-x="23.32" default-y="-305.15">
        <pitch>
          <step>C</step>
          <octave>3</octave>
          </pitch>
        <duration>4</duration>
        <voice>5</voice>
        <type>half</type>
        <stem>down</stem>
        <staff>2</staff>
        </note>
      <note default-x="23.32" default-y="-285.15">
        <chord />
        <pitch>
          <step>G</step>
          <octave>3</octave>
          </pitch>
        <duration>4</duration>
        <tie type="stop" />
        <voice>5</voice>
        <type>half</type>
        <stem>down</stem>
        <staff>2</staff>
        <notations>
          <tied type="stop" />
          </notations>
        </note>
      <note default-x="23.32" default-y="-270.15">
        <chord />
        <pitch>
          <step>C</step>
          <octave>4</octave>
          </pitch>
        <duration>4</duration>
        <voice>5</voice>
        <type>half</type>
        <stem>down</stem>
        <staff>2</staff>
        </note>
      </measure>
    <measure number="25" width="140.02">
      <note default-x="28.39" default-y="-146.03">
        <pitch>
          <step>E</step>
          <octave>5</octave>
          </pitch>
        <duration>1</duration>
        <voice>1</voice>
        <type>eighth</type>
        <stem>up</stem>
        <staff>1</staff>
        <beam number="1">begin</beam>
        <notations>
          <slur type="start" placement="above" number="1" />
          </notations>
        </note>
      <note default-x="52.39" default-y="-141.03">
        <pitch>
          <step>F</step>
          <alter>1</alter>
          <octave>5</octave>
          </pitch>
        <duration>1</duration>
        <voice>1</voice>
        <type>eighth</type>
        <stem>up</stem>
        <staff>1</staff>
        <beam number="1">continue</beam>
        </note>
      <note default-x="70.32" default-y="-136.03">
        <pitch>
          <step>G</step>
          <octave>5</octave>
          </pitch>
        <duration>1</duration>
        <voice>1</voice>
        <type>eighth</type>
        <stem>up</stem>
        <staff>1</staff>
        <beam number="1">continue</beam>
        </note>
      <note default-x="88.25" default-y="-151.03">
        <pitch>
          <step>D</step>
          <octave>5</octave>
          </pitch>
        <duration>1</duration>
        <voice>1</voice>
        <type>eighth</type>
        <stem>up</stem>
        <staff>1</staff>
        <beam number="1">end</beam>
        </note>
      <backup>
        <duration>4</duration>
        </backup>
      <note default-x="28.39" default-y="-171.03">
        <pitch>
          <step>G</step>
          <octave>4</octave>
          </pitch>
        <duration>3</duration>
        <voice>2</voice>
        <type>quarter</type>
        <dot />
        <stem>down</stem>
        <staff>1</staff>
        </note>
      <note default-x="88.25" default-y="-171.03">
        <pitch>
          <step>G</step>
          <octave>4</octave>
          </pitch>
        <duration>1</duration>
        <voice>2</voice>
        <type>eighth</type>
        <stem>down</stem>
        <staff>1</staff>
        </note>
      <backup>
        <duration>4</duration>
        </backup>
      <note default-x="28.39" default-y="-270.15">
        <pitch>
          <step>C</step>
          <octave>4</octave>
          </pitch>
        <duration>3</duration>
        <voice>5</voice>
        <type>quarter</type>
        <dot />
        <stem>down</stem>
        <staff>2</staff>
        </note>
      <note default-x="28.39" default-y="-260.15">
        <chord />
        <pitch>
          <step>E</step>
          <octave>4</octave>
          </pitch>
        <duration>3</duration>
        <voice>5</voice>
        <type>quarter</type>
        <dot />
        <stem>down</stem>
        <staff>2</staff>
        </note>
      <note default-x="88.25" default-y="-275.15">
        <pitch>
          <step>B</step>
          <octave>3</octave>
          </pitch>
        <duration>1</duration>
        <voice>5</voice>
        <type>eighth</type>
        <stem>down</stem>
        <staff>2</staff>
        </note>
      <note default-x="88.25" default-y="-265.15">
        <chord />
        <pitch>
          <step>D</step>
          <octave>4</octave>
          </pitch>
        <duration>1</duration>
        <voice>5</voice>
        <type>eighth</type>
        <stem>down</stem>
        <staff>2</staff>
        </note>
      </measure>
    <measure number="26" width="133.08">
      <note default-x="31.12" default-y="-156.03">
        <pitch>
          <step>C</step>
          <octave>5</octave>
          </pitch>
        <duration>2</duration>
        <voice>1</voice>
        <type>quarter</type>
        <stem>up</stem>
        <staff>1</staff>
        </note>
      <note default-x="82.42" default-y="-161.03">
        <pitch>
          <step>B</step>
          <octave>4</octave>
          </pitch>
        <duration>2</duration>
        <voice>1</voice>
        <type>quarter</type>
        <stem>up</stem>
        <staff>1</staff>
        </note>
      <backup>
        <duration>4</duration>
        </backup>
      <note default-x="31.12" default-y="-181.03">
        <pitch>
          <step>E</step>
          <octave>4</octave>
          </pitch>
        <duration>1</duration>
        <voice>2</voice>
        <type>eighth</type>
        <stem>down</stem>
        <staff>1</staff>
        <beam number="1">begin</beam>
        <notations>
          <slur type="start" placement="below" number="2" />
          </notations>
        </note>
      <note default-x="56.77" default-y="-176.03">
        <pitch>
          <step>F</step>
          <alter>1</alter>
          <octave>4</octave>
          </pitch>
        <duration>1</duration>
        <voice>2</voice>
        <type>eighth</type>
        <stem>down</stem>
        <staff>1</staff>
        <beam number="1">continue</beam>
        </note>
      <note default-x="82.42" default-y="-171.03">
        <pitch>
          <step>G</step>
          <octave>4</octave>
          </pitch>
        <duration>1</duration>
        <voice>2</voice>
        <type>eighth</type>
        <stem>down</stem>
        <staff>1</staff>
        <beam number="1">continue</beam>
        </note>
      <note default-x="103.28" default-y="-186.03">
        <pitch>
          <step>D</step>
          <octave>4</octave>
          </pitch>
        <duration>1</duration>
        <voice>2</voice>
        <type>eighth</type>
        <stem>down</stem>
        <staff>1</staff>
        <beam number="1">end</beam>
        <notations>
          <slur type="stop" number="2" />
          </notations>
        </note>
      <backup>
        <duration>4</duration>
        </backup>
      <note default-x="31.12" default-y="-280.15">
        <pitch>
          <step>A</step>
          <octave>3</octave>
          </pitch>
        <duration>2</duration>
        <voice>5</voice>
        <type>quarter</type>
        <stem>down</stem>
        <staff>2</staff>
        </note>
      <note default-x="31.12" default-y="-270.15">
        <chord />
        <pitch>
          <step>C</step>
          <octave>4</octave>
          </pitch>
        <duration>2</duration>
        <voice>5</voice>
        <type>quarter</type>
        <stem>down</stem>
        <staff>2</staff>
        </note>
      <note default-x="82.42" default-y="-285.15">
        <pitch>
          <step>G</step>
          <octave>3</octave>
          </pitch>
        <duration>2</duration>
        <voice>5</voice>
        <type>quarter</type>
        <stem>down</stem>
        <staff>2</staff>
        </note>
      <note default-x="82.42" default-y="-275.15">
        <chord />
        <pitch>
          <step>B</step>
          <octave>3</octave>
          </pitch>
        <duration>2</duration>
        <voice>5</voice>
        <type>quarter</type>
        <stem>down</stem>
        <staff>2</staff>
        </note>
      </measure>
    <measure number="27" width="131.61">
      <direction placement="above">
        <direction-type>
          <words default-y="48.27" relative-y="-25.00" font-style="italic">ritard.</words>
          </direction-type>
        <staff>1</staff>
        </direction>
      <direction placement="below">
        <direction-type>
          <wedge type="diminuendo" number="1" default-y="-80.00" />
          </direction-type>
        <staff>1</staff>
        </direction>
      <note default-x="16.00" default-y="-166.03">
        <pitch>
          <step>A</step>
          <octave>4</octave>
          </pitch>
        <duration>2</duration>
        <voice>1</voice>
        <type>quarter</type>
        <stem>up</stem>
        <staff>1</staff>
        </note>
      <note default-x="77.30" default-y="-171.03">
        <pitch>
          <step>G</step>
          <octave>4</octave>
          </pitch>
        <duration>2</duration>
        <voice>1</voice>
        <type>quarter</type>
        <stem>up</stem>
        <staff>1</staff>
        <notations>
          <slur type="stop" number="1" />
          </notations>
        </note>
      <direction placement="below">
        <direction-type>
          <wedge type="stop" number="1" />
          </direction-type>
        <staff>1</staff>
        </direction>
      <backup>
        <duration>4</duration>
        </backup>
      <note default-x="16.00" default-y="-280.15">
        <pitch>
          <step>A</step>
          <octave>3</octave>
          </pitch>
        <duration>1</duration>
        <voice>5</voice>
        <type>eighth</type>
        <stem>up</stem>
        <staff>2</staff>
        <beam number="1">begin</beam>
        <notations>
          <slur type="start" placement="above" number="1" />
          </notations>
        </note>
      <note default-x="40.51" default-y="-275.15">
        <pitch>
          <step>B</step>
          <octave>3</octave>
          </pitch>
        <duration>1</duration>
        <voice>5</voice>
        <type>eighth</type>
        <stem>up</stem>
        <staff>2</staff>
        <beam number="1">continue</beam>
        </note>
      <note default-x="77.30" default-y="-270.15">
        <pitch>
          <step>C</step>
          <alter>1</alter>
          <octave>4</octave>
          </pitch>
        <duration>1</duration>
        <voice>5</voice>
        <type>eighth</type>
        <accidental>sharp</accidental>
        <stem>up</stem>
        <staff>2</staff>
        <beam number="1">continue</beam>
        </note>
      <note default-x="101.81" default-y="-280.15">
        <pitch>
          <step>A</step>
          <octave>3</octave>
          </pitch>
        <duration>1</duration>
        <voice>5</voice>
        <type>eighth</type>
        <stem>up</stem>
        <staff>2</staff>
        <beam number="1">end</beam>
        <notations>
          <slur type="stop" number="1" />
          </notations>
        </note>
      <backup>
        <duration>4</duration>
        </backup>
      <note default-x="16.00" default-y="-290.15">
        <pitch>
          <step>F</step>
          <alter>1</alter>
          <octave>3</octave>
          </pitch>
        <duration>2</duration>
        <voice>6</voice>
        <type>quarter</type>
        <stem>down</stem>
        <staff>2</staff>
        </note>
      <note default-x="77.30" default-y="-295.15">
        <pitch>
          <step>E</step>
          <octave>3</octave>
          </pitch>
        <duration>2</duration>
        <voice>6</voice>
        <type>quarter</type>
        <stem>down</stem>
        <staff>2</staff>
        </note>
      </measure>
    </part></score-partwise>
